{"glyphs":{"0":{"ha":794,"x_min":60,"x_max":734,"o":"m 734 496 q 715 282 734 376 q 656 121 696 187 q 552 21 616 56 q 396 -14 488 -14 q 207 47 281 -14 q 96 222 132 108 q 60 496 60 336 q 93 771 60 656 q 200 946 126 885 q 396 1007 274 1007 q 586 946 511 1007 q 697 771 661 886 q 734 496 734 657 m 221 496 q 238 287 221 371 q 293 161 254 203 q 396 119 332 119 q 499 161 460 119 q 555 286 538 202 q 572 496 572 370 q 555 705 572 621 q 500 832 538 789 q 396 874 461 874 q 293 832 331 874 q 238 705 254 789 q 221 496 221 621 z "},"1":{"ha":794,"x_min":104,"x_max":531,"o":"m 531 0 l 371 0 l 371 638 q 372 702 371 670 q 373 764 372 734 q 376 823 374 795 q 341 789 362 807 q 298 751 321 770 l 184 660 l 104 761 l 398 991 l 531 991 l 531 0 z "},"2":{"ha":794,"x_min":62,"x_max":734,"o":"m 734 0 l 62 0 l 62 120 l 319 380 q 442 512 394 456 q 514 616 490 567 q 537 724 537 666 q 496 833 537 796 q 387 870 454 870 q 268 845 322 870 q 155 772 213 819 l 67 878 q 156 942 109 913 q 261 988 203 971 q 394 1006 319 1006 q 557 972 488 1006 q 662 879 625 939 q 699 740 699 819 q 667 592 699 660 q 576 458 635 524 q 436 315 517 392 l 264 147 l 264 140 l 734 140 l 734 0 z "},"3":{"ha":794,"x_min":58,"x_max":726,"o":"m 696 765 q 669 648 696 698 q 594 567 642 599 q 486 522 547 536 l 486 517 q 665 443 604 503 q 726 285 726 383 q 684 131 726 199 q 557 25 643 64 q 338 -14 472 -14 q 188 -1 257 -14 q 58 41 119 12 l 58 182 q 192 134 121 151 q 327 117 263 117 q 504 164 451 117 q 557 292 557 210 q 529 379 557 345 q 445 430 502 413 q 297 447 387 447 l 210 447 l 210 575 l 298 575 q 436 596 384 575 q 512 653 488 616 q 535 739 535 690 q 494 838 535 802 q 371 873 452 873 q 280 862 321 873 q 204 833 239 850 q 138 795 170 815 l 62 905 q 196 977 118 947 q 378 1006 274 1006 q 613 940 530 1006 q 696 765 696 875 z "},"4":{"ha":794,"x_min":27,"x_max":770,"o":"m 770 218 l 635 218 l 635 0 l 478 0 l 478 218 l 27 218 l 27 338 l 480 994 l 635 994 l 635 350 l 770 350 l 770 218 m 478 350 l 478 596 q 479 658 478 627 q 481 719 480 690 q 484 773 483 748 q 486 814 486 798 l 481 814 q 452 759 468 787 q 419 704 437 730 l 175 350 l 478 350 z "},"5":{"ha":794,"x_min":79,"x_max":722,"o":"m 399 620 q 568 586 495 620 q 682 485 641 551 q 722 323 722 419 q 678 143 722 219 q 549 27 634 68 q 340 -14 463 -14 q 195 0 262 -14 q 79 41 127 14 l 79 184 q 201 138 130 156 q 337 120 272 120 q 456 140 406 120 q 532 203 505 161 q 559 309 559 245 q 504 441 559 395 q 334 488 450 488 q 247 480 293 488 q 171 465 201 473 l 101 507 l 138 991 l 654 991 l 654 851 l 279 851 l 257 604 q 315 615 281 610 q 399 620 349 620 z "},"6":{"ha":794,"x_min":64,"x_max":738,"o":"m 64 422 q 76 595 64 510 q 119 753 89 680 q 204 884 150 827 q 340 972 258 940 q 537 1004 422 1004 q 604 1002 567 1004 q 666 993 642 999 l 666 861 q 608 872 640 868 q 545 876 576 876 q 351 829 420 876 q 251 700 281 782 q 216 513 221 618 l 224 513 q 275 574 245 547 q 350 616 306 600 q 452 632 394 632 q 604 596 539 632 q 703 491 668 559 q 738 325 738 422 q 698 144 738 220 q 586 27 659 68 q 412 -14 513 -14 q 275 14 338 -14 q 164 95 212 41 q 90 231 117 149 q 64 422 64 313 m 410 118 q 534 169 487 118 q 581 323 581 219 q 539 458 581 408 q 414 507 498 507 q 315 483 357 507 q 249 421 272 458 q 225 345 225 384 q 237 266 225 306 q 271 192 248 226 q 329 138 294 159 q 410 118 363 118 z "},"7":{"ha":794,"x_min":50,"x_max":736,"o":"m 176 0 l 565 852 l 50 852 l 50 991 l 736 991 l 736 882 l 347 0 l 176 0 z "},"8":{"ha":794,"x_min":60,"x_max":734,"o":"m 397 1005 q 552 978 483 1005 q 662 899 621 951 q 703 768 703 846 q 678 663 703 707 q 611 584 653 618 q 517 525 569 551 q 624 459 575 496 q 704 373 673 422 q 734 257 734 323 q 691 113 734 174 q 574 19 649 52 q 398 -14 498 -14 q 214 18 290 -14 q 99 110 138 50 q 60 252 60 169 q 87 370 60 320 q 160 457 114 420 q 260 519 205 494 q 175 582 214 547 q 114 662 136 616 q 91 768 91 708 q 132 898 91 846 q 243 978 174 951 q 397 1005 313 1005 m 212 258 q 258 151 212 193 q 395 109 304 109 q 534 150 486 109 q 581 259 581 191 q 557 336 581 302 q 493 395 533 369 q 404 444 452 421 l 382 452 q 291 402 329 430 q 232 338 253 374 q 212 258 212 303 m 395 882 q 287 850 330 882 q 245 758 245 818 q 266 684 245 715 q 321 632 286 654 q 399 591 357 610 q 474 631 441 609 q 528 684 508 653 q 548 758 548 715 q 506 850 548 818 q 395 882 463 882 z "},"9":{"ha":794,"x_min":58,"x_max":732,"o":"m 732 569 q 720 396 732 481 q 676 237 707 311 q 592 107 646 163 q 456 18 538 50 q 258 -14 374 -14 q 190 -11 229 -14 q 127 -2 152 -7 l 127 131 q 185 119 153 123 q 250 115 218 115 q 445 161 375 115 q 545 290 515 208 q 578 477 574 372 l 570 477 q 521 417 551 444 q 447 375 491 391 q 340 359 403 359 q 191 395 254 359 q 93 499 127 431 q 58 665 58 568 q 98 846 58 770 q 211 963 138 922 q 383 1004 284 1004 q 521 978 458 1004 q 632 896 585 951 q 706 760 680 842 q 732 569 732 678 m 385 873 q 262 822 310 873 q 215 667 215 772 q 256 533 215 583 q 380 484 296 484 q 481 508 439 484 q 547 569 524 532 q 570 645 570 606 q 559 725 570 685 q 525 798 548 765 q 467 852 502 831 q 385 873 432 873 z "},"\u0000":{"ha":0,"x_min":0,"x_max":0,"o":""},"\r":{"ha":361,"x_min":0,"x_max":0,"o":""}," ":{"ha":361,"x_min":0,"x_max":0,"o":""},"!":{"ha":382,"x_min":91,"x_max":290,"o":"m 252 302 l 132 302 l 99 991 l 284 991 l 252 302 m 91 84 q 120 162 91 140 q 191 185 149 185 q 261 162 232 185 q 290 84 290 140 q 261 6 290 30 q 191 -18 232 -18 q 120 6 149 -18 q 91 84 91 30 z "},"\"":{"ha":605,"x_min":91,"x_max":514,"o":"m 247 991 l 220 633 l 117 633 l 91 991 l 247 991 m 514 991 l 488 633 l 385 633 l 359 991 l 514 991 z "},"#":{"ha":897,"x_min":33,"x_max":864,"o":"m 671 591 l 633 397 l 817 397 l 817 284 l 612 284 l 557 0 l 436 0 l 492 284 l 322 284 l 269 0 l 151 0 l 203 284 l 33 284 l 33 397 l 224 397 l 263 591 l 83 591 l 83 705 l 283 705 l 338 991 l 458 991 l 404 705 l 575 705 l 630 991 l 747 991 l 693 705 l 864 705 l 864 591 l 671 591 m 344 397 l 513 397 l 552 591 l 382 591 l 344 397 z "},"$":{"ha":794,"x_min":73,"x_max":726,"o":"m 351 -81 l 351 59 q 196 74 267 60 q 74 111 125 88 l 74 255 q 203 211 126 231 q 351 189 279 191 l 351 443 q 192 512 253 476 q 102 596 130 548 q 73 711 73 644 q 108 830 73 780 q 206 909 143 880 q 351 943 269 938 l 351 1054 l 439 1054 l 439 945 q 579 929 515 943 q 701 888 643 914 l 652 762 q 546 795 601 783 q 439 813 491 808 l 439 565 q 587 507 522 538 q 689 428 652 475 q 726 305 726 381 q 652 141 726 205 q 439 63 579 76 l 439 -81 l 351 -81 m 439 194 q 536 228 505 202 q 568 296 568 254 q 555 345 568 325 q 514 380 542 364 q 439 410 486 395 l 439 194 m 351 598 l 351 810 q 285 794 312 806 q 244 762 258 782 q 231 715 231 743 q 243 665 231 686 q 282 628 255 644 q 351 598 309 612 z "},"%":{"ha":1200,"x_min":56,"x_max":1144,"o":"m 274 1006 q 439 925 383 1006 q 496 696 496 844 q 442 466 496 549 q 274 383 388 383 q 112 466 168 383 q 56 696 56 549 q 109 925 56 844 q 274 1006 161 1006 m 275 895 q 210 845 231 895 q 189 695 189 795 q 210 545 189 595 q 275 494 231 494 q 341 545 319 494 q 363 695 363 595 q 342 845 363 795 q 275 895 320 895 m 940 991 l 390 0 l 259 0 l 809 991 l 940 991 m 922 609 q 1087 528 1031 609 q 1144 299 1144 447 q 1090 70 1144 153 q 922 -13 1036 -13 q 760 70 815 -13 q 704 299 704 153 q 756 528 704 447 q 922 609 809 609 m 922 498 q 858 448 878 498 q 837 298 837 399 q 858 148 837 199 q 922 98 878 98 q 989 148 968 98 q 1011 298 1011 197 q 989 448 1011 398 q 922 498 968 498 z "},"&":{"ha":1027,"x_min":66,"x_max":1023,"o":"m 427 1006 q 561 981 503 1006 q 652 908 619 956 q 684 792 684 861 q 627 637 684 701 q 484 525 570 574 l 718 297 q 772 397 751 342 q 810 512 794 452 l 975 512 q 916 346 954 428 q 822 197 879 264 l 1023 0 l 819 0 l 719 98 q 629 39 677 64 q 525 0 581 14 q 401 -14 469 -14 q 222 20 297 -14 q 106 115 146 53 q 66 262 66 177 q 90 385 66 334 q 159 475 114 436 q 266 549 203 514 q 207 625 232 588 q 169 700 182 661 q 155 784 155 739 q 189 903 155 853 q 284 980 223 953 q 427 1006 345 1006 m 360 452 q 292 402 321 427 q 249 346 264 376 q 233 275 233 315 q 282 164 233 205 q 410 123 332 123 q 530 144 478 123 q 621 196 582 165 l 360 452 m 424 880 q 341 855 376 880 q 306 777 306 830 q 329 697 306 734 q 392 616 351 659 q 498 693 463 655 q 533 781 533 731 q 501 854 533 829 q 424 880 469 880 z "},"'":{"ha":337,"x_min":91,"x_max":247,"o":"m 247 991 l 220 633 l 117 633 l 91 991 l 247 991 z "},"(":{"ha":440,"x_min":56,"x_max":399,"o":"m 56 380 q 78 603 56 494 q 145 810 100 711 q 260 991 191 908 l 399 991 q 253 705 302 862 q 203 382 203 547 q 225 168 203 274 q 290 -36 247 62 q 397 -220 334 -134 l 260 -220 q 145 -42 191 -138 q 78 161 100 54 q 56 380 56 269 z "},")":{"ha":440,"x_min":42,"x_max":385,"o":"m 385 381 q 363 161 385 269 q 296 -42 341 54 q 180 -220 251 -138 l 43 -220 q 151 -35 107 -134 q 216 169 194 63 q 237 382 237 275 q 215 600 237 492 q 150 806 193 707 q 42 991 106 905 l 180 991 q 296 810 251 908 q 363 603 341 711 q 385 381 385 495 z "},"*":{"ha":761,"x_min":52,"x_max":708,"o":"m 454 1055 l 427 796 l 688 870 l 708 726 l 465 704 l 623 493 l 491 422 l 376 649 l 274 422 l 137 493 l 294 704 l 52 726 l 75 870 l 330 796 l 303 1055 l 454 1055 z "},"+":{"ha":794,"x_min":65,"x_max":728,"o":"m 456 550 l 728 550 l 728 429 l 456 429 l 456 155 l 336 155 l 336 429 l 65 429 l 65 550 l 336 550 l 336 827 l 456 827 l 456 550 z "},",":{"ha":378,"x_min":50,"x_max":284,"o":"m 275 161 l 284 146 q 253 41 272 97 q 212 -72 234 -16 q 166 -179 189 -129 l 50 -179 q 77 -64 64 -124 q 101 55 90 -4 q 119 161 113 113 l 275 161 z "},"-":{"ha":447,"x_min":49,"x_max":399,"o":"m 49 305 l 49 440 l 399 440 l 399 305 l 49 305 z "},".":{"ha":380,"x_min":91,"x_max":290,"o":"m 91 84 q 120 162 91 140 q 190 185 149 185 q 261 162 231 185 q 290 84 290 140 q 261 6 290 30 q 190 -18 231 -18 q 120 6 149 -18 q 91 84 91 30 z "},"/":{"ha":542,"x_min":12,"x_max":531,"o":"m 531 991 l 161 0 l 12 0 l 382 991 l 531 991 z "},":":{"ha":380,"x_min":91,"x_max":290,"o":"m 91 84 q 120 162 91 140 q 190 185 149 185 q 261 162 231 185 q 290 84 290 140 q 261 6 290 30 q 190 -18 231 -18 q 120 6 149 -18 q 91 84 91 30 m 91 665 q 120 744 91 721 q 190 767 149 767 q 261 744 231 767 q 290 665 290 721 q 261 587 290 611 q 190 563 231 563 q 120 587 149 563 q 91 665 91 611 z "},";":{"ha":380,"x_min":43,"x_max":289,"o":"m 269 161 l 279 146 q 247 41 267 97 q 205 -72 228 -16 q 161 -179 183 -129 l 43 -179 q 71 -64 58 -125 q 96 55 84 -4 q 114 161 107 113 l 269 161 m 90 665 q 118 744 90 721 q 189 767 147 767 q 260 744 231 767 q 289 665 289 721 q 260 587 289 611 q 189 563 231 563 q 118 587 147 563 q 90 665 90 611 z "},"<":{"ha":794,"x_min":65,"x_max":728,"o":"m 728 151 l 65 444 l 65 525 l 728 854 l 728 723 l 231 490 l 728 282 l 728 151 z "},"=":{"ha":794,"x_min":69,"x_max":724,"o":"m 69 565 l 69 684 l 724 684 l 724 565 l 69 565 m 69 294 l 69 414 l 724 414 l 724 294 l 69 294 z "},">":{"ha":794,"x_min":65,"x_max":728,"o":"m 65 282 l 562 490 l 65 723 l 65 854 l 728 525 l 728 444 l 65 151 l 65 282 z "},"?":{"ha":631,"x_min":13,"x_max":595,"o":"m 191 302 l 191 345 q 203 433 191 395 q 241 503 214 470 q 315 572 269 536 q 390 636 362 609 q 431 691 418 663 q 444 755 444 718 q 405 843 444 812 q 295 873 366 873 q 178 855 233 873 q 69 811 123 838 l 13 930 q 147 985 75 964 q 306 1006 219 1006 q 520 939 444 1006 q 595 762 595 871 q 576 658 595 701 q 520 579 557 615 q 431 503 484 543 q 366 444 389 469 q 335 394 343 419 q 326 334 326 369 l 326 302 l 191 302 m 165 84 q 194 162 165 140 q 265 185 223 185 q 335 162 306 185 q 364 84 364 140 q 335 6 364 30 q 265 -18 306 -18 q 194 6 223 -18 q 165 84 165 30 z "},"@":{"ha":1246,"x_min":75,"x_max":1171,"o":"m 1171 496 q 1156 370 1171 432 q 1111 258 1141 308 q 1035 178 1080 208 q 926 149 989 149 q 831 179 869 149 q 782 254 793 210 l 773 254 q 698 179 746 210 q 581 149 650 149 q 404 221 466 149 q 342 412 342 293 q 380 575 342 504 q 488 686 418 646 q 653 727 558 727 q 780 716 716 727 q 880 692 843 705 l 866 413 q 864 379 865 393 q 864 360 864 366 q 885 272 864 294 q 935 250 906 250 q 999 284 972 250 q 1038 373 1025 317 q 1052 497 1052 429 q 1002 707 1052 620 q 865 839 952 793 q 667 884 779 884 q 466 848 553 884 q 318 747 378 812 q 227 593 258 682 q 197 397 197 504 q 243 173 197 265 q 381 34 290 81 q 604 -14 473 -14 q 768 4 686 -14 q 916 47 850 22 l 916 -62 q 775 -104 853 -88 q 607 -121 697 -121 q 320 -60 439 -121 q 138 117 201 1 q 75 393 75 232 q 116 630 75 522 q 234 820 157 739 q 421 946 311 901 q 667 991 530 991 q 928 931 814 991 q 1106 760 1042 871 q 1171 496 1171 650 m 471 409 q 505 288 471 326 q 597 250 538 250 q 704 305 671 250 q 742 450 736 360 l 750 613 q 709 621 732 618 q 658 624 685 624 q 549 593 590 624 q 489 513 508 562 q 471 409 471 464 z "},"A":{"ha":918,"x_min":0,"x_max":918,"o":"m 745 0 l 648 275 l 269 275 l 172 0 l 0 0 l 369 996 l 549 996 l 918 0 l 745 0 m 606 415 l 511 686 q 496 736 506 704 q 475 802 486 768 q 458 859 465 836 q 442 797 452 831 q 423 732 432 762 q 409 686 414 703 l 314 415 l 606 415 z "},"B":{"ha":916,"x_min":130,"x_max":841,"o":"m 130 991 l 425 991 q 715 936 617 991 q 812 744 812 880 q 792 641 812 687 q 734 566 772 595 q 641 526 696 536 l 641 519 q 744 484 699 509 q 815 410 789 458 q 841 285 841 361 q 798 130 841 194 q 675 33 755 66 q 486 0 595 0 l 130 0 l 130 991 m 293 583 l 449 583 q 602 618 559 583 q 645 724 645 654 q 594 825 645 794 q 434 857 544 857 l 293 857 l 293 583 m 293 451 l 293 136 l 465 136 q 625 180 578 136 q 671 300 671 224 q 650 380 671 346 q 583 432 629 414 q 456 451 536 451 l 293 451 z "},"C":{"ha":880,"x_min":83,"x_max":834,"o":"m 553 867 q 426 842 481 867 q 331 767 370 816 q 272 650 292 719 q 252 495 252 581 q 284 297 252 380 q 383 169 317 214 q 551 125 450 125 q 674 137 614 125 q 798 170 734 149 l 798 32 q 675 -3 737 8 q 533 -14 614 -14 q 281 50 381 -14 q 132 227 181 113 q 83 496 83 342 q 114 702 83 608 q 205 864 145 795 q 352 969 264 932 q 553 1006 440 1006 q 700 989 628 1006 q 834 942 772 972 l 777 808 q 669 850 726 832 q 553 867 613 867 z "},"D":{"ha":1018,"x_min":130,"x_max":935,"o":"m 935 505 q 873 225 935 338 q 692 57 810 113 q 406 0 573 0 l 130 0 l 130 991 l 435 991 q 701 936 589 991 q 874 773 813 881 q 935 505 935 665 m 766 500 q 727 701 766 623 q 615 818 689 780 q 432 857 541 857 l 293 857 l 293 136 l 408 136 q 677 228 588 136 q 766 500 766 319 z "},"E":{"ha":775,"x_min":130,"x_max":692,"o":"m 692 0 l 130 0 l 130 991 l 692 991 l 692 854 l 293 854 l 293 585 l 667 585 l 667 449 l 293 449 l 293 138 l 692 138 l 692 0 z "},"F":{"ha":740,"x_min":130,"x_max":690,"o":"m 292 0 l 130 0 l 130 991 l 690 991 l 690 854 l 292 854 l 292 545 l 665 545 l 665 409 l 292 409 l 292 0 z "},"G":{"ha":1008,"x_min":83,"x_max":901,"o":"m 530 538 l 901 538 l 901 41 q 739 1 823 15 q 552 -14 656 -14 q 296 46 401 -14 q 137 221 191 106 q 83 496 83 335 q 143 766 83 652 q 319 943 203 880 q 598 1006 434 1006 q 754 990 679 1006 q 893 946 830 974 l 836 812 q 724 852 786 836 q 594 868 661 868 q 411 822 488 868 q 292 692 334 776 q 251 494 251 608 q 284 300 251 384 q 388 171 317 217 q 572 124 459 124 q 667 130 628 124 q 740 144 707 136 l 740 399 l 530 399 l 530 538 z "},"H":{"ha":1044,"x_min":130,"x_max":912,"o":"m 912 0 l 750 0 l 750 448 l 293 448 l 293 0 l 130 0 l 130 991 l 293 991 l 293 586 l 750 586 l 750 991 l 912 991 l 912 0 z "},"I":{"ha":424,"x_min":130,"x_max":293,"o":"m 130 0 l 130 991 l 293 991 l 293 0 l 130 0 z "},"J":{"ha":416,"x_min":-107,"x_max":290,"o":"m 7 -276 q -59 -272 -31 -276 q -107 -260 -87 -267 l -107 -123 q -60 -133 -85 -129 q -7 -137 -35 -137 q 61 -123 31 -137 q 110 -71 92 -109 q 127 34 127 -34 l 127 991 l 290 991 l 290 39 q 255 -141 290 -71 q 156 -243 220 -210 q 7 -276 92 -276 z "},"K":{"ha":886,"x_min":130,"x_max":886,"o":"m 886 0 l 699 0 l 391 450 l 293 371 l 293 0 l 130 0 l 130 991 l 293 991 l 293 517 q 353 591 323 554 q 414 664 384 627 l 694 991 l 878 991 l 507 557 l 886 0 z "},"L":{"ha":755,"x_min":130,"x_max":714,"o":"m 130 0 l 130 991 l 293 991 l 293 138 l 714 138 l 714 0 l 130 0 z "},"M":{"ha":1280,"x_min":130,"x_max":1149,"o":"m 558 0 l 273 828 l 267 828 q 271 752 269 800 q 276 649 274 704 q 278 544 278 594 l 278 0 l 130 0 l 130 991 l 359 991 l 633 200 l 637 200 l 922 991 l 1149 991 l 1149 0 l 994 0 l 994 552 q 996 650 994 597 q 1000 751 998 703 q 1004 827 1002 798 l 998 827 l 702 0 l 558 0 z "},"N":{"ha":1088,"x_min":130,"x_max":958,"o":"m 958 0 l 758 0 l 272 791 l 266 791 q 271 707 269 751 q 275 614 273 662 q 278 518 277 567 l 278 0 l 130 0 l 130 991 l 329 991 l 814 205 l 819 205 q 815 285 817 240 q 811 377 813 330 q 809 470 810 425 l 809 991 l 958 991 l 958 0 z "},"O":{"ha":1093,"x_min":83,"x_max":1010,"o":"m 1010 497 q 982 289 1010 382 q 895 127 953 195 q 751 23 838 60 q 547 -14 664 -14 q 341 23 429 -14 q 197 127 254 60 q 111 290 140 195 q 83 498 83 384 q 133 766 83 652 q 287 944 184 880 q 549 1007 391 1007 q 806 944 703 1007 q 959 767 908 881 q 1010 497 1010 652 m 254 497 q 285 299 254 382 q 381 170 316 215 q 547 125 446 125 q 714 170 650 125 q 809 299 779 215 q 840 497 840 382 q 770 770 840 671 q 549 869 701 869 q 381 824 447 869 q 285 696 316 779 q 254 497 254 613 z "},"P":{"ha":854,"x_min":130,"x_max":787,"o":"m 418 991 q 699 913 610 991 q 787 692 787 834 q 767 570 787 628 q 701 468 747 512 q 582 397 656 423 q 399 372 507 372 l 293 372 l 293 0 l 130 0 l 130 991 l 418 991 m 408 857 l 293 857 l 293 507 l 382 507 q 512 525 458 507 q 593 583 566 543 q 621 686 621 622 q 569 814 621 772 q 408 857 517 857 z "},"Q":{"ha":1093,"x_min":83,"x_max":1010,"o":"m 1010 497 q 981 286 1010 381 q 891 122 951 190 q 741 20 831 54 l 977 -236 l 760 -236 l 573 -13 q 560 -13 566 -13 q 547 -14 553 -14 q 341 23 429 -14 q 197 127 254 60 q 111 290 140 195 q 83 498 83 384 q 133 766 83 652 q 287 944 184 880 q 549 1007 391 1007 q 806 944 703 1007 q 959 767 908 881 q 1010 497 1010 652 m 254 497 q 285 299 254 382 q 381 170 316 215 q 547 125 446 125 q 714 170 650 125 q 809 299 779 215 q 840 497 840 382 q 770 770 840 671 q 549 869 701 869 q 381 824 447 869 q 285 696 316 779 q 254 497 254 613 z "},"R":{"ha":887,"x_min":130,"x_max":876,"o":"m 409 991 q 621 960 537 991 q 746 865 705 929 q 787 703 787 802 q 760 578 787 630 q 688 493 732 527 q 594 439 644 459 l 876 0 l 692 0 l 452 397 l 293 397 l 293 0 l 130 0 l 130 991 l 409 991 m 398 856 l 293 856 l 293 532 l 406 532 q 570 574 519 532 q 621 698 621 616 q 567 820 621 784 q 398 856 512 856 z "},"S":{"ha":764,"x_min":68,"x_max":703,"o":"m 703 270 q 660 118 703 182 q 536 20 616 54 q 345 -14 456 -14 q 241 -7 290 -14 q 148 11 191 -1 q 68 39 104 22 l 68 193 q 203 145 128 166 q 355 123 277 123 q 459 140 418 123 q 522 188 501 157 q 542 260 542 218 q 518 334 542 304 q 447 390 494 365 q 327 445 399 416 q 234 490 278 465 q 155 549 189 515 q 100 629 120 583 q 80 739 80 675 q 120 882 80 823 q 234 974 161 942 q 406 1006 308 1006 q 553 989 484 1006 q 688 943 622 973 l 637 812 q 518 852 576 838 q 401 867 461 867 q 314 852 350 867 q 259 808 278 836 q 241 741 241 780 q 262 668 241 698 q 329 614 283 639 q 445 560 374 590 q 584 489 527 526 q 672 400 642 452 q 703 270 703 348 z "},"T":{"ha":785,"x_min":20,"x_max":764,"o":"m 474 0 l 311 0 l 311 853 l 20 853 l 20 991 l 764 991 l 764 853 l 474 853 l 474 0 z "},"U":{"ha":1031,"x_min":122,"x_max":909,"o":"m 909 991 l 909 350 q 865 164 909 246 q 733 34 821 82 q 511 -14 645 -14 q 221 86 321 -14 q 122 353 122 186 l 122 991 l 285 991 l 285 367 q 343 184 285 243 q 517 125 401 125 q 648 153 597 125 q 723 236 699 181 q 747 368 747 290 l 747 991 l 909 991 z "},"V":{"ha":865,"x_min":0,"x_max":865,"o":"m 865 991 l 519 0 l 347 0 l 0 991 l 167 991 l 376 370 q 396 304 385 343 q 417 227 408 266 q 433 157 427 187 q 448 227 438 187 q 469 304 458 266 q 489 371 479 343 l 699 991 l 865 991 z "},"W":{"ha":1313,"x_min":10,"x_max":1303,"o":"m 1303 991 l 1044 0 l 866 0 l 701 594 q 687 646 694 616 q 672 707 680 675 q 660 764 665 738 q 653 804 655 790 q 647 764 652 790 q 636 708 642 739 q 622 647 629 677 q 608 593 614 616 l 446 0 l 269 0 l 10 991 l 174 991 l 317 410 q 331 350 323 382 q 344 286 338 318 q 356 222 351 253 q 365 166 361 191 q 374 223 368 192 q 386 288 379 255 q 399 351 392 321 q 414 406 406 382 l 575 991 l 734 991 l 899 404 q 913 348 906 379 q 927 284 920 317 q 939 221 934 252 q 948 166 945 191 q 960 242 953 199 q 977 329 968 285 q 996 410 987 373 l 1139 991 l 1303 991 z "},"X":{"ha":865,"x_min":2,"x_max":862,"o":"m 862 0 l 677 0 l 427 406 l 176 0 l 2 0 l 332 514 l 24 991 l 204 991 l 435 616 l 664 991 l 838 991 l 530 509 l 862 0 z "},"Y":{"ha":822,"x_min":0,"x_max":822,"o":"m 411 539 l 646 991 l 822 991 l 492 385 l 492 0 l 330 0 l 330 379 l 0 991 l 177 991 l 411 539 z "},"Z":{"ha":800,"x_min":43,"x_max":756,"o":"m 756 0 l 43 0 l 43 112 l 548 853 l 59 853 l 59 991 l 743 991 l 743 880 l 238 138 l 756 138 l 756 0 z "},"[":{"ha":457,"x_min":105,"x_max":422,"o":"m 422 -220 l 105 -220 l 105 991 l 422 991 l 422 874 l 248 874 l 248 -101 l 422 -101 l 422 -220 z "},"\\":{"ha":542,"x_min":12,"x_max":531,"o":"m 161 991 l 531 0 l 381 0 l 12 991 l 161 991 z "},"]":{"ha":457,"x_min":35,"x_max":353,"o":"m 35 -101 l 209 -101 l 209 874 l 35 874 l 35 991 l 353 991 l 353 -220 l 35 -220 l 35 -101 z "},"^":{"ha":794,"x_min":43,"x_max":751,"o":"m 43 363 l 340 998 l 422 998 l 751 363 l 620 363 l 384 833 l 174 363 l 43 363 z "},"_":{"ha":590,"x_min":-3,"x_max":593,"o":"m 593 -214 l -3 -214 l -3 -125 l 593 -125 l 593 -214 z "},"`":{"ha":444,"x_min":56,"x_max":389,"o":"m 239 1064 q 283 995 257 1033 q 338 921 310 957 q 389 859 367 885 l 389 842 l 282 842 q 224 888 256 861 q 160 946 193 916 q 99 1003 127 976 q 56 1050 72 1031 l 56 1064 l 239 1064 z "},"a":{"ha":806,"x_min":61,"x_max":696,"o":"m 408 765 q 624 702 551 765 q 696 505 696 639 l 696 0 l 583 0 l 553 106 l 547 106 q 481 39 515 66 q 403 0 448 13 q 295 -14 359 -14 q 175 11 228 -14 q 92 87 122 36 q 61 216 61 138 q 148 390 61 332 q 409 454 234 448 l 539 459 l 539 498 q 503 610 539 576 q 401 643 467 643 q 292 627 345 643 q 189 587 239 610 l 137 699 q 262 747 192 728 q 408 765 332 765 m 538 359 l 441 355 q 274 315 322 351 q 226 214 226 278 q 259 133 226 159 q 347 108 292 108 q 484 155 429 108 q 538 294 538 202 l 538 359 z "},"b":{"ha":865,"x_min":114,"x_max":795,"o":"m 273 1055 l 273 801 q 271 714 273 757 q 267 648 269 672 l 273 648 q 358 731 304 697 q 498 764 413 764 q 713 666 632 764 q 795 376 795 568 q 758 162 795 249 q 653 31 720 75 q 494 -14 585 -14 q 356 18 409 -14 q 274 92 304 50 l 262 92 l 233 0 l 114 0 l 114 1055 l 273 1055 m 456 635 q 349 608 389 635 q 292 527 309 581 q 273 390 274 473 l 273 376 q 313 184 273 250 q 458 117 353 117 q 586 185 541 117 q 631 378 631 252 q 586 570 631 506 q 456 635 542 635 z "},"c":{"ha":690,"x_min":70,"x_max":646,"o":"m 416 -14 q 232 28 310 -14 q 112 155 154 69 q 70 372 70 240 q 116 595 70 509 q 244 724 162 682 q 431 765 326 765 q 553 752 498 765 q 646 720 608 739 l 598 592 q 513 621 557 609 q 430 632 470 632 q 320 603 364 632 q 255 516 277 574 q 234 373 234 458 q 256 234 234 290 q 320 148 277 177 q 425 119 363 119 q 536 134 487 119 q 628 173 585 149 l 628 35 q 536 -2 585 10 q 416 -14 488 -14 z "},"d":{"ha":865,"x_min":70,"x_max":751,"o":"m 366 -14 q 151 84 232 -14 q 70 374 70 182 q 152 666 70 567 q 370 765 235 765 q 469 750 427 765 q 543 709 512 734 q 595 651 574 683 l 603 651 q 595 712 600 672 q 591 785 591 751 l 591 1055 l 751 1055 l 751 0 l 626 0 l 597 102 l 591 102 q 539 44 570 70 q 466 2 509 18 q 366 -14 424 -14 m 411 116 q 555 175 513 116 q 599 352 597 234 l 599 373 q 558 567 599 499 q 410 634 517 634 q 278 565 323 634 q 233 371 233 495 q 278 181 233 247 q 411 116 323 116 z "},"e":{"ha":800,"x_min":70,"x_max":734,"o":"m 413 765 q 585 724 513 765 q 696 606 657 682 q 734 425 734 530 l 734 339 l 233 339 q 292 171 236 230 q 449 112 348 112 q 578 126 521 112 q 696 167 635 140 l 696 37 q 582 -1 640 11 q 442 -14 524 -14 q 248 30 332 -14 q 117 158 164 73 q 70 370 70 243 q 113 585 70 496 q 233 719 155 673 q 413 765 310 765 m 413 645 q 291 596 338 645 q 237 453 245 547 l 578 453 q 560 553 578 509 q 506 621 542 596 q 413 645 469 645 z "},"f":{"ha":503,"x_min":24,"x_max":566,"o":"m 489 629 l 307 629 l 307 0 l 147 0 l 147 629 l 24 629 l 24 706 l 147 753 l 147 805 q 177 957 147 901 q 264 1038 208 1013 q 399 1063 321 1063 q 494 1054 451 1063 q 566 1035 536 1046 l 524 914 q 473 928 501 922 q 412 935 444 935 q 332 901 357 935 q 307 802 307 867 l 307 751 l 489 751 l 489 629 z "},"g":{"ha":770,"x_min":13,"x_max":747,"o":"m 328 -334 q 94 -279 176 -334 q 13 -125 13 -224 q 56 -8 13 -56 q 180 58 100 40 q 128 101 150 72 q 106 165 106 130 q 130 237 106 207 q 201 294 153 267 q 106 376 142 319 q 71 509 71 433 q 105 648 71 591 q 206 735 140 705 q 367 766 273 766 q 411 763 387 766 q 456 758 435 761 q 488 751 477 755 l 747 751 l 747 663 l 620 639 q 649 580 638 613 q 660 509 660 547 q 579 325 660 392 q 358 258 499 258 q 292 264 324 260 q 255 231 268 249 q 242 191 242 213 q 255 161 242 172 q 293 144 268 150 q 355 139 319 139 l 485 139 q 673 87 608 139 q 739 -66 739 35 q 633 -264 739 -195 q 328 -334 527 -334 m 334 -222 q 475 -205 418 -222 q 561 -159 532 -189 q 590 -87 590 -129 q 572 -31 590 -51 q 517 -4 553 -12 q 426 3 480 3 l 308 3 q 230 -11 264 3 q 177 -51 196 -24 q 159 -115 159 -77 q 204 -194 159 -166 q 334 -222 250 -222 m 366 363 q 469 401 435 363 q 503 509 503 439 q 468 623 503 585 q 365 661 433 661 q 263 623 298 661 q 228 508 228 584 q 263 401 228 439 q 366 363 298 363 z "},"h":{"ha":882,"x_min":114,"x_max":774,"o":"m 273 1055 l 273 790 q 271 709 273 749 q 266 648 269 670 l 275 648 q 333 713 298 688 q 411 751 368 739 q 503 764 454 764 q 649 735 589 764 q 742 646 709 707 q 774 490 774 586 l 774 0 l 614 0 l 614 460 q 578 591 614 547 q 467 635 543 635 q 352 605 395 635 q 292 516 310 574 q 273 373 273 457 l 273 0 l 114 0 l 114 1055 l 273 1055 z "},"i":{"ha":387,"x_min":104,"x_max":285,"o":"m 273 751 l 273 0 l 114 0 l 114 751 l 273 751 m 195 1038 q 258 1019 231 1038 q 285 951 285 999 q 258 883 285 903 q 195 863 231 863 q 131 883 157 863 q 104 951 104 903 q 131 1019 104 999 q 195 1038 157 1038 z "},"j":{"ha":387,"x_min":-82,"x_max":285,"o":"m 39 -334 q -28 -329 3 -334 q -82 -317 -60 -323 l -82 -189 q -37 -199 -59 -196 q 12 -203 -16 -203 q 85 -178 56 -203 q 114 -85 114 -154 l 114 751 l 273 751 l 273 -100 q 249 -221 273 -168 q 173 -304 225 -274 q 39 -334 121 -334 m 104 951 q 131 1019 104 999 q 195 1038 157 1038 q 258 1019 231 1038 q 285 951 285 999 q 258 883 285 903 q 195 863 231 863 q 131 883 157 863 q 104 951 104 903 z "},"k":{"ha":795,"x_min":114,"x_max":790,"o":"m 273 1055 l 273 545 q 271 470 273 511 q 265 393 268 429 l 269 393 q 311 448 286 416 q 358 504 336 480 l 587 751 l 770 751 l 470 428 l 790 0 l 603 0 l 363 330 l 273 253 l 273 0 l 114 0 l 114 1055 l 273 1055 z "},"l":{"ha":387,"x_min":114,"x_max":274,"o":"m 274 0 l 114 0 l 114 1055 l 274 1055 l 274 0 z "},"m":{"ha":1325,"x_min":114,"x_max":1217,"o":"m 962 765 q 1153 700 1088 765 q 1217 491 1217 635 l 1217 0 l 1057 0 l 1057 463 q 1024 591 1057 548 q 923 635 991 635 q 786 574 828 635 q 745 398 745 513 l 745 0 l 585 0 l 585 463 q 571 558 585 519 q 526 615 556 596 q 451 635 496 635 q 346 605 385 635 q 290 517 307 575 q 273 375 273 459 l 273 0 l 114 0 l 114 751 l 238 751 l 260 650 l 269 650 q 327 714 292 689 q 403 752 361 740 q 490 765 445 765 q 632 735 574 765 q 718 646 690 706 l 730 646 q 829 736 766 707 q 962 765 892 765 z "},"n":{"ha":882,"x_min":114,"x_max":774,"o":"m 505 765 q 703 700 632 765 q 774 490 774 634 l 774 0 l 614 0 l 614 460 q 578 591 614 547 q 467 635 543 635 q 316 568 358 635 q 273 373 273 500 l 273 0 l 114 0 l 114 751 l 238 751 l 260 649 l 269 649 q 330 714 294 688 q 411 752 366 739 q 505 765 456 765 z "},"o":{"ha":848,"x_min":70,"x_max":779,"o":"m 779 377 q 754 211 779 283 q 683 89 730 138 q 570 13 636 39 q 422 -14 505 -14 q 280 13 345 -14 q 169 89 216 39 q 96 211 121 138 q 70 377 70 283 q 113 588 70 501 q 236 720 156 674 q 427 765 316 765 q 610 720 530 765 q 734 587 689 674 q 779 377 779 500 m 234 377 q 254 237 234 295 q 316 148 274 178 q 425 117 358 117 q 533 148 491 117 q 595 237 575 178 q 614 377 614 295 q 595 516 614 459 q 533 604 575 574 q 424 634 491 634 q 279 568 325 634 q 234 377 234 501 z "},"p":{"ha":865,"x_min":114,"x_max":795,"o":"m 499 765 q 714 667 633 765 q 795 377 795 570 q 757 162 795 250 q 652 31 720 75 q 495 -14 585 -14 q 396 1 438 -14 q 324 40 354 16 q 274 93 294 64 l 264 93 q 271 33 268 66 q 274 -27 274 0 l 274 -333 l 114 -333 l 114 751 l 244 751 l 267 647 l 274 647 q 325 706 295 679 q 398 749 355 733 q 499 765 441 765 m 456 635 q 351 609 391 635 q 293 530 311 583 q 274 399 275 478 l 274 377 q 291 236 274 294 q 349 148 309 178 q 458 117 389 117 q 555 149 517 117 q 612 240 593 181 q 631 379 631 299 q 588 568 631 500 q 456 635 545 635 z "},"q":{"ha":865,"x_min":70,"x_max":751,"o":"m 591 -333 l 591 -14 q 592 45 591 13 q 598 103 594 77 l 590 103 q 505 20 559 54 q 363 -14 451 -14 q 151 84 231 -14 q 70 374 70 182 q 107 589 70 502 q 212 720 144 675 q 369 765 279 765 q 509 731 455 765 q 595 649 563 698 l 601 649 l 618 751 l 751 751 l 751 -333 l 591 -333 m 411 115 q 519 140 479 115 q 578 219 560 166 q 598 349 597 271 l 598 374 q 557 568 598 501 q 410 634 515 634 q 277 565 320 634 q 233 372 233 495 q 277 181 233 247 q 411 115 321 115 z "},"r":{"ha":600,"x_min":114,"x_max":574,"o":"m 494 765 q 536 763 513 765 q 574 758 558 761 l 559 608 q 525 614 545 612 q 488 616 504 616 q 406 603 445 616 q 338 561 368 589 q 291 490 308 532 q 274 393 274 448 l 274 0 l 114 0 l 114 751 l 239 751 l 260 618 l 268 618 q 323 692 290 659 q 400 745 357 725 q 494 765 443 765 z "},"s":{"ha":676,"x_min":67,"x_max":618,"o":"m 618 214 q 583 90 618 140 q 478 13 547 39 q 309 -14 409 -14 q 174 -2 231 -14 q 67 32 117 9 l 67 170 q 188 126 121 144 q 314 108 254 108 q 427 133 393 108 q 462 199 462 157 q 448 242 462 223 q 396 282 434 262 q 286 332 359 303 q 166 389 215 361 q 92 458 117 418 q 67 562 67 498 q 146 713 67 661 q 355 765 225 765 q 486 751 425 765 q 606 711 547 737 l 556 591 q 454 628 505 613 q 350 642 403 642 q 256 623 288 642 q 224 569 224 604 q 239 524 224 543 q 293 488 255 506 q 400 442 332 469 q 516 388 467 416 q 592 319 566 360 q 618 214 618 279 z "},"t":{"ha":549,"x_min":27,"x_max":511,"o":"m 393 115 q 455 121 425 115 q 511 135 486 127 l 511 14 q 442 -5 484 3 q 355 -14 400 -14 q 240 8 291 -14 q 159 81 189 29 q 130 226 130 134 l 130 629 l 27 629 l 27 701 l 137 757 l 189 918 l 290 918 l 290 751 l 505 751 l 505 629 l 290 629 l 290 228 q 318 143 290 171 q 393 115 347 115 z "},"u":{"ha":882,"x_min":108,"x_max":768,"o":"m 768 751 l 768 0 l 643 0 l 621 101 l 612 101 q 552 37 589 62 q 471 -1 515 12 q 376 -14 426 -14 q 232 15 292 -14 q 140 104 172 44 q 108 260 108 165 l 108 751 l 268 751 l 268 290 q 303 159 268 203 q 414 116 339 116 q 530 146 487 116 q 590 234 572 176 q 608 377 608 292 l 608 751 l 768 751 z "},"v":{"ha":742,"x_min":0,"x_max":742,"o":"m 286 0 l 0 751 l 169 751 l 323 310 q 351 219 338 268 q 368 137 363 170 l 373 137 q 391 220 378 172 q 419 310 405 269 l 574 751 l 742 751 l 456 0 l 286 0 z "},"w":{"ha":1133,"x_min":15,"x_max":1118,"o":"m 728 1 l 633 350 q 616 412 626 376 q 597 488 607 449 q 580 560 588 527 q 568 612 572 593 l 563 612 q 552 560 559 593 q 535 488 545 527 q 516 411 526 448 q 500 347 507 374 l 400 1 l 225 1 l 15 751 l 176 751 l 274 378 q 293 296 283 340 q 309 212 302 252 q 319 146 315 172 l 324 146 q 332 193 327 165 q 342 252 336 221 q 355 310 349 283 q 366 355 361 338 l 481 751 l 656 751 l 766 355 q 783 290 774 329 q 799 212 791 251 q 808 147 806 173 l 813 147 q 823 210 816 170 q 840 295 830 250 q 859 378 849 340 l 959 751 l 1118 751 l 906 1 l 728 1 z "},"x":{"ha":765,"x_min":17,"x_max":749,"o":"m 280 384 l 29 751 l 211 751 l 382 487 l 555 751 l 736 751 l 484 384 l 749 0 l 566 0 l 382 281 l 198 0 l 17 0 l 280 384 z "},"y":{"ha":743,"x_min":1,"x_max":743,"o":"m 1 751 l 174 751 l 328 322 q 347 265 338 293 q 362 210 355 237 q 372 155 368 182 l 376 155 q 396 234 383 191 q 424 322 408 278 l 572 751 l 743 751 l 421 -103 q 353 -228 393 -176 q 258 -307 313 -280 q 132 -334 203 -334 q 73 -330 98 -334 q 31 -322 48 -326 l 31 -195 q 66 -201 45 -198 q 111 -203 88 -203 q 185 -186 154 -203 q 238 -139 216 -170 q 274 -68 260 -108 l 300 2 l 1 751 z "},"z":{"ha":665,"x_min":46,"x_max":616,"o":"m 616 0 l 46 0 l 46 98 l 425 628 l 69 628 l 69 751 l 606 751 l 606 642 l 234 123 l 616 123 l 616 0 z "},"{":{"ha":534,"x_min":30,"x_max":484,"o":"m 484 -220 q 320 -197 382 -219 q 229 -131 258 -176 q 201 -16 201 -85 l 201 195 q 181 269 201 241 q 123 309 161 296 q 30 322 85 322 l 30 450 q 123 463 85 450 q 181 504 161 475 q 201 577 201 532 l 201 789 q 230 904 201 859 q 322 970 259 949 q 484 991 385 991 l 484 869 q 410 857 441 868 q 362 822 378 846 q 346 754 346 797 l 346 551 q 308 444 346 484 q 193 391 269 404 l 193 382 q 308 331 270 371 q 346 223 346 290 l 346 18 q 362 -50 346 -25 q 410 -85 378 -75 q 484 -96 441 -96 l 484 -220 z "},"|":{"ha":764,"x_min":321,"x_max":443,"o":"m 321 1054 l 443 1054 l 443 -326 l 321 -326 l 321 1054 z "},"}":{"ha":534,"x_min":51,"x_max":505,"o":"m 51 -220 l 51 -96 q 124 -84 94 -95 q 172 -49 155 -74 q 189 18 189 -24 l 189 222 q 227 330 189 290 q 341 382 266 370 l 341 390 q 227 443 265 403 q 189 550 189 483 l 189 755 q 172 822 189 798 q 125 858 156 847 q 51 869 94 869 l 51 991 q 214 970 152 991 q 305 903 277 948 q 334 789 334 859 l 334 578 q 353 504 334 532 q 411 463 373 475 q 505 450 449 450 l 505 322 q 411 309 449 322 q 353 269 373 296 q 334 195 334 241 l 334 -17 q 304 -131 334 -86 q 213 -198 275 -176 q 51 -220 151 -220 z "},"~":{"ha":794,"x_min":65,"x_max":728,"o":"m 374 432 q 290 462 325 454 q 224 471 256 471 q 142 447 185 471 q 65 389 100 423 l 65 517 q 141 572 99 554 q 235 591 184 591 q 317 582 277 591 q 420 547 357 574 q 504 517 470 526 q 569 509 538 509 q 651 533 609 509 q 728 591 694 556 l 728 463 q 652 408 694 427 q 558 389 610 389 q 477 397 517 389 q 374 432 437 406 z "}," ":{"ha":361,"x_min":0,"x_max":0,"o":""},"¡":{"ha":382,"x_min":91,"x_max":290,"o":"m 129 437 l 250 437 l 282 -252 l 96 -252 l 129 437 m 290 656 q 261 577 290 600 q 190 554 232 554 q 120 577 149 554 q 91 656 91 600 q 120 733 91 709 q 190 758 149 758 q 261 733 232 758 q 290 656 290 709 z "},"¢":{"ha":794,"x_min":111,"x_max":688,"o":"m 496 1006 l 496 897 q 603 881 555 894 q 688 852 652 869 l 642 725 q 555 753 598 742 q 471 764 511 764 q 361 735 405 764 q 296 649 318 707 q 275 504 275 591 q 297 362 275 418 q 362 279 319 307 q 467 252 405 252 q 576 264 530 252 q 671 298 623 277 l 671 162 q 589 131 631 142 q 495 118 547 120 l 495 -14 l 391 -14 l 391 122 q 241 178 304 135 q 145 302 178 222 q 111 503 111 382 q 146 711 111 630 q 244 836 181 792 q 391 891 307 879 l 391 1006 l 496 1006 z "},"£":{"ha":794,"x_min":51,"x_max":753,"o":"m 470 1005 q 609 989 545 1005 q 724 950 673 973 l 671 827 q 578 860 627 846 q 480 874 530 874 q 379 839 416 874 q 341 724 341 804 l 341 562 l 610 562 l 610 444 l 341 444 l 341 320 q 327 232 341 267 q 289 175 312 197 q 241 140 267 154 l 753 140 l 753 0 l 51 0 l 51 132 q 120 167 91 145 q 166 225 150 189 q 182 319 182 262 l 182 444 l 55 444 l 55 562 l 182 562 l 182 731 q 220 885 182 824 q 322 975 257 945 q 470 1005 387 1005 z "},"¤":{"ha":794,"x_min":79,"x_max":713,"o":"m 126 490 q 138 567 126 530 q 170 635 150 604 l 79 726 l 161 807 l 250 718 q 319 750 281 739 q 397 762 357 762 q 473 750 437 762 q 541 718 509 739 l 631 807 l 713 728 l 624 637 q 656 569 644 606 q 668 490 668 531 q 657 413 668 450 q 624 344 646 376 l 711 254 l 631 175 l 541 263 q 474 232 511 243 q 397 221 437 221 q 318 232 356 221 q 250 264 280 243 l 161 176 l 81 256 l 170 345 q 138 414 149 377 q 126 490 126 450 m 239 490 q 260 411 239 447 q 317 354 281 375 q 397 334 353 334 q 477 355 441 334 q 535 411 513 376 q 556 490 556 447 q 535 571 556 535 q 477 628 513 607 q 397 650 441 650 q 317 628 353 650 q 260 571 281 607 q 239 490 239 535 z "},"¥":{"ha":794,"x_min":13,"x_max":779,"o":"m 396 543 l 614 991 l 779 991 l 507 477 l 663 477 l 663 375 l 472 375 l 472 269 l 663 269 l 663 167 l 472 167 l 472 0 l 320 0 l 320 167 l 129 167 l 129 269 l 320 269 l 320 375 l 129 375 l 129 477 l 281 477 l 13 991 l 180 991 l 396 543 z "},"¦":{"ha":764,"x_min":321,"x_max":443,"o":"m 321 1054 l 443 1054 l 443 514 l 321 514 l 321 1054 m 321 214 l 443 214 l 443 -326 l 321 -326 l 321 214 z "},"§":{"ha":694,"x_min":77,"x_max":612,"o":"m 89 546 q 119 652 89 610 q 191 718 150 694 q 117 783 144 745 q 91 876 91 821 q 164 1012 91 961 q 363 1063 237 1063 q 493 1048 437 1063 q 604 1010 550 1034 l 559 903 q 465 938 513 923 q 358 954 416 954 q 257 935 288 954 q 227 878 227 916 q 243 834 227 853 q 295 796 259 814 q 391 755 332 778 q 509 699 459 730 q 585 627 558 668 q 612 530 612 587 q 585 418 612 461 q 517 351 557 375 q 587 288 563 324 q 612 199 612 252 q 532 46 612 102 q 313 -9 453 -9 q 180 3 238 -9 q 77 40 123 16 l 77 159 q 151 129 111 143 q 234 106 191 115 q 315 97 277 97 q 440 124 406 97 q 474 189 474 151 q 461 234 474 215 q 414 272 449 252 q 313 317 379 291 q 192 374 242 345 q 116 444 142 403 q 89 546 89 485 m 213 559 q 231 503 213 528 q 289 455 250 477 q 391 408 328 432 l 414 399 q 464 444 441 416 q 487 513 487 472 q 470 572 487 546 q 412 621 454 597 q 297 669 371 644 q 238 630 264 659 q 213 559 213 601 z "},"¨":{"ha":824,"x_min":200,"x_max":624,"o":"m 200 949 q 222 1009 200 990 q 277 1027 245 1027 q 333 1009 310 1027 q 357 949 357 990 q 333 890 357 910 q 277 871 310 871 q 222 890 245 871 q 200 949 200 910 m 467 949 q 489 1009 467 990 q 545 1027 512 1027 q 601 1009 577 1027 q 624 949 624 990 q 601 890 624 910 q 545 871 577 871 q 489 890 512 871 q 467 949 467 910 z "},"©":{"ha":1156,"x_min":68,"x_max":1088,"o":"m 578 -14 q 374 24 467 -14 q 212 131 281 62 q 105 293 143 199 q 68 496 68 386 q 106 697 68 604 q 214 859 144 790 q 376 967 283 928 q 578 1006 469 1006 q 777 968 684 1006 q 939 861 869 930 q 1048 699 1009 792 q 1088 496 1088 606 q 1050 293 1088 386 q 944 131 1013 199 q 782 24 875 62 q 578 -14 688 -14 m 600 182 q 390 268 460 182 q 321 496 321 354 q 354 658 321 587 q 450 769 387 728 q 605 809 513 809 q 693 798 648 809 q 776 768 737 787 l 736 682 q 670 709 703 699 q 606 718 637 718 q 476 659 522 718 q 429 496 429 600 q 471 331 429 389 q 604 273 512 273 q 677 282 637 273 q 751 305 716 291 l 751 216 q 683 191 718 201 q 600 182 648 182 m 578 66 q 743 97 666 66 q 878 187 819 129 q 969 323 936 245 q 1002 496 1002 402 q 970 663 1002 585 q 881 800 939 741 q 747 893 824 860 q 578 927 669 927 q 409 895 486 927 q 273 805 331 863 q 184 669 216 747 q 153 496 153 590 q 184 326 153 404 q 272 189 215 248 q 407 98 329 131 q 578 66 485 66 z "},"ª":{"ha":511,"x_min":39,"x_max":447,"o":"m 261 1003 q 401 959 355 1003 q 447 833 447 916 l 447 530 l 370 530 l 352 597 q 284 543 324 563 q 193 522 243 522 q 111 538 146 522 q 58 585 77 553 q 39 666 39 617 q 65 748 39 716 q 142 796 91 780 q 267 815 193 812 l 339 818 l 339 840 q 314 898 339 879 q 246 916 288 916 q 175 905 212 916 q 103 878 139 895 l 66 956 q 156 989 106 975 q 261 1003 205 1003 m 339 748 l 272 745 q 175 720 199 741 q 151 667 151 698 q 169 621 151 635 q 216 607 187 607 q 308 638 277 607 q 339 719 339 669 l 339 748 z "},"«":{"ha":772,"x_min":55,"x_max":718,"o":"m 55 383 l 296 676 l 410 612 l 218 375 l 410 137 l 296 73 l 55 365 l 55 383 m 361 383 l 604 676 l 718 612 l 526 375 l 718 137 l 604 73 l 361 365 l 361 383 z "},"¬":{"ha":794,"x_min":65,"x_max":726,"o":"m 726 550 l 726 174 l 606 174 l 606 429 l 65 429 l 65 550 l 726 550 z "},"­":{"ha":447,"x_min":49,"x_max":399,"o":"m 49 305 l 49 440 l 399 440 l 399 305 l 49 305 z "},"®":{"ha":1156,"x_min":68,"x_max":1088,"o":"m 385 193 l 385 802 l 566 802 q 731 756 678 802 q 784 620 784 709 q 751 516 784 554 q 675 461 718 478 l 836 193 l 717 193 l 581 430 l 491 430 l 491 193 l 385 193 m 491 516 l 563 516 q 648 544 618 516 q 677 617 677 572 q 650 690 677 668 q 562 713 623 713 l 491 713 l 491 516 m 578 -14 q 374 24 467 -14 q 212 131 281 62 q 105 293 143 199 q 68 496 68 386 q 106 697 68 604 q 214 859 144 790 q 376 967 283 928 q 578 1006 469 1006 q 777 968 684 1006 q 939 861 869 930 q 1048 699 1009 792 q 1088 496 1088 606 q 1050 293 1088 386 q 944 131 1013 199 q 782 24 875 62 q 578 -14 688 -14 m 578 66 q 743 97 666 66 q 878 187 819 129 q 969 323 936 245 q 1002 496 1002 402 q 970 663 1002 585 q 881 800 939 741 q 747 893 824 860 q 578 927 669 927 q 409 895 486 927 q 273 805 331 863 q 184 669 216 747 q 153 496 153 590 q 184 326 153 404 q 272 189 215 248 q 407 98 329 131 q 578 66 485 66 z "},"¯":{"ha":694,"x_min":-4,"x_max":699,"o":"m 699 1055 l -4 1055 l -4 1166 l 699 1166 l 699 1055 z "},"°":{"ha":595,"x_min":67,"x_max":528,"o":"m 297 560 q 177 588 229 560 q 96 667 125 616 q 67 783 67 717 q 96 898 67 848 q 177 977 125 949 q 297 1006 229 1006 q 417 977 366 1006 q 498 899 469 949 q 528 783 528 848 q 498 667 528 717 q 417 588 469 616 q 297 560 366 560 m 298 663 q 385 696 353 663 q 417 783 417 728 q 385 871 417 839 q 298 904 352 904 q 210 871 242 904 q 178 783 178 839 q 210 696 178 728 q 298 663 241 663 z "},"±":{"ha":794,"x_min":65,"x_max":728,"o":"m 65 0 l 65 120 l 728 120 l 728 0 l 65 0 m 456 572 l 728 572 l 728 452 l 456 452 l 456 178 l 336 178 l 336 452 l 65 452 l 65 572 l 336 572 l 336 849 l 456 849 l 456 572 z "},"²":{"ha":505,"x_min":36,"x_max":451,"o":"m 451 578 l 36 578 l 36 670 l 192 823 q 267 902 241 871 q 304 957 294 932 q 315 1010 315 982 q 293 1064 315 1045 q 236 1082 272 1082 q 170 1067 202 1082 q 102 1023 138 1053 l 37 1105 q 131 1163 79 1141 q 248 1185 182 1185 q 390 1142 337 1185 q 442 1019 442 1099 q 425 938 442 975 q 374 862 408 901 q 286 774 339 823 l 193 686 l 451 686 l 451 578 z "},"³":{"ha":505,"x_min":33,"x_max":457,"o":"m 243 1185 q 386 1142 334 1185 q 439 1031 439 1100 q 410 944 439 979 q 330 892 381 909 l 330 886 q 425 836 392 873 q 457 746 457 798 q 398 616 457 665 q 216 568 339 568 q 120 578 165 568 q 33 610 75 588 l 33 715 q 124 676 78 691 q 216 662 170 662 q 307 686 277 662 q 336 753 336 710 q 304 815 336 793 q 202 838 272 838 l 124 838 l 124 928 l 195 928 q 293 954 266 928 q 319 1016 319 979 q 296 1070 319 1050 q 235 1089 273 1089 q 164 1076 197 1089 q 93 1036 131 1062 l 35 1114 q 127 1165 77 1145 q 243 1185 176 1185 z "},"´":{"ha":444,"x_min":56,"x_max":389,"o":"m 389 1064 l 389 1050 q 345 1003 372 1031 q 284 946 317 976 q 220 888 252 916 q 162 842 188 861 l 56 842 l 56 859 q 105 921 78 885 q 160 995 133 957 q 205 1064 186 1033 l 389 1064 z "},"µ":{"ha":888,"x_min":114,"x_max":774,"o":"m 774 751 l 774 0 l 650 0 l 627 102 l 618 102 q 570 39 598 65 q 505 0 542 14 q 420 -14 468 -14 q 334 4 371 -14 q 272 51 296 21 l 267 51 q 271 9 269 36 q 273 -49 272 -18 q 273 -111 273 -81 l 273 -334 l 114 -334 l 114 751 l 273 751 l 273 290 q 310 160 273 203 q 422 116 347 116 q 537 146 495 116 q 597 235 579 176 q 614 377 614 293 l 614 751 l 774 751 z "},"¶":{"ha":909,"x_min":80,"x_max":774,"o":"m 774 -176 l 682 -176 l 682 951 l 553 951 l 553 -176 l 460 -176 l 460 385 q 414 376 439 379 q 361 373 389 373 q 213 406 276 373 q 115 512 149 438 q 80 711 80 586 q 118 916 80 841 q 223 1023 155 991 q 382 1055 292 1055 l 774 1055 l 774 -176 z "},"·":{"ha":380,"x_min":91,"x_max":290,"o":"m 91 487 q 120 565 91 543 q 190 588 149 588 q 261 565 231 588 q 290 487 290 543 q 261 409 290 433 q 190 385 231 385 q 120 409 149 385 q 91 487 91 433 z "},"¸":{"ha":296,"x_min":-3,"x_max":287,"o":"m 287 -182 q 239 -294 287 -254 q 82 -334 191 -334 q 35 -330 56 -334 q -3 -323 13 -327 l -3 -230 q 38 -237 14 -234 q 83 -241 62 -241 q 139 -229 118 -241 q 159 -187 159 -216 q 129 -138 159 -156 q 39 -112 98 -119 l 96 0 l 199 0 l 171 -58 q 228 -82 202 -66 q 271 -122 254 -98 q 287 -182 287 -147 z "},"¹":{"ha":505,"x_min":57,"x_max":361,"o":"m 361 1173 l 361 578 l 235 578 l 235 921 q 235 968 235 943 q 237 1017 236 994 q 240 1055 239 1040 q 212 1028 229 1044 q 180 1002 195 1013 l 117 955 l 57 1030 l 250 1173 l 361 1173 z "},"º":{"ha":529,"x_min":42,"x_max":488,"o":"m 488 764 q 427 586 488 649 q 263 522 366 522 q 104 585 166 522 q 42 764 42 648 q 102 941 42 879 q 266 1004 162 1004 q 381 976 332 1004 q 459 894 431 947 q 488 764 488 840 m 152 764 q 179 650 152 688 q 264 612 205 612 q 350 650 323 612 q 376 764 376 688 q 350 876 376 838 q 264 913 323 913 q 179 876 206 913 q 152 764 152 839 z "},"»":{"ha":772,"x_min":54,"x_max":718,"o":"m 718 366 l 475 73 l 361 137 l 552 375 l 361 612 l 475 676 l 718 383 l 718 366 m 410 366 l 168 73 l 54 137 l 245 375 l 54 612 l 168 676 l 410 383 l 410 366 z "},"¼":{"ha":1090,"x_min":38,"x_max":1078,"o":"m 197 0 l 770 991 l 901 991 l 328 0 l 197 0 m 216 397 l 216 741 q 216 787 216 762 q 218 836 217 812 q 220 875 219 860 q 193 848 210 863 q 160 821 176 833 l 97 774 l 38 850 l 231 991 l 342 991 l 342 397 l 216 397 m 863 0 l 863 121 l 597 121 l 597 206 l 865 599 l 992 599 l 992 216 l 1078 216 l 1078 121 l 992 121 l 992 0 l 863 0 m 705 216 l 863 216 l 863 342 q 864 406 863 372 q 867 474 865 441 q 841 422 860 456 q 808 368 823 389 l 705 216 z "},"½":{"ha":1141,"x_min":31,"x_max":1086,"o":"m 179 0 l 752 991 l 882 991 l 309 0 l 179 0 m 208 397 l 208 741 q 208 775 208 757 q 209 812 208 793 q 211 847 210 831 q 213 875 212 863 q 185 848 201 863 q 153 821 168 833 l 90 774 l 31 850 l 223 991 l 334 991 l 334 397 l 208 397 m 671 0 l 671 92 l 827 245 q 903 324 876 293 q 940 379 930 355 q 951 432 951 404 q 929 486 951 467 q 872 505 907 505 q 805 490 838 505 q 737 445 773 475 l 673 527 q 767 585 715 563 q 884 608 818 608 q 1025 564 972 608 q 1078 441 1078 521 q 1061 360 1078 397 q 1009 284 1044 323 q 921 196 975 245 l 828 109 l 1086 109 l 1086 0 l 671 0 z "},"¾":{"ha":1128,"x_min":42,"x_max":1115,"o":"m 254 0 l 827 991 l 956 991 l 384 0 l 254 0 m 224 387 q 130 397 174 387 q 42 429 85 408 l 42 535 q 133 496 87 510 q 224 481 179 481 q 316 505 286 481 q 345 572 345 529 q 313 635 345 612 q 212 658 281 658 l 133 658 l 133 748 l 204 748 q 302 773 275 748 q 328 836 328 798 q 306 889 328 870 q 243 909 283 909 q 173 895 205 909 q 102 856 140 882 l 45 934 q 136 985 87 965 q 252 1004 186 1004 q 395 962 342 1004 q 448 850 448 919 q 419 763 448 798 q 339 712 391 728 l 339 705 q 434 655 401 692 q 467 566 467 618 q 407 435 467 484 q 224 387 348 387 m 901 0 l 901 121 l 635 121 l 635 206 l 903 599 l 1029 599 l 1029 216 l 1115 216 l 1115 121 l 1029 121 l 1029 0 l 901 0 m 743 216 l 901 216 l 901 342 q 902 406 901 372 q 905 474 903 441 q 878 422 897 456 q 846 368 860 389 l 743 216 z "},"¿":{"ha":631,"x_min":37,"x_max":620,"o":"m 441 437 l 441 395 q 429 308 441 345 q 391 237 418 270 q 318 168 364 204 q 242 104 271 131 q 201 49 214 77 q 189 -16 189 22 q 228 -103 189 -73 q 337 -134 267 -134 q 455 -116 400 -134 q 563 -71 509 -98 l 620 -191 q 486 -245 558 -224 q 326 -267 414 -267 q 113 -199 189 -267 q 37 -22 37 -132 q 56 81 37 38 q 112 160 75 124 q 201 237 149 197 q 267 296 245 271 q 298 345 290 320 q 306 406 306 370 l 306 437 l 441 437 m 467 656 q 438 577 467 600 q 367 554 410 554 q 297 577 327 554 q 268 656 268 600 q 297 734 268 709 q 367 758 327 758 q 438 734 410 758 q 467 656 467 709 z "},"À":{"ha":918,"x_min":0,"x_max":918,"o":"m 745 0 l 648 275 l 269 275 l 172 0 l 0 0 l 369 996 l 549 996 l 918 0 l 745 0 m 606 415 l 511 686 q 496 736 506 704 q 475 802 486 768 q 458 859 465 836 q 442 797 452 831 q 423 732 432 762 q 409 686 414 703 l 314 415 l 606 415 m 418 1305 q 463 1236 437 1274 q 518 1162 490 1198 q 568 1101 547 1126 l 568 1083 l 462 1083 q 404 1129 436 1102 q 339 1187 372 1157 q 279 1245 307 1217 q 235 1292 252 1272 l 235 1305 l 418 1305 z "},"Á":{"ha":918,"x_min":0,"x_max":918,"o":"m 745 0 l 648 275 l 269 275 l 172 0 l 0 0 l 369 996 l 549 996 l 918 0 l 745 0 m 606 415 l 511 686 q 496 736 506 704 q 475 802 486 768 q 458 859 465 836 q 442 797 452 831 q 423 732 432 762 q 409 686 414 703 l 314 415 l 606 415 m 690 1305 l 690 1292 q 646 1245 673 1272 q 585 1187 618 1217 q 521 1129 553 1157 q 463 1083 489 1102 l 357 1083 l 357 1101 q 407 1162 379 1126 q 461 1236 434 1198 q 506 1305 488 1274 l 690 1305 z "},"Â":{"ha":918,"x_min":0,"x_max":918,"o":"m 745 0 l 648 275 l 269 275 l 172 0 l 0 0 l 369 996 l 549 996 l 918 0 l 745 0 m 606 415 l 511 686 q 496 736 506 704 q 475 802 486 768 q 458 859 465 836 q 442 797 452 831 q 423 732 432 762 q 409 686 414 703 l 314 415 l 606 415 m 549 1305 q 598 1236 568 1274 q 663 1162 629 1198 q 722 1100 696 1126 l 722 1083 l 614 1083 q 536 1138 577 1106 q 459 1208 495 1171 q 383 1139 422 1171 q 307 1083 343 1107 l 199 1083 l 199 1100 q 258 1162 225 1126 q 322 1236 292 1198 q 371 1305 353 1274 l 549 1305 z "},"Ã":{"ha":918,"x_min":0,"x_max":918,"o":"m 745 0 l 648 275 l 269 275 l 172 0 l 0 0 l 369 996 l 549 996 l 918 0 l 745 0 m 606 415 l 511 686 q 496 736 506 704 q 475 802 486 768 q 458 859 465 836 q 442 797 452 831 q 423 732 432 762 q 409 686 414 703 l 314 415 l 606 415 m 190 1084 q 208 1167 194 1131 q 243 1226 221 1202 q 294 1263 265 1251 q 357 1275 323 1275 q 414 1263 387 1275 q 468 1237 441 1252 q 518 1210 494 1221 q 566 1198 543 1198 q 611 1217 593 1198 q 640 1276 630 1236 l 723 1276 q 669 1134 715 1183 q 556 1084 624 1084 q 500 1096 528 1084 q 447 1123 473 1108 q 396 1149 421 1138 q 347 1161 371 1161 q 301 1142 320 1161 q 274 1084 283 1123 l 190 1084 z "},"Ä":{"ha":918,"x_min":0,"x_max":918,"o":"m 745 0 l 648 275 l 269 275 l 172 0 l 0 0 l 369 996 l 549 996 l 918 0 l 745 0 m 606 415 l 511 686 q 496 736 506 704 q 475 802 486 768 q 458 859 465 836 q 442 797 452 831 q 423 732 432 762 q 409 686 414 703 l 314 415 l 606 415 m 246 1191 q 269 1250 246 1232 q 323 1269 291 1269 q 379 1250 356 1269 q 403 1191 403 1232 q 379 1132 403 1152 q 323 1112 356 1112 q 269 1132 291 1112 q 246 1191 246 1152 m 513 1191 q 535 1250 513 1232 q 591 1269 558 1269 q 647 1250 623 1269 q 670 1191 670 1232 q 647 1132 670 1152 q 591 1112 623 1112 q 535 1132 558 1112 q 513 1191 513 1152 z "},"Å":{"ha":918,"x_min":0,"x_max":918,"o":"m 745 0 l 648 275 l 269 275 l 172 0 l 0 0 l 369 996 l 549 996 l 918 0 l 745 0 m 606 415 l 511 686 q 496 736 506 704 q 475 802 486 768 q 458 859 465 836 q 442 797 452 831 q 423 732 432 762 q 409 686 414 703 l 314 415 l 606 415 m 458 916 q 343 956 387 916 q 298 1069 298 997 q 342 1181 298 1141 q 458 1222 387 1222 q 573 1181 526 1222 q 620 1071 620 1141 q 573 957 620 998 q 458 916 527 916 m 458 996 q 510 1016 490 996 q 531 1069 531 1036 q 510 1122 531 1103 q 458 1142 489 1142 q 406 1122 427 1142 q 385 1069 385 1103 q 403 1016 385 1036 q 458 996 422 996 z "},"Æ":{"ha":1264,"x_min":-1,"x_max":1185,"o":"m 1185 0 l 630 0 l 630 275 l 292 275 l 166 0 l -1 0 l 454 991 l 1185 991 l 1185 854 l 793 854 l 793 585 l 1159 585 l 1159 449 l 793 449 l 793 138 l 1185 138 l 1185 0 m 353 415 l 630 415 l 630 850 l 548 850 l 353 415 z "},"Ç":{"ha":880,"x_min":83,"x_max":834,"o":"m 553 867 q 426 842 481 867 q 331 767 370 816 q 272 650 292 719 q 252 495 252 581 q 284 297 252 380 q 383 169 317 214 q 551 125 450 125 q 674 137 614 125 q 798 170 734 149 l 798 32 q 675 -3 737 8 q 533 -14 614 -14 q 281 50 381 -14 q 132 227 181 113 q 83 496 83 342 q 114 702 83 608 q 205 864 145 795 q 352 969 264 932 q 553 1006 440 1006 q 700 989 628 1006 q 834 942 772 972 l 777 808 q 669 850 726 832 q 553 867 613 867 m 664 -182 q 616 -294 664 -254 q 459 -334 568 -334 q 412 -330 433 -334 q 374 -323 390 -327 l 374 -230 q 415 -237 391 -234 q 460 -241 439 -241 q 516 -229 495 -241 q 536 -187 536 -216 q 506 -138 536 -156 q 416 -112 475 -119 l 473 0 l 576 0 l 548 -58 q 605 -82 579 -66 q 648 -122 631 -98 q 664 -182 664 -147 z "},"È":{"ha":775,"x_min":130,"x_max":692,"o":"m 692 0 l 130 0 l 130 991 l 692 991 l 692 854 l 293 854 l 293 585 l 667 585 l 667 449 l 293 449 l 293 138 l 692 138 l 692 0 m 381 1305 q 426 1236 399 1274 q 481 1162 452 1198 q 531 1101 509 1126 l 531 1083 l 425 1083 q 367 1129 399 1102 q 302 1187 335 1157 q 242 1245 269 1217 q 198 1292 214 1272 l 198 1305 l 381 1305 z "},"É":{"ha":775,"x_min":130,"x_max":692,"o":"m 692 0 l 130 0 l 130 991 l 692 991 l 692 854 l 293 854 l 293 585 l 667 585 l 667 449 l 293 449 l 293 138 l 692 138 l 692 0 m 653 1305 l 653 1292 q 609 1245 637 1272 q 549 1187 581 1217 q 484 1129 516 1157 q 427 1083 452 1102 l 320 1083 l 320 1101 q 370 1162 342 1126 q 424 1236 397 1198 q 469 1305 451 1274 l 653 1305 z "},"Ê":{"ha":775,"x_min":130,"x_max":692,"o":"m 692 0 l 130 0 l 130 991 l 692 991 l 692 854 l 293 854 l 293 585 l 667 585 l 667 449 l 293 449 l 293 138 l 692 138 l 692 0 m 512 1305 q 561 1236 530 1274 q 626 1162 592 1198 q 685 1100 659 1126 l 685 1083 l 576 1083 q 499 1138 540 1106 q 422 1208 458 1171 q 346 1139 385 1171 q 270 1083 306 1107 l 162 1083 l 162 1100 q 221 1162 188 1126 q 285 1236 254 1198 q 334 1305 315 1274 l 512 1305 z "},"Ë":{"ha":775,"x_min":130,"x_max":692,"o":"m 692 0 l 130 0 l 130 991 l 692 991 l 692 854 l 293 854 l 293 585 l 667 585 l 667 449 l 293 449 l 293 138 l 692 138 l 692 0 m 210 1191 q 232 1250 210 1232 q 287 1269 254 1269 q 343 1250 319 1269 q 366 1191 366 1232 q 343 1132 366 1152 q 287 1112 319 1112 q 232 1132 254 1112 q 210 1191 210 1152 m 476 1191 q 499 1250 476 1232 q 554 1269 522 1269 q 610 1250 587 1269 q 633 1191 633 1232 q 610 1132 633 1152 q 554 1112 587 1112 q 499 1132 522 1112 q 476 1191 476 1152 z "},"Ì":{"ha":424,"x_min":-35,"x_max":298,"o":"m 130 0 l 130 991 l 293 991 l 293 0 l 130 0 m 148 1305 q 193 1236 166 1274 q 248 1162 219 1198 q 298 1101 276 1126 l 298 1083 l 191 1083 q 134 1129 165 1102 q 69 1187 102 1157 q 8 1245 36 1217 q -35 1292 -19 1272 l -35 1305 l 148 1305 z "},"Í":{"ha":424,"x_min":127,"x_max":460,"o":"m 130 0 l 130 991 l 293 991 l 293 0 l 130 0 m 460 1305 l 460 1292 q 416 1245 444 1272 q 355 1187 388 1217 q 291 1129 323 1157 q 233 1083 259 1102 l 127 1083 l 127 1101 q 177 1162 149 1126 q 231 1236 204 1198 q 276 1305 258 1274 l 460 1305 z "},"Î":{"ha":424,"x_min":-49,"x_max":474,"o":"m 130 0 l 130 991 l 293 991 l 293 0 l 130 0 m 301 1305 q 350 1236 319 1274 q 415 1162 381 1198 q 474 1100 448 1126 l 474 1083 l 366 1083 q 288 1138 329 1106 q 211 1208 247 1171 q 135 1139 174 1171 q 59 1083 95 1107 l -49 1083 l -49 1100 q 10 1162 -23 1126 q 74 1236 43 1198 q 123 1305 104 1274 l 301 1305 z "},"Ï":{"ha":424,"x_min":1,"x_max":425,"o":"m 130 0 l 130 991 l 293 991 l 293 0 l 130 0 m 1 1191 q 24 1250 1 1232 q 79 1269 46 1269 q 135 1250 111 1269 q 158 1191 158 1232 q 135 1132 158 1152 q 79 1112 111 1112 q 24 1132 46 1112 q 1 1191 1 1152 m 268 1191 q 291 1250 268 1232 q 346 1269 313 1269 q 402 1250 378 1269 q 425 1191 425 1232 q 402 1132 425 1152 q 346 1112 378 1112 q 291 1132 313 1112 q 268 1191 268 1152 z "},"Ð":{"ha":1018,"x_min":36,"x_max":935,"o":"m 435 991 q 701 936 589 991 q 874 773 813 881 q 935 505 935 665 q 873 225 935 338 q 692 57 810 113 q 405 0 573 0 l 135 0 l 135 422 l 36 422 l 36 559 l 135 559 l 135 991 l 435 991 m 431 857 l 297 857 l 297 559 l 504 559 l 504 422 l 297 422 l 297 136 l 408 136 q 676 228 587 136 q 766 500 766 319 q 727 701 766 623 q 613 818 688 780 q 431 857 538 857 z "},"Ñ":{"ha":1088,"x_min":130,"x_max":958,"o":"m 958 0 l 758 0 l 272 791 l 266 791 q 271 707 269 751 q 275 614 273 662 q 278 518 277 567 l 278 0 l 130 0 l 130 991 l 329 991 l 814 205 l 819 205 q 815 285 817 240 q 811 377 813 330 q 809 470 810 425 l 809 991 l 958 991 l 958 0 m 277 1084 q 294 1167 281 1131 q 330 1226 308 1202 q 381 1263 352 1251 q 444 1275 410 1275 q 501 1263 473 1275 q 554 1237 528 1252 q 605 1210 581 1221 q 653 1198 630 1198 q 698 1217 680 1198 q 726 1276 717 1236 l 810 1276 q 756 1134 802 1183 q 643 1084 711 1084 q 587 1096 614 1084 q 534 1123 559 1108 q 483 1149 508 1138 q 434 1161 458 1161 q 388 1142 407 1161 q 361 1084 370 1123 l 277 1084 z "},"Ò":{"ha":1093,"x_min":83,"x_max":1010,"o":"m 1010 497 q 982 289 1010 382 q 895 127 953 195 q 751 23 838 60 q 547 -14 664 -14 q 341 23 429 -14 q 197 127 254 60 q 111 290 140 195 q 83 498 83 384 q 133 766 83 652 q 287 944 184 880 q 549 1007 391 1007 q 806 944 703 1007 q 959 767 908 881 q 1010 497 1010 652 m 254 497 q 285 299 254 382 q 381 170 316 215 q 547 125 446 125 q 714 170 650 125 q 809 299 779 215 q 840 497 840 382 q 770 770 840 671 q 549 869 701 869 q 381 824 447 869 q 285 696 316 779 q 254 497 254 613 m 507 1305 q 552 1236 526 1274 q 607 1162 578 1198 q 657 1101 635 1126 l 657 1083 l 551 1083 q 493 1129 525 1102 q 428 1187 461 1157 q 368 1245 395 1217 q 324 1292 340 1272 l 324 1305 l 507 1305 z "},"Ó":{"ha":1093,"x_min":83,"x_max":1010,"o":"m 1010 497 q 982 289 1010 382 q 895 127 953 195 q 751 23 838 60 q 547 -14 664 -14 q 341 23 429 -14 q 197 127 254 60 q 111 290 140 195 q 83 498 83 384 q 133 766 83 652 q 287 944 184 880 q 549 1007 391 1007 q 806 944 703 1007 q 959 767 908 881 q 1010 497 1010 652 m 254 497 q 285 299 254 382 q 381 170 316 215 q 547 125 446 125 q 714 170 650 125 q 809 299 779 215 q 840 497 840 382 q 770 770 840 671 q 549 869 701 869 q 381 824 447 869 q 285 696 316 779 q 254 497 254 613 m 779 1305 l 779 1292 q 734 1245 762 1272 q 674 1187 707 1217 q 610 1129 642 1157 q 552 1083 578 1102 l 446 1083 l 446 1101 q 495 1162 468 1126 q 550 1236 523 1198 q 595 1305 576 1274 l 779 1305 z "},"Ô":{"ha":1093,"x_min":83,"x_max":1010,"o":"m 1010 497 q 982 289 1010 382 q 895 127 953 195 q 751 23 838 60 q 547 -14 664 -14 q 341 23 429 -14 q 197 127 254 60 q 111 290 140 195 q 83 498 83 384 q 133 766 83 652 q 287 944 184 880 q 549 1007 391 1007 q 806 944 703 1007 q 959 767 908 881 q 1010 497 1010 652 m 254 497 q 285 299 254 382 q 381 170 316 215 q 547 125 446 125 q 714 170 650 125 q 809 299 779 215 q 840 497 840 382 q 770 770 840 671 q 549 869 701 869 q 381 824 447 869 q 285 696 316 779 q 254 497 254 613 m 637 1305 q 687 1236 656 1274 q 751 1162 718 1198 q 810 1100 785 1126 l 810 1083 l 702 1083 q 624 1138 665 1106 q 547 1208 583 1171 q 471 1139 511 1171 q 395 1083 431 1107 l 288 1083 l 288 1100 q 347 1162 313 1126 q 410 1236 380 1198 q 459 1305 441 1274 l 637 1305 z "},"Õ":{"ha":1093,"x_min":83,"x_max":1010,"o":"m 1010 497 q 982 289 1010 382 q 895 127 953 195 q 751 23 838 60 q 547 -14 664 -14 q 341 23 429 -14 q 197 127 254 60 q 111 290 140 195 q 83 498 83 384 q 133 766 83 652 q 287 944 184 880 q 549 1007 391 1007 q 806 944 703 1007 q 959 767 908 881 q 1010 497 1010 652 m 254 497 q 285 299 254 382 q 381 170 316 215 q 547 125 446 125 q 714 170 650 125 q 809 299 779 215 q 840 497 840 382 q 770 770 840 671 q 549 869 701 869 q 381 824 447 869 q 285 696 316 779 q 254 497 254 613 m 278 1084 q 296 1167 282 1131 q 331 1226 309 1202 q 382 1263 353 1251 q 445 1275 411 1275 q 502 1263 475 1275 q 556 1237 530 1252 q 607 1210 582 1221 q 654 1198 631 1198 q 700 1217 681 1198 q 728 1276 718 1236 l 811 1276 q 758 1134 803 1183 q 644 1084 712 1084 q 588 1096 616 1084 q 535 1123 561 1108 q 484 1149 509 1138 q 435 1161 459 1161 q 390 1142 408 1161 q 362 1084 371 1123 l 278 1084 z "},"Ö":{"ha":1093,"x_min":83,"x_max":1010,"o":"m 1010 497 q 982 289 1010 382 q 895 127 953 195 q 751 23 838 60 q 547 -14 664 -14 q 341 23 429 -14 q 197 127 254 60 q 111 290 140 195 q 83 498 83 384 q 133 766 83 652 q 287 944 184 880 q 549 1007 391 1007 q 806 944 703 1007 q 959 767 908 881 q 1010 497 1010 652 m 254 497 q 285 299 254 382 q 381 170 316 215 q 547 125 446 125 q 714 170 650 125 q 809 299 779 215 q 840 497 840 382 q 770 770 840 671 q 549 869 701 869 q 381 824 447 869 q 285 696 316 779 q 254 497 254 613 m 335 1191 q 357 1250 335 1232 q 412 1269 380 1269 q 468 1250 445 1269 q 492 1191 492 1232 q 468 1132 492 1152 q 412 1112 445 1112 q 357 1132 380 1112 q 335 1191 335 1152 m 602 1191 q 624 1250 602 1232 q 680 1269 647 1269 q 735 1250 712 1269 q 759 1191 759 1232 q 735 1132 759 1152 q 680 1112 712 1112 q 624 1132 647 1112 q 602 1191 602 1152 z "},"×":{"ha":794,"x_min":89,"x_max":703,"o":"m 620 798 l 703 714 l 480 490 l 702 268 l 619 183 l 395 405 l 174 184 l 90 269 l 311 490 l 89 712 l 174 798 l 395 576 l 620 798 z "},"Ø":{"ha":1093,"x_min":83,"x_max":1010,"o":"m 1010 497 q 982 289 1010 382 q 895 127 953 195 q 751 23 838 60 q 547 -14 664 -14 q 413 1 474 -14 q 303 43 351 15 l 238 -52 l 144 11 l 212 110 q 115 276 146 178 q 83 498 83 375 q 133 766 83 652 q 287 944 184 880 q 549 1007 391 1007 q 680 992 619 1007 q 790 951 741 978 l 852 1040 l 945 978 l 880 884 q 977 719 944 817 q 1010 497 1010 621 m 840 497 q 826 635 840 573 q 785 743 812 697 l 387 167 q 458 136 418 146 q 547 125 498 125 q 714 170 650 125 q 809 299 779 215 q 840 497 840 382 m 254 497 q 267 360 254 422 q 308 252 281 298 l 707 827 q 636 858 675 847 q 549 869 597 869 q 381 824 447 869 q 285 696 316 779 q 254 497 254 613 z "},"Ù":{"ha":1031,"x_min":122,"x_max":909,"o":"m 909 991 l 909 350 q 865 164 909 246 q 733 34 821 82 q 511 -14 645 -14 q 221 86 321 -14 q 122 353 122 186 l 122 991 l 285 991 l 285 367 q 343 184 285 243 q 517 125 401 125 q 648 153 597 125 q 723 236 699 181 q 747 368 747 290 l 747 991 l 909 991 m 476 1305 q 521 1236 494 1274 q 576 1162 547 1198 q 626 1101 604 1126 l 626 1083 l 519 1083 q 462 1129 494 1102 q 397 1187 430 1157 q 337 1245 364 1217 q 293 1292 309 1272 l 293 1305 l 476 1305 z "},"Ú":{"ha":1031,"x_min":122,"x_max":909,"o":"m 909 991 l 909 350 q 865 164 909 246 q 733 34 821 82 q 511 -14 645 -14 q 221 86 321 -14 q 122 353 122 186 l 122 991 l 285 991 l 285 367 q 343 184 285 243 q 517 125 401 125 q 648 153 597 125 q 723 236 699 181 q 747 368 747 290 l 747 991 l 909 991 m 747 1305 l 747 1292 q 703 1245 731 1272 q 643 1187 675 1217 q 578 1129 610 1157 q 521 1083 547 1102 l 414 1083 l 414 1101 q 464 1162 437 1126 q 518 1236 492 1198 q 564 1305 545 1274 l 747 1305 z "},"Û":{"ha":1031,"x_min":122,"x_max":909,"o":"m 909 991 l 909 350 q 865 164 909 246 q 733 34 821 82 q 511 -14 645 -14 q 221 86 321 -14 q 122 353 122 186 l 122 991 l 285 991 l 285 367 q 343 184 285 243 q 517 125 401 125 q 648 153 597 125 q 723 236 699 181 q 747 368 747 290 l 747 991 l 909 991 m 607 1305 q 656 1236 625 1274 q 721 1162 687 1198 q 780 1100 754 1126 l 780 1083 l 671 1083 q 594 1138 635 1106 q 517 1208 553 1171 q 440 1139 480 1171 q 365 1083 401 1107 l 257 1083 l 257 1100 q 316 1162 283 1126 q 380 1236 349 1198 q 429 1305 410 1274 l 607 1305 z "},"Ü":{"ha":1031,"x_min":122,"x_max":909,"o":"m 909 991 l 909 350 q 865 164 909 246 q 733 34 821 82 q 511 -14 645 -14 q 221 86 321 -14 q 122 353 122 186 l 122 991 l 285 991 l 285 367 q 343 184 285 243 q 517 125 401 125 q 648 153 597 125 q 723 236 699 181 q 747 368 747 290 l 747 991 l 909 991 m 304 1191 q 327 1250 304 1232 q 382 1269 349 1269 q 438 1250 414 1269 q 461 1191 461 1232 q 438 1132 461 1152 q 382 1112 414 1112 q 327 1132 349 1112 q 304 1191 304 1152 m 571 1191 q 594 1250 571 1232 q 649 1269 616 1269 q 705 1250 682 1269 q 728 1191 728 1232 q 705 1132 728 1152 q 649 1112 682 1112 q 594 1132 616 1112 q 571 1191 571 1152 z "},"Ý":{"ha":822,"x_min":0,"x_max":822,"o":"m 411 539 l 646 991 l 822 991 l 492 385 l 492 0 l 330 0 l 330 379 l 0 991 l 177 991 l 411 539 m 643 1305 l 643 1292 q 599 1245 627 1272 q 538 1187 571 1217 q 474 1129 506 1157 q 416 1083 442 1102 l 310 1083 l 310 1101 q 360 1162 332 1126 q 414 1236 387 1198 q 459 1305 441 1274 l 643 1305 z "},"Þ":{"ha":854,"x_min":130,"x_max":787,"o":"m 787 526 q 768 405 787 463 q 704 304 748 348 q 586 234 659 260 q 405 208 512 208 l 293 208 l 293 0 l 130 0 l 130 991 l 293 991 l 293 827 l 425 827 q 701 747 614 827 q 787 526 787 667 m 293 342 l 380 342 q 515 360 462 342 q 595 418 568 378 q 621 524 621 458 q 569 651 621 610 q 401 692 516 692 l 293 692 l 293 342 z "},"ß":{"ha":926,"x_min":114,"x_max":870,"o":"m 780 851 q 760 765 780 801 q 712 702 741 729 q 654 653 683 675 q 606 612 625 632 q 586 570 586 592 q 597 535 586 551 q 638 499 609 519 q 718 446 667 479 q 799 383 765 415 q 852 311 833 351 q 870 216 870 271 q 836 88 870 139 q 739 12 802 37 q 587 -14 676 -14 q 471 -3 520 -14 q 384 31 422 8 l 384 164 q 439 137 407 150 q 508 115 471 123 q 578 106 544 106 q 676 134 644 106 q 709 210 709 161 q 698 263 709 241 q 659 308 687 285 q 580 361 631 330 q 490 425 523 396 q 442 484 456 454 q 428 551 428 514 q 447 625 428 595 q 494 678 466 655 q 551 722 523 701 q 598 769 579 743 q 617 829 617 794 q 571 908 617 881 q 452 935 524 935 q 361 921 401 935 q 297 873 321 906 q 273 787 273 841 l 273 0 l 114 0 l 114 790 q 158 946 114 886 q 279 1035 202 1006 q 452 1063 355 1063 q 622 1039 548 1063 q 738 967 696 1015 q 780 851 780 920 z "},"à":{"ha":806,"x_min":61,"x_max":696,"o":"m 408 765 q 624 702 551 765 q 696 505 696 639 l 696 0 l 583 0 l 553 106 l 547 106 q 481 39 515 66 q 403 0 448 13 q 295 -14 359 -14 q 175 11 228 -14 q 92 87 122 36 q 61 216 61 138 q 148 390 61 332 q 409 454 234 448 l 539 459 l 539 498 q 503 610 539 576 q 401 643 467 643 q 292 627 345 643 q 189 587 239 610 l 137 699 q 262 747 192 728 q 408 765 332 765 m 538 359 l 441 355 q 274 315 322 351 q 226 214 226 278 q 259 133 226 159 q 347 108 292 108 q 484 155 429 108 q 538 294 538 202 l 538 359 m 363 1064 q 408 995 381 1033 q 463 921 434 957 q 513 859 491 885 l 513 842 l 406 842 q 349 888 380 861 q 284 946 317 916 q 223 1003 251 976 q 180 1050 196 1031 l 180 1064 l 363 1064 z "},"á":{"ha":806,"x_min":61,"x_max":696,"o":"m 408 765 q 624 702 551 765 q 696 505 696 639 l 696 0 l 583 0 l 553 106 l 547 106 q 481 39 515 66 q 403 0 448 13 q 295 -14 359 -14 q 175 11 228 -14 q 92 87 122 36 q 61 216 61 138 q 148 390 61 332 q 409 454 234 448 l 539 459 l 539 498 q 503 610 539 576 q 401 643 467 643 q 292 627 345 643 q 189 587 239 610 l 137 699 q 262 747 192 728 q 408 765 332 765 m 538 359 l 441 355 q 274 315 322 351 q 226 214 226 278 q 259 133 226 159 q 347 108 292 108 q 484 155 429 108 q 538 294 538 202 l 538 359 m 634 1064 l 634 1050 q 590 1003 618 1031 q 530 946 562 976 q 465 888 497 916 q 408 842 433 861 l 301 842 l 301 859 q 351 921 323 885 q 405 995 378 957 q 450 1064 432 1033 l 634 1064 z "},"â":{"ha":806,"x_min":61,"x_max":696,"o":"m 408 765 q 624 702 551 765 q 696 505 696 639 l 696 0 l 583 0 l 553 106 l 547 106 q 481 39 515 66 q 403 0 448 13 q 295 -14 359 -14 q 175 11 228 -14 q 92 87 122 36 q 61 216 61 138 q 148 390 61 332 q 409 454 234 448 l 539 459 l 539 498 q 503 610 539 576 q 401 643 467 643 q 292 627 345 643 q 189 587 239 610 l 137 699 q 262 747 192 728 q 408 765 332 765 m 538 359 l 441 355 q 274 315 322 351 q 226 214 226 278 q 259 133 226 159 q 347 108 292 108 q 484 155 429 108 q 538 294 538 202 l 538 359 m 493 1064 q 542 995 511 1033 q 607 921 573 957 q 666 859 640 884 l 666 842 l 557 842 q 480 897 521 865 q 403 966 439 929 q 327 897 366 929 q 251 842 287 865 l 143 842 l 143 859 q 202 921 169 885 q 266 995 235 957 q 315 1064 296 1033 l 493 1064 z "},"ã":{"ha":806,"x_min":61,"x_max":696,"o":"m 408 765 q 624 702 551 765 q 696 505 696 639 l 696 0 l 583 0 l 553 106 l 547 106 q 481 39 515 66 q 403 0 448 13 q 295 -14 359 -14 q 175 11 228 -14 q 92 87 122 36 q 61 216 61 138 q 148 390 61 332 q 409 454 234 448 l 539 459 l 539 498 q 503 610 539 576 q 401 643 467 643 q 292 627 345 643 q 189 587 239 610 l 137 699 q 262 747 192 728 q 408 765 332 765 m 538 359 l 441 355 q 274 315 322 351 q 226 214 226 278 q 259 133 226 159 q 347 108 292 108 q 484 155 429 108 q 538 294 538 202 l 538 359 m 134 842 q 151 925 138 890 q 187 985 165 961 q 238 1021 209 1009 q 300 1034 267 1034 q 358 1022 330 1034 q 411 995 385 1010 q 462 968 437 980 q 510 957 487 957 q 555 976 536 957 q 583 1035 574 995 l 667 1035 q 613 892 659 941 q 500 843 568 843 q 444 855 471 843 q 391 882 416 867 q 340 908 365 897 q 291 920 315 920 q 245 901 264 920 q 218 842 227 882 l 134 842 z "},"ä":{"ha":806,"x_min":61,"x_max":696,"o":"m 408 765 q 624 702 551 765 q 696 505 696 639 l 696 0 l 583 0 l 553 106 l 547 106 q 481 39 515 66 q 403 0 448 13 q 295 -14 359 -14 q 175 11 228 -14 q 92 87 122 36 q 61 216 61 138 q 148 390 61 332 q 409 454 234 448 l 539 459 l 539 498 q 503 610 539 576 q 401 643 467 643 q 292 627 345 643 q 189 587 239 610 l 137 699 q 262 747 192 728 q 408 765 332 765 m 538 359 l 441 355 q 274 315 322 351 q 226 214 226 278 q 259 133 226 159 q 347 108 292 108 q 484 155 429 108 q 538 294 538 202 l 538 359 m 191 949 q 213 1009 191 990 q 268 1027 235 1027 q 324 1009 300 1027 q 347 949 347 990 q 324 890 347 910 q 268 871 300 871 q 213 890 235 871 q 191 949 191 910 m 457 949 q 480 1009 457 990 q 535 1027 503 1027 q 591 1009 568 1027 q 614 949 614 990 q 591 890 614 910 q 535 871 568 871 q 480 890 503 871 q 457 949 457 910 z "},"å":{"ha":806,"x_min":61,"x_max":696,"o":"m 408 765 q 624 702 551 765 q 696 505 696 639 l 696 0 l 583 0 l 553 106 l 547 106 q 481 39 515 66 q 403 0 448 13 q 295 -14 359 -14 q 175 11 228 -14 q 92 87 122 36 q 61 216 61 138 q 148 390 61 332 q 409 454 234 448 l 539 459 l 539 498 q 503 610 539 576 q 401 643 467 643 q 292 627 345 643 q 189 587 239 610 l 137 699 q 262 747 192 728 q 408 765 332 765 m 538 359 l 441 355 q 274 315 322 351 q 226 214 226 278 q 259 133 226 159 q 347 108 292 108 q 484 155 429 108 q 538 294 538 202 l 538 359 m 404 842 q 289 882 334 842 q 245 996 245 923 q 289 1107 245 1067 q 404 1148 333 1148 q 519 1107 472 1148 q 566 997 566 1067 q 520 883 566 924 q 404 842 473 842 m 404 922 q 457 942 436 922 q 477 996 477 962 q 456 1048 477 1029 q 404 1068 435 1068 q 352 1048 373 1068 q 331 996 331 1029 q 350 942 331 962 q 404 922 368 922 z "},"æ":{"ha":1236,"x_min":61,"x_max":1171,"o":"m 864 765 q 1026 724 957 765 q 1133 606 1095 682 q 1170 426 1171 530 l 1170 340 l 684 340 q 740 170 688 228 q 890 112 793 112 q 1015 126 958 112 q 1132 167 1073 140 l 1132 37 q 1018 -1 1076 11 q 882 -14 961 -14 q 764 3 819 -14 q 667 54 710 20 q 594 138 624 87 q 519 55 558 89 q 428 4 480 21 q 300 -14 375 -14 q 179 11 233 -14 q 93 87 125 36 q 61 216 61 138 q 98 345 61 293 q 210 423 136 396 q 395 454 284 450 l 523 459 l 523 511 q 486 612 523 582 q 387 643 450 643 q 280 627 332 643 q 179 588 229 612 l 128 699 q 254 747 183 728 q 397 765 324 765 q 536 739 479 765 q 627 656 593 712 q 726 737 667 709 q 864 765 785 765 m 522 359 l 430 355 q 272 315 317 351 q 226 214 226 278 q 257 133 226 159 q 341 108 289 108 q 434 129 393 108 q 498 191 475 150 q 522 294 522 233 l 522 359 m 861 645 q 740 597 786 645 q 688 453 694 549 l 1013 453 q 996 553 1013 510 q 946 621 979 596 q 861 645 912 645 z "},"ç":{"ha":690,"x_min":70,"x_max":646,"o":"m 416 -14 q 232 28 310 -14 q 112 155 154 69 q 70 372 70 240 q 116 595 70 509 q 244 724 162 682 q 431 765 326 765 q 553 752 498 765 q 646 720 608 739 l 598 592 q 513 621 557 609 q 430 632 470 632 q 320 603 364 632 q 255 516 277 574 q 234 373 234 458 q 256 234 234 290 q 320 148 277 177 q 425 119 363 119 q 536 134 487 119 q 628 173 585 149 l 628 35 q 536 -2 585 10 q 416 -14 488 -14 m 547 -182 q 498 -294 547 -254 q 342 -334 450 -334 q 294 -330 316 -334 q 257 -323 273 -327 l 257 -230 q 298 -237 273 -234 q 342 -241 322 -241 q 398 -229 378 -241 q 419 -187 419 -216 q 389 -138 419 -156 q 298 -112 358 -119 l 355 0 l 458 0 l 431 -58 q 488 -82 462 -66 q 530 -122 514 -98 q 547 -182 547 -147 z "},"è":{"ha":800,"x_min":70,"x_max":734,"o":"m 413 765 q 585 724 513 765 q 696 606 657 682 q 734 425 734 530 l 734 339 l 233 339 q 292 171 236 230 q 449 112 348 112 q 578 126 521 112 q 696 167 635 140 l 696 37 q 582 -1 640 11 q 442 -14 524 -14 q 248 30 332 -14 q 117 158 164 73 q 70 370 70 243 q 113 585 70 496 q 233 719 155 673 q 413 765 310 765 m 413 645 q 291 596 338 645 q 237 453 245 547 l 578 453 q 560 553 578 509 q 506 621 542 596 q 413 645 469 645 m 363 1064 q 408 995 382 1033 q 463 921 435 957 q 513 859 492 885 l 513 842 l 407 842 q 349 888 381 861 q 284 946 317 916 q 224 1003 252 976 q 180 1050 197 1031 l 180 1064 l 363 1064 z "},"é":{"ha":800,"x_min":70,"x_max":734,"o":"m 413 765 q 585 724 513 765 q 696 606 657 682 q 734 425 734 530 l 734 339 l 233 339 q 292 171 236 230 q 449 112 348 112 q 578 126 521 112 q 696 167 635 140 l 696 37 q 582 -1 640 11 q 442 -14 524 -14 q 248 30 332 -14 q 117 158 164 73 q 70 370 70 243 q 113 585 70 496 q 233 719 155 673 q 413 765 310 765 m 413 645 q 291 596 338 645 q 237 453 245 547 l 578 453 q 560 553 578 509 q 506 621 542 596 q 413 645 469 645 m 635 1064 l 635 1050 q 591 1003 618 1031 q 530 946 563 976 q 466 888 498 916 q 408 842 434 861 l 302 842 l 302 859 q 352 921 324 885 q 406 995 379 957 q 451 1064 433 1033 l 635 1064 z "},"ê":{"ha":800,"x_min":70,"x_max":734,"o":"m 413 765 q 585 724 513 765 q 696 606 657 682 q 734 425 734 530 l 734 339 l 233 339 q 292 171 236 230 q 449 112 348 112 q 578 126 521 112 q 696 167 635 140 l 696 37 q 582 -1 640 11 q 442 -14 524 -14 q 248 30 332 -14 q 117 158 164 73 q 70 370 70 243 q 113 585 70 496 q 233 719 155 673 q 413 765 310 765 m 413 645 q 291 596 338 645 q 237 453 245 547 l 578 453 q 560 553 578 509 q 506 621 542 596 q 413 645 469 645 m 494 1064 q 543 995 512 1033 q 607 921 574 957 q 667 859 641 884 l 667 842 l 558 842 q 480 897 522 865 q 404 966 439 929 q 327 897 367 929 q 252 842 288 865 l 144 842 l 144 859 q 203 921 170 885 q 267 995 236 957 q 315 1064 297 1033 l 494 1064 z "},"ë":{"ha":800,"x_min":70,"x_max":734,"o":"m 413 765 q 585 724 513 765 q 696 606 657 682 q 734 425 734 530 l 734 339 l 233 339 q 292 171 236 230 q 449 112 348 112 q 578 126 521 112 q 696 167 635 140 l 696 37 q 582 -1 640 11 q 442 -14 524 -14 q 248 30 332 -14 q 117 158 164 73 q 70 370 70 243 q 113 585 70 496 q 233 719 155 673 q 413 765 310 765 m 413 645 q 291 596 338 645 q 237 453 245 547 l 578 453 q 560 553 578 509 q 506 621 542 596 q 413 645 469 645 m 191 949 q 214 1009 191 990 q 269 1027 236 1027 q 325 1009 301 1027 q 348 949 348 990 q 325 890 348 910 q 269 871 301 871 q 214 890 236 871 q 191 949 191 910 m 458 949 q 480 1009 458 990 q 536 1027 503 1027 q 592 1009 568 1027 q 615 949 615 990 q 592 890 615 910 q 536 871 568 871 q 480 890 503 871 q 458 949 458 910 z "},"ì":{"ha":387,"x_min":-29,"x_max":304,"o":"m 273 0 l 114 0 l 114 751 l 273 751 l 273 0 m 154 1064 q 199 995 172 1033 q 254 921 225 957 q 304 859 282 885 l 304 842 l 197 842 q 140 888 172 861 q 75 946 108 916 q 15 1003 42 976 q -29 1050 -13 1031 l -29 1064 l 154 1064 z "},"í":{"ha":387,"x_min":92,"x_max":425,"o":"m 273 0 l 114 0 l 114 751 l 273 751 l 273 0 m 425 1064 l 425 1050 q 381 1003 409 1031 q 321 946 353 976 q 256 888 288 916 q 199 842 224 861 l 92 842 l 92 859 q 142 921 115 885 q 196 995 170 957 q 241 1064 223 1033 l 425 1064 z "},"î":{"ha":387,"x_min":-66,"x_max":457,"o":"m 273 0 l 114 0 l 114 751 l 273 751 l 273 0 m 284 1064 q 333 995 302 1033 q 398 921 364 957 q 457 859 431 884 l 457 842 l 349 842 q 271 897 312 865 q 194 966 230 929 q 118 897 157 929 q 42 842 78 865 l -66 842 l -66 859 q -7 921 -40 885 q 57 995 26 957 q 106 1064 87 1033 l 284 1064 z "},"ï":{"ha":387,"x_min":-18,"x_max":406,"o":"m 273 0 l 114 0 l 114 751 l 273 751 l 273 0 m -18 949 q 4 1009 -18 990 q 59 1027 26 1027 q 115 1009 92 1027 q 138 949 138 990 q 115 890 138 910 q 59 871 92 871 q 4 890 26 871 q -18 949 -18 910 m 248 949 q 271 1009 248 990 q 326 1027 294 1027 q 382 1009 359 1027 q 406 949 406 990 q 382 890 406 910 q 326 871 359 871 q 271 890 294 871 q 248 949 248 910 z "},"ð":{"ha":846,"x_min":70,"x_max":777,"o":"m 304 1062 q 396 1016 352 1041 q 479 964 440 991 l 635 1058 l 693 971 l 566 895 q 680 758 633 834 q 752 589 727 682 q 777 385 777 496 q 734 168 777 256 q 611 33 691 79 q 421 -14 532 -14 q 239 27 318 -14 q 115 144 159 68 q 70 327 70 220 q 111 510 70 434 q 224 625 151 585 q 395 665 298 665 q 482 657 444 665 q 550 632 521 649 q 598 591 579 616 l 604 593 q 542 720 581 662 q 451 825 503 777 l 283 725 l 224 813 l 363 895 q 307 930 336 912 q 248 964 278 947 l 304 1062 m 425 543 q 315 518 357 543 q 253 445 273 494 q 233 324 233 396 q 253 212 233 260 q 315 136 273 163 q 424 109 357 109 q 569 172 524 109 q 614 357 614 235 q 603 428 614 395 q 569 487 592 461 q 510 528 546 513 q 425 543 474 543 z "},"ñ":{"ha":882,"x_min":114,"x_max":774,"o":"m 505 765 q 703 700 632 765 q 774 490 774 634 l 774 0 l 614 0 l 614 460 q 578 591 614 547 q 467 635 543 635 q 316 568 358 635 q 273 373 273 500 l 273 0 l 114 0 l 114 751 l 238 751 l 260 649 l 269 649 q 330 714 294 688 q 411 752 366 739 q 505 765 456 765 m 174 842 q 191 925 178 890 q 227 985 205 961 q 278 1021 249 1009 q 340 1034 307 1034 q 398 1022 370 1034 q 451 995 425 1010 q 502 968 477 980 q 550 957 527 957 q 595 976 576 957 q 623 1035 614 995 l 707 1035 q 653 892 699 941 q 540 843 608 843 q 484 855 511 843 q 431 882 456 867 q 380 908 405 897 q 331 920 355 920 q 285 901 304 920 q 258 842 267 882 l 174 842 z "},"ò":{"ha":848,"x_min":70,"x_max":779,"o":"m 779 377 q 754 211 779 283 q 683 89 730 138 q 570 13 636 39 q 422 -14 505 -14 q 280 13 345 -14 q 169 89 216 39 q 96 211 121 138 q 70 377 70 283 q 113 588 70 501 q 236 720 156 674 q 427 765 316 765 q 610 720 530 765 q 734 587 689 674 q 779 377 779 500 m 234 377 q 254 237 234 295 q 316 148 274 178 q 425 117 358 117 q 533 148 491 117 q 595 237 575 178 q 614 377 614 295 q 595 516 614 459 q 533 604 575 574 q 424 634 491 634 q 279 568 325 634 q 234 377 234 501 m 385 1064 q 429 995 403 1033 q 484 921 456 957 q 534 859 513 885 l 534 842 l 428 842 q 370 888 402 861 q 306 946 338 916 q 245 1003 273 976 q 201 1050 218 1031 l 201 1064 l 385 1064 z "},"ó":{"ha":848,"x_min":70,"x_max":779,"o":"m 779 377 q 754 211 779 283 q 683 89 730 138 q 570 13 636 39 q 422 -14 505 -14 q 280 13 345 -14 q 169 89 216 39 q 96 211 121 138 q 70 377 70 283 q 113 588 70 501 q 236 720 156 674 q 427 765 316 765 q 610 720 530 765 q 734 587 689 674 q 779 377 779 500 m 234 377 q 254 237 234 295 q 316 148 274 178 q 425 117 358 117 q 533 148 491 117 q 595 237 575 178 q 614 377 614 295 q 595 516 614 459 q 533 604 575 574 q 424 634 491 634 q 279 568 325 634 q 234 377 234 501 m 656 1064 l 656 1050 q 612 1003 640 1031 q 552 946 585 976 q 488 888 519 916 q 430 842 456 861 l 323 842 l 323 859 q 373 921 346 885 q 428 995 401 957 q 473 1064 454 1033 l 656 1064 z "},"ô":{"ha":848,"x_min":70,"x_max":779,"o":"m 779 377 q 754 211 779 283 q 683 89 730 138 q 570 13 636 39 q 422 -14 505 -14 q 280 13 345 -14 q 169 89 216 39 q 96 211 121 138 q 70 377 70 283 q 113 588 70 501 q 236 720 156 674 q 427 765 316 765 q 610 720 530 765 q 734 587 689 674 q 779 377 779 500 m 234 377 q 254 237 234 295 q 316 148 274 178 q 425 117 358 117 q 533 148 491 117 q 595 237 575 178 q 614 377 614 295 q 595 516 614 459 q 533 604 575 574 q 424 634 491 634 q 279 568 325 634 q 234 377 234 501 m 515 1064 q 565 995 534 1033 q 629 921 595 957 q 688 859 663 884 l 688 842 l 580 842 q 502 897 543 865 q 425 966 461 929 q 349 897 389 929 q 273 842 309 865 l 165 842 l 165 859 q 224 921 191 885 q 288 995 258 957 q 337 1064 319 1033 l 515 1064 z "},"õ":{"ha":848,"x_min":70,"x_max":779,"o":"m 779 377 q 754 211 779 283 q 683 89 730 138 q 570 13 636 39 q 422 -14 505 -14 q 280 13 345 -14 q 169 89 216 39 q 96 211 121 138 q 70 377 70 283 q 113 588 70 501 q 236 720 156 674 q 427 765 316 765 q 610 720 530 765 q 734 587 689 674 q 779 377 779 500 m 234 377 q 254 237 234 295 q 316 148 274 178 q 425 117 358 117 q 533 148 491 117 q 595 237 575 178 q 614 377 614 295 q 595 516 614 459 q 533 604 575 574 q 424 634 491 634 q 279 568 325 634 q 234 377 234 501 m 156 842 q 174 925 160 890 q 209 985 187 961 q 260 1021 231 1009 q 323 1034 289 1034 q 380 1022 353 1034 q 434 995 408 1010 q 485 968 460 980 q 532 957 509 957 q 577 976 559 957 q 606 1035 596 995 l 689 1035 q 635 892 681 941 q 522 843 590 843 q 466 855 494 843 q 413 882 439 867 q 362 908 387 897 q 313 920 337 920 q 268 901 286 920 q 240 842 249 882 l 156 842 z "},"ö":{"ha":848,"x_min":70,"x_max":779,"o":"m 779 377 q 754 211 779 283 q 683 89 730 138 q 570 13 636 39 q 422 -14 505 -14 q 280 13 345 -14 q 169 89 216 39 q 96 211 121 138 q 70 377 70 283 q 113 588 70 501 q 236 720 156 674 q 427 765 316 765 q 610 720 530 765 q 734 587 689 674 q 779 377 779 500 m 234 377 q 254 237 234 295 q 316 148 274 178 q 425 117 358 117 q 533 148 491 117 q 595 237 575 178 q 614 377 614 295 q 595 516 614 459 q 533 604 575 574 q 424 634 491 634 q 279 568 325 634 q 234 377 234 501 m 212 949 q 235 1009 212 990 q 290 1027 257 1027 q 346 1009 322 1027 q 369 949 369 990 q 346 890 369 910 q 290 871 322 871 q 235 890 257 871 q 212 949 212 910 m 479 949 q 502 1009 479 990 q 557 1027 524 1027 q 613 1009 589 1027 q 636 949 636 990 q 613 890 636 910 q 557 871 589 871 q 502 890 524 871 q 479 949 479 910 z "},"÷":{"ha":794,"x_min":65,"x_max":728,"o":"m 65 429 l 65 550 l 728 550 l 728 429 l 65 429 m 396 161 q 337 183 361 161 q 312 252 312 205 q 337 323 312 303 q 396 343 361 343 q 455 323 430 343 q 479 252 479 303 q 455 183 479 205 q 396 161 430 161 m 396 636 q 337 658 361 636 q 312 727 312 680 q 337 798 312 778 q 396 818 361 818 q 455 798 430 818 q 479 727 479 778 q 455 658 479 680 q 396 636 430 636 z "},"ø":{"ha":848,"x_min":70,"x_max":779,"o":"m 779 377 q 735 165 779 253 q 612 32 692 78 q 422 -14 532 -14 q 331 -3 374 -14 q 251 27 288 7 l 198 -48 l 109 13 l 165 92 q 95 214 119 142 q 70 377 70 285 q 165 664 70 563 q 427 765 261 765 q 520 753 476 765 q 603 721 565 742 l 650 789 l 740 728 l 687 654 q 754 535 730 605 q 779 377 779 465 m 234 377 q 240 295 234 332 q 258 229 245 258 l 524 607 q 479 627 505 620 q 424 634 454 634 q 279 568 325 634 q 234 377 234 501 m 614 377 q 609 452 614 417 q 593 514 604 487 l 330 140 q 372 122 348 128 q 425 117 397 117 q 533 148 491 117 q 595 237 575 178 q 614 377 614 295 z "},"ù":{"ha":882,"x_min":108,"x_max":768,"o":"m 768 751 l 768 0 l 643 0 l 621 101 l 612 101 q 552 37 589 62 q 471 -1 515 12 q 376 -14 426 -14 q 232 15 292 -14 q 140 104 172 44 q 108 260 108 165 l 108 751 l 268 751 l 268 290 q 303 159 268 203 q 414 116 339 116 q 530 146 487 116 q 590 234 572 176 q 608 377 608 292 l 608 751 l 768 751 m 402 1064 q 447 995 420 1033 q 502 921 473 957 q 552 859 530 885 l 552 842 l 446 842 q 388 888 420 861 q 323 946 356 916 q 263 1003 290 976 q 219 1050 235 1031 l 219 1064 l 402 1064 z "},"ú":{"ha":882,"x_min":108,"x_max":768,"o":"m 768 751 l 768 0 l 643 0 l 621 101 l 612 101 q 552 37 589 62 q 471 -1 515 12 q 376 -14 426 -14 q 232 15 292 -14 q 140 104 172 44 q 108 260 108 165 l 108 751 l 268 751 l 268 290 q 303 159 268 203 q 414 116 339 116 q 530 146 487 116 q 590 234 572 176 q 608 377 608 292 l 608 751 l 768 751 m 673 1064 l 673 1050 q 629 1003 657 1031 q 569 946 602 976 q 505 888 536 916 q 447 842 473 861 l 340 842 l 340 859 q 390 921 363 885 q 445 995 418 957 q 490 1064 471 1033 l 673 1064 z "},"û":{"ha":882,"x_min":108,"x_max":768,"o":"m 768 751 l 768 0 l 643 0 l 621 101 l 612 101 q 552 37 589 62 q 471 -1 515 12 q 376 -14 426 -14 q 232 15 292 -14 q 140 104 172 44 q 108 260 108 165 l 108 751 l 268 751 l 268 290 q 303 159 268 203 q 414 116 339 116 q 530 146 487 116 q 590 234 572 176 q 608 377 608 292 l 608 751 l 768 751 m 532 1064 q 582 995 551 1033 q 646 921 612 957 q 705 859 680 884 l 705 842 l 597 842 q 519 897 560 865 q 442 966 478 929 q 366 897 406 929 q 290 842 326 865 l 182 842 l 182 859 q 241 921 208 885 q 305 995 275 957 q 354 1064 336 1033 l 532 1064 z "},"ü":{"ha":882,"x_min":108,"x_max":768,"o":"m 768 751 l 768 0 l 643 0 l 621 101 l 612 101 q 552 37 589 62 q 471 -1 515 12 q 376 -14 426 -14 q 232 15 292 -14 q 140 104 172 44 q 108 260 108 165 l 108 751 l 268 751 l 268 290 q 303 159 268 203 q 414 116 339 116 q 530 146 487 116 q 590 234 572 176 q 608 377 608 292 l 608 751 l 768 751 m 229 949 q 252 1009 229 990 q 307 1027 274 1027 q 362 1009 339 1027 q 386 949 386 990 q 362 890 386 910 q 307 871 339 871 q 252 890 274 871 q 229 949 229 910 m 496 949 q 518 1009 496 990 q 574 1027 541 1027 q 630 1009 606 1027 q 653 949 653 990 q 630 890 653 910 q 574 871 606 871 q 518 890 541 871 q 496 949 496 910 z "},"ý":{"ha":743,"x_min":1,"x_max":743,"o":"m 1 751 l 174 751 l 328 322 q 347 265 338 293 q 362 210 355 237 q 372 155 368 182 l 376 155 q 396 234 383 191 q 424 322 408 278 l 572 751 l 743 751 l 421 -103 q 353 -228 393 -176 q 258 -307 313 -280 q 132 -334 203 -334 q 73 -330 98 -334 q 31 -322 48 -326 l 31 -195 q 66 -201 45 -198 q 111 -203 88 -203 q 185 -186 154 -203 q 238 -139 216 -170 q 274 -68 260 -108 l 300 2 l 1 751 m 603 1064 l 603 1050 q 559 1003 587 1031 q 498 946 531 976 q 434 888 466 916 q 376 842 402 861 l 270 842 l 270 859 q 320 921 292 885 q 374 995 347 957 q 419 1064 401 1033 l 603 1064 z "},"þ":{"ha":865,"x_min":114,"x_max":795,"o":"m 795 377 q 758 162 795 250 q 654 31 721 75 q 498 -14 588 -14 q 399 1 441 -14 q 326 38 356 15 q 274 91 295 62 l 265 91 q 269 57 267 78 q 273 13 271 35 q 274 -24 274 -9 l 274 -333 l 114 -333 l 114 1055 l 274 1055 l 274 766 q 272 704 274 739 q 267 648 269 668 l 274 648 q 326 707 295 680 q 399 749 356 733 q 499 765 442 765 q 714 667 633 765 q 795 377 795 568 m 631 379 q 589 571 631 507 q 457 635 546 635 q 317 576 358 635 q 274 401 275 517 l 274 377 q 314 184 274 252 q 458 117 355 117 q 555 148 517 117 q 612 236 593 178 q 631 379 631 295 z "},"ÿ":{"ha":743,"x_min":1,"x_max":743,"o":"m 1 751 l 174 751 l 328 322 q 347 265 338 293 q 362 210 355 237 q 372 155 368 182 l 376 155 q 396 234 383 191 q 424 322 408 278 l 572 751 l 743 751 l 421 -103 q 353 -228 393 -176 q 258 -307 313 -280 q 132 -334 203 -334 q 73 -330 98 -334 q 31 -322 48 -326 l 31 -195 q 66 -201 45 -198 q 111 -203 88 -203 q 185 -186 154 -203 q 238 -139 216 -170 q 274 -68 260 -108 l 300 2 l 1 751 m 159 949 q 182 1009 159 990 q 237 1027 204 1027 q 293 1009 269 1027 q 316 949 316 990 q 293 890 316 910 q 237 871 269 871 q 182 890 204 871 q 159 949 159 910 m 426 949 q 449 1009 426 990 q 504 1027 471 1027 q 560 1009 536 1027 q 583 949 583 990 q 560 890 583 910 q 504 871 536 871 q 449 890 471 871 q 426 949 426 910 z "},"Ā":{"ha":918,"x_min":0,"x_max":918,"o":"m 745 0 l 648 275 l 269 275 l 172 0 l 0 0 l 369 996 l 549 996 l 918 0 l 745 0 m 606 415 l 511 686 q 496 736 506 704 q 475 802 486 768 q 458 859 465 836 q 442 797 452 831 q 423 732 432 762 q 409 686 414 703 l 314 415 l 606 415 m 675 1201 l 675 1084 l 242 1084 l 242 1201 l 675 1201 z "},"ā":{"ha":806,"x_min":61,"x_max":696,"o":"m 408 765 q 624 702 551 765 q 696 505 696 639 l 696 0 l 583 0 l 553 106 l 547 106 q 481 39 515 66 q 403 0 448 13 q 295 -14 359 -14 q 175 11 228 -14 q 92 87 122 36 q 61 216 61 138 q 148 390 61 332 q 409 454 234 448 l 539 459 l 539 498 q 503 610 539 576 q 401 643 467 643 q 292 627 345 643 q 189 587 239 610 l 137 699 q 262 747 192 728 q 408 765 332 765 m 538 359 l 441 355 q 274 315 322 351 q 226 214 226 278 q 259 133 226 159 q 347 108 292 108 q 484 155 429 108 q 538 294 538 202 l 538 359 m 620 960 l 620 842 l 186 842 l 186 960 l 620 960 z "},"Ă":{"ha":918,"x_min":0,"x_max":918,"o":"m 745 0 l 648 275 l 269 275 l 172 0 l 0 0 l 369 996 l 549 996 l 918 0 l 745 0 m 606 415 l 511 686 q 496 736 506 704 q 475 802 486 768 q 458 859 465 836 q 442 797 452 831 q 423 732 432 762 q 409 686 414 703 l 314 415 l 606 415 m 702 1289 q 667 1182 697 1228 q 584 1109 636 1135 q 460 1083 532 1083 q 290 1139 351 1083 q 224 1289 230 1195 l 317 1289 q 340 1232 321 1251 q 390 1207 359 1213 q 463 1201 422 1201 q 529 1208 497 1201 q 582 1234 560 1215 q 607 1289 603 1253 l 702 1289 z "},"ă":{"ha":806,"x_min":61,"x_max":696,"o":"m 408 765 q 624 702 551 765 q 696 505 696 639 l 696 0 l 583 0 l 553 106 l 547 106 q 481 39 515 66 q 403 0 448 13 q 295 -14 359 -14 q 175 11 228 -14 q 92 87 122 36 q 61 216 61 138 q 148 390 61 332 q 409 454 234 448 l 539 459 l 539 498 q 503 610 539 576 q 401 643 467 643 q 292 627 345 643 q 189 587 239 610 l 137 699 q 262 747 192 728 q 408 765 332 765 m 538 359 l 441 355 q 274 315 322 351 q 226 214 226 278 q 259 133 226 159 q 347 108 292 108 q 484 155 429 108 q 538 294 538 202 l 538 359 m 646 1048 q 611 940 642 987 q 528 868 581 894 q 405 842 476 842 q 235 898 295 842 q 169 1048 174 954 l 262 1048 q 284 991 266 1010 q 335 966 303 972 q 407 960 366 960 q 473 967 441 960 q 526 993 505 974 q 551 1048 547 1012 l 646 1048 z "},"Ą":{"ha":918,"x_min":0,"x_max":918,"o":"m 745 0 l 648 275 l 269 275 l 172 0 l 0 0 l 369 996 l 549 996 l 918 0 l 745 0 m 606 415 l 511 686 q 496 736 506 704 q 475 802 486 768 q 458 859 465 836 q 442 797 452 831 q 423 732 432 762 q 409 686 414 703 l 314 415 l 606 415 m 772 -159 q 789 -204 772 -189 q 832 -219 805 -219 q 873 -215 854 -219 q 904 -208 892 -212 l 904 -305 q 861 -315 884 -311 q 809 -319 839 -319 q 694 -280 734 -319 q 654 -177 654 -241 q 674 -100 654 -137 q 727 -32 694 -63 q 795 22 759 0 l 871 0 q 799 -81 825 -44 q 772 -159 772 -119 z "},"ą":{"ha":806,"x_min":61,"x_max":722,"o":"m 408 765 q 624 702 551 765 q 696 505 696 639 l 696 0 l 583 0 l 553 106 l 547 106 q 481 39 515 66 q 403 0 448 13 q 295 -14 359 -14 q 175 11 228 -14 q 92 87 122 36 q 61 216 61 138 q 148 390 61 332 q 409 454 234 448 l 539 459 l 539 498 q 503 610 539 576 q 401 643 467 643 q 292 627 345 643 q 189 587 239 610 l 137 699 q 262 747 192 728 q 408 765 332 765 m 538 359 l 441 355 q 274 315 322 351 q 226 214 226 278 q 259 133 226 159 q 347 108 292 108 q 484 155 429 108 q 538 294 538 202 l 538 359 m 590 -159 q 606 -204 590 -189 q 650 -219 623 -219 q 691 -215 672 -219 q 722 -208 709 -212 l 722 -305 q 679 -315 701 -311 q 627 -319 656 -319 q 512 -280 552 -319 q 472 -177 472 -241 q 492 -100 472 -137 q 544 -32 512 -63 q 613 22 576 0 l 689 0 q 616 -81 642 -44 q 590 -159 590 -119 z "},"Ć":{"ha":880,"x_min":83,"x_max":834,"o":"m 553 867 q 426 842 481 867 q 331 767 370 816 q 272 650 292 719 q 252 495 252 581 q 284 297 252 380 q 383 169 317 214 q 551 125 450 125 q 674 137 614 125 q 798 170 734 149 l 798 32 q 675 -3 737 8 q 533 -14 614 -14 q 281 50 381 -14 q 132 227 181 113 q 83 496 83 342 q 114 702 83 608 q 205 864 145 795 q 352 969 264 932 q 553 1006 440 1006 q 700 989 628 1006 q 834 942 772 972 l 777 808 q 669 850 726 832 q 553 867 613 867 m 757 1305 l 757 1292 q 713 1245 741 1272 q 652 1187 685 1217 q 588 1129 620 1157 q 530 1083 556 1102 l 424 1083 l 424 1101 q 474 1162 446 1126 q 528 1236 501 1198 q 573 1305 555 1274 l 757 1305 z "},"ć":{"ha":690,"x_min":70,"x_max":646,"o":"m 416 -14 q 232 28 310 -14 q 112 155 154 69 q 70 372 70 240 q 116 595 70 509 q 244 724 162 682 q 431 765 326 765 q 553 752 498 765 q 646 720 608 739 l 598 592 q 513 621 557 609 q 430 632 470 632 q 320 603 364 632 q 255 516 277 574 q 234 373 234 458 q 256 234 234 290 q 320 148 277 177 q 425 119 363 119 q 536 134 487 119 q 628 173 585 149 l 628 35 q 536 -2 585 10 q 416 -14 488 -14 m 629 1064 l 629 1050 q 585 1003 612 1031 q 524 946 557 976 q 460 888 492 916 q 402 842 428 861 l 296 842 l 296 859 q 346 921 318 885 q 400 995 373 957 q 445 1064 427 1033 l 629 1064 z "},"Ĉ":{"ha":880,"x_min":83,"x_max":834,"o":"m 553 867 q 426 842 481 867 q 331 767 370 816 q 272 650 292 719 q 252 495 252 581 q 284 297 252 380 q 383 169 317 214 q 551 125 450 125 q 674 137 614 125 q 798 170 734 149 l 798 32 q 675 -3 737 8 q 533 -14 614 -14 q 281 50 381 -14 q 132 227 181 113 q 83 496 83 342 q 114 702 83 608 q 205 864 145 795 q 352 969 264 932 q 553 1006 440 1006 q 700 989 628 1006 q 834 942 772 972 l 777 808 q 669 850 726 832 q 553 867 613 867 m 616 1305 q 665 1236 634 1274 q 729 1162 696 1198 q 789 1100 763 1126 l 789 1083 l 680 1083 q 603 1138 644 1106 q 526 1208 562 1171 q 449 1139 489 1171 q 374 1083 410 1107 l 266 1083 l 266 1100 q 325 1162 292 1126 q 389 1236 358 1198 q 437 1305 419 1274 l 616 1305 z "},"ĉ":{"ha":690,"x_min":70,"x_max":660,"o":"m 416 -14 q 232 28 310 -14 q 112 155 154 69 q 70 372 70 240 q 116 595 70 509 q 244 724 162 682 q 431 765 326 765 q 553 752 498 765 q 646 720 608 739 l 598 592 q 513 621 557 609 q 430 632 470 632 q 320 603 364 632 q 255 516 277 574 q 234 373 234 458 q 256 234 234 290 q 320 148 277 177 q 425 119 363 119 q 536 134 487 119 q 628 173 585 149 l 628 35 q 536 -2 585 10 q 416 -14 488 -14 m 488 1064 q 537 995 506 1033 q 601 921 568 957 q 661 859 635 884 l 661 842 l 552 842 q 474 897 515 865 q 397 966 433 929 q 321 897 361 929 q 245 842 281 865 l 138 842 l 138 859 q 197 921 163 885 q 260 995 230 957 q 309 1064 291 1033 l 488 1064 z "},"Ċ":{"ha":880,"x_min":83,"x_max":834,"o":"m 553 867 q 426 842 481 867 q 331 767 370 816 q 272 650 292 719 q 252 495 252 581 q 284 297 252 380 q 383 169 317 214 q 551 125 450 125 q 674 137 614 125 q 798 170 734 149 l 798 32 q 675 -3 737 8 q 533 -14 614 -14 q 281 50 381 -14 q 132 227 181 113 q 83 496 83 342 q 114 702 83 608 q 205 864 145 795 q 352 969 264 932 q 553 1006 440 1006 q 700 989 628 1006 q 834 942 772 972 l 777 808 q 669 850 726 832 q 553 867 613 867 m 528 1280 q 591 1260 565 1280 q 618 1192 618 1240 q 591 1125 618 1145 q 528 1105 565 1105 q 464 1125 490 1105 q 437 1192 437 1145 q 464 1260 437 1240 q 528 1280 490 1280 z "},"ċ":{"ha":690,"x_min":70,"x_max":646,"o":"m 416 -14 q 232 28 310 -14 q 112 155 154 69 q 70 372 70 240 q 116 595 70 509 q 244 724 162 682 q 431 765 326 765 q 553 752 498 765 q 646 720 608 739 l 598 592 q 513 621 557 609 q 430 632 470 632 q 320 603 364 632 q 255 516 277 574 q 234 373 234 458 q 256 234 234 290 q 320 148 277 177 q 425 119 363 119 q 536 134 487 119 q 628 173 585 149 l 628 35 q 536 -2 585 10 q 416 -14 488 -14 m 399 1038 q 463 1019 436 1038 q 489 951 489 999 q 463 883 489 903 q 399 863 436 863 q 335 883 361 863 q 309 951 309 903 q 335 1019 309 999 q 399 1038 361 1038 z "},"Č":{"ha":880,"x_min":83,"x_max":834,"o":"m 553 867 q 426 842 481 867 q 331 767 370 816 q 272 650 292 719 q 252 495 252 581 q 284 297 252 380 q 383 169 317 214 q 551 125 450 125 q 674 137 614 125 q 798 170 734 149 l 798 32 q 675 -3 737 8 q 533 -14 614 -14 q 281 50 381 -14 q 132 227 181 113 q 83 496 83 342 q 114 702 83 608 q 205 864 145 795 q 352 969 264 932 q 553 1006 440 1006 q 700 989 628 1006 q 834 942 772 972 l 777 808 q 669 850 726 832 q 553 867 613 867 m 437 1083 q 388 1152 418 1114 q 324 1225 357 1190 q 265 1288 291 1261 l 265 1305 l 373 1305 q 449 1249 409 1281 q 525 1179 490 1217 q 602 1249 561 1217 q 680 1305 643 1282 l 788 1305 l 788 1288 q 729 1226 762 1262 q 664 1152 695 1190 q 615 1083 633 1114 l 437 1083 z "},"č":{"ha":690,"x_min":70,"x_max":659,"o":"m 416 -14 q 232 28 310 -14 q 112 155 154 69 q 70 372 70 240 q 116 595 70 509 q 244 724 162 682 q 431 765 326 765 q 553 752 498 765 q 646 720 608 739 l 598 592 q 513 621 557 609 q 430 632 470 632 q 320 603 364 632 q 255 516 277 574 q 234 373 234 458 q 256 234 234 290 q 320 148 277 177 q 425 119 363 119 q 536 134 487 119 q 628 173 585 149 l 628 35 q 536 -2 585 10 q 416 -14 488 -14 m 309 842 q 259 910 290 873 q 196 984 229 948 q 137 1046 163 1020 l 137 1064 l 245 1064 q 321 1007 281 1040 q 397 938 361 975 q 474 1008 433 975 q 551 1064 515 1040 l 660 1064 l 660 1046 q 601 984 634 1021 q 536 910 567 948 q 487 842 505 873 l 309 842 z "},"Ď":{"ha":1018,"x_min":130,"x_max":935,"o":"m 935 505 q 873 225 935 338 q 692 57 810 113 q 406 0 573 0 l 130 0 l 130 991 l 435 991 q 701 936 589 991 q 874 773 813 881 q 935 505 935 665 m 766 500 q 727 701 766 623 q 615 818 689 780 q 432 857 541 857 l 293 857 l 293 136 l 408 136 q 677 228 588 136 q 766 500 766 319 m 418 1083 q 369 1152 400 1114 q 306 1225 338 1190 q 247 1288 273 1261 l 247 1305 l 355 1305 q 431 1249 391 1281 q 507 1179 471 1217 q 584 1249 543 1217 q 661 1305 625 1282 l 770 1305 l 770 1288 q 710 1226 744 1262 q 646 1152 677 1190 q 597 1083 615 1114 l 418 1083 z "},"ď":{"ha":865,"x_min":70,"x_max":998,"o":"m 366 -14 q 151 84 232 -14 q 70 374 70 182 q 152 666 70 567 q 370 765 235 765 q 469 750 427 765 q 543 709 512 734 q 595 651 574 683 l 603 651 q 595 712 600 672 q 591 785 591 751 l 591 1055 l 751 1055 l 751 0 l 626 0 l 597 102 l 591 102 q 539 44 570 70 q 466 2 509 18 q 366 -14 424 -14 m 411 116 q 555 175 513 116 q 599 352 597 234 l 599 373 q 558 567 599 499 q 410 634 517 634 q 278 565 323 634 q 233 371 233 495 q 278 181 233 247 q 411 116 323 116 m 998 1055 l 998 1043 q 972 979 988 1015 q 935 905 956 943 q 892 833 915 867 l 802 833 l 802 850 q 815 896 808 870 q 828 950 821 922 q 839 1006 834 979 q 846 1055 844 1033 l 998 1055 z "},"Đ":{"ha":1018,"x_min":36,"x_max":935,"o":"m 435 991 q 701 936 589 991 q 874 773 813 881 q 935 505 935 665 q 873 225 935 338 q 692 57 810 113 q 405 0 573 0 l 135 0 l 135 422 l 36 422 l 36 559 l 135 559 l 135 991 l 435 991 m 431 857 l 297 857 l 297 559 l 504 559 l 504 422 l 297 422 l 297 136 l 408 136 q 676 228 587 136 q 766 500 766 319 q 727 701 766 623 q 613 818 688 780 q 431 857 538 857 z "},"đ":{"ha":877,"x_min":70,"x_max":856,"o":"m 366 -14 q 151 82 232 -14 q 70 361 70 177 q 152 647 70 551 q 370 742 235 742 q 469 727 426 742 q 543 686 511 712 q 595 628 574 661 l 603 628 q 595 695 599 654 q 591 766 591 736 l 591 828 l 334 828 l 334 938 l 591 938 l 591 1055 l 751 1055 l 751 938 l 856 938 l 856 828 l 751 828 l 751 0 l 625 0 l 597 102 l 590 102 q 539 44 570 70 q 466 2 509 18 q 366 -14 423 -14 m 412 116 q 555 172 513 116 q 598 342 597 229 l 598 362 q 558 547 598 484 q 410 611 517 611 q 278 545 323 611 q 233 360 233 479 q 278 179 233 241 q 412 116 323 116 z "},"Ē":{"ha":775,"x_min":130,"x_max":692,"o":"m 692 0 l 130 0 l 130 991 l 692 991 l 692 854 l 293 854 l 293 585 l 667 585 l 667 449 l 293 449 l 293 138 l 692 138 l 692 0 m 639 1201 l 639 1084 l 205 1084 l 205 1201 l 639 1201 z "},"ē":{"ha":800,"x_min":70,"x_max":734,"o":"m 413 765 q 585 724 513 765 q 696 606 657 682 q 734 425 734 530 l 734 339 l 233 339 q 292 171 236 230 q 449 112 348 112 q 578 126 521 112 q 696 167 635 140 l 696 37 q 582 -1 640 11 q 442 -14 524 -14 q 248 30 332 -14 q 117 158 164 73 q 70 370 70 243 q 113 585 70 496 q 233 719 155 673 q 413 765 310 765 m 413 645 q 291 596 338 645 q 237 453 245 547 l 578 453 q 560 553 578 509 q 506 621 542 596 q 413 645 469 645 m 621 960 l 621 842 l 187 842 l 187 960 l 621 960 z "},"Ĕ":{"ha":775,"x_min":130,"x_max":692,"o":"m 692 0 l 130 0 l 130 991 l 692 991 l 692 854 l 293 854 l 293 585 l 667 585 l 667 449 l 293 449 l 293 138 l 692 138 l 692 0 m 665 1289 q 629 1182 660 1228 q 547 1109 599 1135 q 423 1083 494 1083 q 253 1139 313 1083 q 187 1289 193 1195 l 280 1289 q 303 1232 284 1251 q 353 1207 321 1213 q 425 1201 385 1201 q 491 1208 460 1201 q 544 1234 523 1215 q 570 1289 566 1253 l 665 1289 z "},"ĕ":{"ha":800,"x_min":70,"x_max":734,"o":"m 413 765 q 585 724 513 765 q 696 606 657 682 q 734 425 734 530 l 734 339 l 233 339 q 292 171 236 230 q 449 112 348 112 q 578 126 521 112 q 696 167 635 140 l 696 37 q 582 -1 640 11 q 442 -14 524 -14 q 248 30 332 -14 q 117 158 164 73 q 70 370 70 243 q 113 585 70 496 q 233 719 155 673 q 413 765 310 765 m 413 645 q 291 596 338 645 q 237 453 245 547 l 578 453 q 560 553 578 509 q 506 621 542 596 q 413 645 469 645 m 647 1048 q 612 940 642 987 q 529 868 581 894 q 406 842 477 842 q 235 898 296 842 q 170 1048 175 954 l 262 1048 q 285 991 267 1010 q 335 966 304 972 q 408 960 367 960 q 474 967 442 960 q 527 993 505 974 q 552 1048 548 1012 l 647 1048 z "},"Ė":{"ha":775,"x_min":130,"x_max":692,"o":"m 692 0 l 130 0 l 130 991 l 692 991 l 692 854 l 293 854 l 293 585 l 667 585 l 667 449 l 293 449 l 293 138 l 692 138 l 692 0 m 424 1280 q 488 1260 461 1280 q 514 1192 514 1240 q 488 1125 514 1145 q 424 1105 461 1105 q 360 1125 386 1105 q 334 1192 334 1145 q 360 1260 334 1240 q 424 1280 386 1280 z "},"ė":{"ha":800,"x_min":70,"x_max":734,"o":"m 413 765 q 585 724 513 765 q 696 606 657 682 q 734 425 734 530 l 734 339 l 233 339 q 292 171 236 230 q 449 112 348 112 q 578 126 521 112 q 696 167 635 140 l 696 37 q 582 -1 640 11 q 442 -14 524 -14 q 248 30 332 -14 q 117 158 164 73 q 70 370 70 243 q 113 585 70 496 q 233 719 155 673 q 413 765 310 765 m 413 645 q 291 596 338 645 q 237 453 245 547 l 578 453 q 560 553 578 509 q 506 621 542 596 q 413 645 469 645 m 406 1038 q 469 1019 443 1038 q 496 951 496 999 q 469 883 496 903 q 406 863 443 863 q 341 883 368 863 q 315 951 315 903 q 341 1019 315 999 q 406 1038 368 1038 z "},"Ę":{"ha":775,"x_min":130,"x_max":692,"o":"m 692 0 l 130 0 l 130 991 l 692 991 l 692 854 l 293 854 l 293 585 l 667 585 l 667 449 l 293 449 l 293 138 l 692 138 l 692 0 m 557 -159 q 573 -204 557 -189 q 616 -219 589 -219 q 657 -215 639 -219 q 688 -208 676 -212 l 688 -305 q 646 -315 668 -311 q 593 -319 623 -319 q 479 -280 519 -319 q 439 -177 439 -241 q 459 -100 439 -137 q 511 -32 479 -63 q 580 22 543 0 l 656 0 q 583 -81 609 -44 q 557 -159 557 -119 z "},"ę":{"ha":800,"x_min":70,"x_max":734,"o":"m 554 -159 q 570 -204 554 -189 q 614 -219 587 -219 q 654 -215 635 -219 q 686 -208 673 -212 l 686 -305 q 643 -315 665 -311 q 591 -319 621 -319 q 476 -280 516 -319 q 436 -177 436 -241 q 456 -100 436 -137 q 509 -32 476 -63 q 577 23 541 0 l 696 37 q 610 -43 641 -9 q 567 -105 579 -77 q 554 -159 554 -132 m 413 765 q 585 724 513 765 q 696 606 657 682 q 734 425 734 530 l 734 339 l 233 339 q 292 171 236 230 q 449 112 348 112 q 578 126 521 112 q 696 167 635 140 l 696 37 q 582 -1 640 11 q 442 -14 524 -14 q 248 30 332 -14 q 117 158 164 73 q 70 370 70 243 q 113 585 70 496 q 233 719 155 673 q 413 765 310 765 m 413 645 q 291 596 338 645 q 237 453 245 547 l 578 453 q 560 553 578 509 q 506 621 542 596 q 413 645 469 645 z "},"Ě":{"ha":775,"x_min":130,"x_max":692,"o":"m 692 0 l 130 0 l 130 991 l 692 991 l 692 854 l 293 854 l 293 585 l 667 585 l 667 449 l 293 449 l 293 138 l 692 138 l 692 0 m 333 1083 q 284 1152 315 1114 q 220 1225 253 1190 q 161 1288 187 1261 l 161 1305 l 269 1305 q 346 1249 305 1281 q 421 1179 386 1217 q 498 1249 457 1217 q 576 1305 539 1282 l 684 1305 l 684 1288 q 625 1226 659 1262 q 561 1152 591 1190 q 511 1083 530 1114 l 333 1083 z "},"ě":{"ha":800,"x_min":70,"x_max":734,"o":"m 413 765 q 585 724 513 765 q 696 606 657 682 q 734 425 734 530 l 734 339 l 233 339 q 292 171 236 230 q 449 112 348 112 q 578 126 521 112 q 696 167 635 140 l 696 37 q 582 -1 640 11 q 442 -14 524 -14 q 248 30 332 -14 q 117 158 164 73 q 70 370 70 243 q 113 585 70 496 q 233 719 155 673 q 413 765 310 765 m 413 645 q 291 596 338 645 q 237 453 245 547 l 578 453 q 560 553 578 509 q 506 621 542 596 q 413 645 469 645 m 315 842 q 266 910 296 873 q 202 984 235 948 q 143 1046 169 1020 l 143 1064 l 251 1064 q 327 1007 287 1040 q 403 938 368 975 q 480 1008 439 975 q 557 1064 521 1040 l 666 1064 l 666 1046 q 607 984 640 1021 q 542 910 573 948 q 493 842 511 873 l 315 842 z "},"Ĝ":{"ha":1008,"x_min":83,"x_max":901,"o":"m 530 538 l 901 538 l 901 41 q 739 1 823 15 q 552 -14 656 -14 q 296 46 401 -14 q 137 221 191 106 q 83 496 83 335 q 143 766 83 652 q 319 943 203 880 q 598 1006 434 1006 q 754 990 679 1006 q 893 946 830 974 l 836 812 q 724 852 786 836 q 594 868 661 868 q 411 822 488 868 q 292 692 334 776 q 251 494 251 608 q 284 300 251 384 q 388 171 317 217 q 572 124 459 124 q 667 130 628 124 q 740 144 707 136 l 740 399 l 530 399 l 530 538 m 649 1305 q 698 1236 667 1274 q 763 1162 729 1198 q 822 1100 796 1126 l 822 1083 l 713 1083 q 636 1138 677 1106 q 559 1208 595 1171 q 483 1139 522 1171 q 407 1083 443 1107 l 299 1083 l 299 1100 q 358 1162 325 1126 q 422 1236 391 1198 q 471 1305 452 1274 l 649 1305 z "},"ĝ":{"ha":770,"x_min":13,"x_max":747,"o":"m 328 -334 q 94 -279 176 -334 q 13 -125 13 -224 q 56 -8 13 -56 q 180 58 100 40 q 128 101 150 72 q 106 165 106 130 q 130 237 106 207 q 201 294 153 267 q 106 376 142 319 q 71 509 71 433 q 105 648 71 591 q 206 735 140 705 q 367 766 273 766 q 411 763 387 766 q 456 758 435 761 q 488 751 477 755 l 747 751 l 747 663 l 620 639 q 649 580 638 613 q 660 509 660 547 q 579 325 660 392 q 358 258 499 258 q 292 264 324 260 q 255 231 268 249 q 242 191 242 213 q 255 161 242 172 q 293 144 268 150 q 355 139 319 139 l 485 139 q 673 87 608 139 q 739 -66 739 35 q 633 -264 739 -195 q 328 -334 527 -334 m 334 -222 q 475 -205 418 -222 q 561 -159 532 -189 q 590 -87 590 -129 q 572 -31 590 -51 q 517 -4 553 -12 q 426 3 480 3 l 308 3 q 230 -11 264 3 q 177 -51 196 -24 q 159 -115 159 -77 q 204 -194 159 -166 q 334 -222 250 -222 m 366 363 q 469 401 435 363 q 503 509 503 439 q 468 623 503 585 q 365 661 433 661 q 263 623 298 661 q 228 508 228 584 q 263 401 228 439 q 366 363 298 363 m 454 1064 q 503 995 472 1033 q 567 921 534 957 q 627 859 601 884 l 627 842 l 518 842 q 440 897 481 865 q 363 966 399 929 q 287 897 327 929 q 212 842 248 865 l 104 842 l 104 859 q 163 921 130 885 q 227 995 196 957 q 275 1064 257 1033 l 454 1064 z "},"Ğ":{"ha":1008,"x_min":83,"x_max":901,"o":"m 530 538 l 901 538 l 901 41 q 739 1 823 15 q 552 -14 656 -14 q 296 46 401 -14 q 137 221 191 106 q 83 496 83 335 q 143 766 83 652 q 319 943 203 880 q 598 1006 434 1006 q 754 990 679 1006 q 893 946 830 974 l 836 812 q 724 852 786 836 q 594 868 661 868 q 411 822 488 868 q 292 692 334 776 q 251 494 251 608 q 284 300 251 384 q 388 171 317 217 q 572 124 459 124 q 667 130 628 124 q 740 144 707 136 l 740 399 l 530 399 l 530 538 m 802 1289 q 766 1182 797 1228 q 684 1109 736 1135 q 560 1083 631 1083 q 390 1139 450 1083 q 324 1289 330 1195 l 417 1289 q 440 1232 421 1251 q 490 1207 458 1213 q 562 1201 522 1201 q 628 1208 597 1201 q 681 1234 660 1215 q 707 1289 703 1253 l 802 1289 z "},"ğ":{"ha":770,"x_min":13,"x_max":747,"o":"m 328 -334 q 94 -279 176 -334 q 13 -125 13 -224 q 56 -8 13 -56 q 180 58 100 40 q 128 101 150 72 q 106 165 106 130 q 130 237 106 207 q 201 294 153 267 q 106 376 142 319 q 71 509 71 433 q 105 648 71 591 q 206 735 140 705 q 367 766 273 766 q 411 763 387 766 q 456 758 435 761 q 488 751 477 755 l 747 751 l 747 663 l 620 639 q 649 580 638 613 q 660 509 660 547 q 579 325 660 392 q 358 258 499 258 q 292 264 324 260 q 255 231 268 249 q 242 191 242 213 q 255 161 242 172 q 293 144 268 150 q 355 139 319 139 l 485 139 q 673 87 608 139 q 739 -66 739 35 q 633 -264 739 -195 q 328 -334 527 -334 m 334 -222 q 475 -205 418 -222 q 561 -159 532 -189 q 590 -87 590 -129 q 572 -31 590 -51 q 517 -4 553 -12 q 426 3 480 3 l 308 3 q 230 -11 264 3 q 177 -51 196 -24 q 159 -115 159 -77 q 204 -194 159 -166 q 334 -222 250 -222 m 366 363 q 469 401 435 363 q 503 509 503 439 q 468 623 503 585 q 365 661 433 661 q 263 623 298 661 q 228 508 228 584 q 263 401 228 439 q 366 363 298 363 m 604 1048 q 568 940 599 987 q 486 868 538 894 q 362 842 433 842 q 192 898 252 842 q 126 1048 132 954 l 219 1048 q 242 991 223 1010 q 292 966 260 972 q 364 960 323 960 q 430 967 399 960 q 483 993 462 974 q 509 1048 505 1012 l 604 1048 z "},"Ġ":{"ha":1008,"x_min":83,"x_max":901,"o":"m 530 538 l 901 538 l 901 41 q 739 1 823 15 q 552 -14 656 -14 q 296 46 401 -14 q 137 221 191 106 q 83 496 83 335 q 143 766 83 652 q 319 943 203 880 q 598 1006 434 1006 q 754 990 679 1006 q 893 946 830 974 l 836 812 q 724 852 786 836 q 594 868 661 868 q 411 822 488 868 q 292 692 334 776 q 251 494 251 608 q 284 300 251 384 q 388 171 317 217 q 572 124 459 124 q 667 130 628 124 q 740 144 707 136 l 740 399 l 530 399 l 530 538 m 561 1280 q 625 1260 598 1280 q 651 1192 651 1240 q 625 1125 651 1145 q 561 1105 598 1105 q 497 1125 523 1105 q 471 1192 471 1145 q 497 1260 471 1240 q 561 1280 523 1280 z "},"ġ":{"ha":770,"x_min":13,"x_max":747,"o":"m 328 -334 q 94 -279 176 -334 q 13 -125 13 -224 q 56 -8 13 -56 q 180 58 100 40 q 128 101 150 72 q 106 165 106 130 q 130 237 106 207 q 201 294 153 267 q 106 376 142 319 q 71 509 71 433 q 105 648 71 591 q 206 735 140 705 q 367 766 273 766 q 411 763 387 766 q 456 758 435 761 q 488 751 477 755 l 747 751 l 747 663 l 620 639 q 649 580 638 613 q 660 509 660 547 q 579 325 660 392 q 358 258 499 258 q 292 264 324 260 q 255 231 268 249 q 242 191 242 213 q 255 161 242 172 q 293 144 268 150 q 355 139 319 139 l 485 139 q 673 87 608 139 q 739 -66 739 35 q 633 -264 739 -195 q 328 -334 527 -334 m 334 -222 q 475 -205 418 -222 q 561 -159 532 -189 q 590 -87 590 -129 q 572 -31 590 -51 q 517 -4 553 -12 q 426 3 480 3 l 308 3 q 230 -11 264 3 q 177 -51 196 -24 q 159 -115 159 -77 q 204 -194 159 -166 q 334 -222 250 -222 m 366 363 q 469 401 435 363 q 503 509 503 439 q 468 623 503 585 q 365 661 433 661 q 263 623 298 661 q 228 508 228 584 q 263 401 228 439 q 366 363 298 363 m 366 1038 q 429 1019 403 1038 q 456 951 456 999 q 429 883 456 903 q 366 863 403 863 q 301 883 328 863 q 275 951 275 903 q 301 1019 275 999 q 366 1038 328 1038 z "},"Ģ":{"ha":1008,"x_min":83,"x_max":901,"o":"m 530 538 l 901 538 l 901 41 q 739 1 823 15 q 552 -14 656 -14 q 296 46 401 -14 q 137 221 191 106 q 83 496 83 335 q 143 766 83 652 q 319 943 203 880 q 598 1006 434 1006 q 754 990 679 1006 q 893 946 830 974 l 836 812 q 724 852 786 836 q 594 868 661 868 q 411 822 488 868 q 292 692 334 776 q 251 494 251 608 q 284 300 251 384 q 388 171 317 217 q 572 124 459 124 q 667 130 628 124 q 740 144 707 136 l 740 399 l 530 399 l 530 538 m 649 -85 l 649 -97 q 622 -162 639 -125 q 584 -236 606 -198 q 539 -307 563 -273 l 448 -307 l 448 -290 q 467 -228 457 -264 q 486 -153 477 -191 q 498 -85 494 -115 l 649 -85 z "},"ģ":{"ha":770,"x_min":13,"x_max":747,"o":"m 472 1064 l 472 1047 q 452 985 463 1022 q 434 910 442 948 q 421 842 425 871 l 270 842 l 270 855 q 297 919 281 883 q 335 992 313 955 q 380 1064 356 1030 l 472 1064 m 328 -334 q 94 -279 176 -334 q 13 -125 13 -224 q 56 -8 13 -56 q 180 58 100 40 q 128 101 150 72 q 106 165 106 130 q 130 237 106 207 q 201 294 153 267 q 106 376 142 319 q 71 509 71 433 q 105 648 71 591 q 206 735 140 705 q 367 766 273 766 q 411 763 387 766 q 456 758 435 761 q 488 751 477 755 l 747 751 l 747 663 l 620 639 q 649 580 638 613 q 660 509 660 547 q 579 325 660 392 q 358 258 499 258 q 292 264 324 260 q 255 231 268 249 q 242 191 242 213 q 255 161 242 172 q 293 144 268 150 q 355 139 319 139 l 485 139 q 673 87 608 139 q 739 -66 739 35 q 633 -264 739 -195 q 328 -334 527 -334 m 334 -222 q 475 -205 418 -222 q 561 -159 532 -189 q 590 -87 590 -129 q 572 -31 590 -51 q 517 -4 553 -12 q 426 3 480 3 l 308 3 q 230 -11 264 3 q 177 -51 196 -24 q 159 -115 159 -77 q 204 -194 159 -166 q 334 -222 250 -222 m 366 363 q 469 401 435 363 q 503 509 503 439 q 468 623 503 585 q 365 661 433 661 q 263 623 298 661 q 228 508 228 584 q 263 401 228 439 q 366 363 298 363 z "},"Ĥ":{"ha":1044,"x_min":130,"x_max":912,"o":"m 912 0 l 750 0 l 750 448 l 293 448 l 293 0 l 130 0 l 130 991 l 293 991 l 293 586 l 750 586 l 750 991 l 912 991 l 912 0 m 613 1305 q 662 1236 631 1274 q 727 1162 693 1198 q 786 1100 760 1126 l 786 1083 l 677 1083 q 600 1138 641 1106 q 523 1208 559 1171 q 447 1139 486 1171 q 371 1083 407 1107 l 263 1083 l 263 1100 q 322 1162 289 1126 q 386 1236 355 1198 q 435 1305 416 1274 l 613 1305 z "},"ĥ":{"ha":882,"x_min":-64,"x_max":774,"o":"m 273 1055 l 273 790 q 271 709 273 749 q 266 648 269 670 l 275 648 q 333 713 298 688 q 411 751 368 739 q 503 764 454 764 q 649 735 589 764 q 742 646 709 707 q 774 490 774 586 l 774 0 l 614 0 l 614 460 q 578 591 614 547 q 467 635 543 635 q 352 605 395 635 q 292 516 310 574 q 273 373 273 457 l 273 0 l 114 0 l 114 1055 l 273 1055 m 286 1369 q 335 1300 304 1338 q 400 1226 366 1262 q 459 1164 433 1190 l 459 1147 l 351 1147 q 273 1202 314 1170 q 196 1272 232 1234 q 120 1202 159 1234 q 44 1147 80 1171 l -64 1147 l -64 1164 q -5 1226 -38 1190 q 59 1300 28 1262 q 108 1369 90 1338 l 286 1369 z "},"Ħ":{"ha":1044,"x_min":0,"x_max":1043,"o":"m 130 0 l 130 728 l 0 728 l 0 842 l 130 842 l 130 991 l 293 991 l 293 842 l 750 842 l 750 991 l 912 991 l 912 842 l 1043 842 l 1043 728 l 912 728 l 912 0 l 750 0 l 750 448 l 293 448 l 293 0 l 130 0 m 293 586 l 750 586 l 750 728 l 293 728 l 293 586 z "},"ħ":{"ha":882,"x_min":8,"x_max":774,"o":"m 273 1055 l 273 937 l 530 937 l 530 827 l 273 827 l 273 757 q 271 676 273 715 q 266 615 269 637 l 275 615 q 334 680 299 654 q 411 719 368 706 q 504 732 454 732 q 650 703 589 732 q 742 613 710 674 q 774 456 774 553 l 774 0 l 614 0 l 614 427 q 578 558 614 514 q 467 602 543 602 q 352 571 395 602 q 292 483 310 541 q 273 340 273 425 l 273 0 l 114 0 l 114 827 l 8 827 l 8 937 l 114 937 l 114 1055 l 273 1055 z "},"Ĩ":{"ha":424,"x_min":-53,"x_max":480,"o":"m 130 0 l 130 991 l 293 991 l 293 0 l 130 0 m -53 1084 q -35 1167 -49 1131 q 0 1226 -22 1202 q 51 1263 22 1251 q 114 1275 80 1275 q 171 1263 144 1275 q 225 1237 199 1252 q 276 1210 251 1221 q 323 1198 300 1198 q 369 1217 350 1198 q 397 1276 387 1236 l 480 1276 q 427 1134 472 1183 q 313 1084 381 1084 q 257 1096 285 1084 q 204 1123 230 1108 q 153 1149 178 1138 q 104 1161 128 1161 q 59 1142 77 1161 q 31 1084 40 1123 l -53 1084 z "},"ĩ":{"ha":387,"x_min":-75,"x_max":458,"o":"m 273 0 l 114 0 l 114 751 l 273 751 l 273 0 m -75 842 q -57 925 -71 890 q -21 985 -43 961 q 30 1021 1 1009 q 92 1034 58 1034 q 150 1022 122 1034 q 203 995 177 1010 q 254 968 229 980 q 302 957 279 957 q 347 976 328 957 q 375 1035 366 995 l 458 1035 q 405 892 450 941 q 292 843 359 843 q 236 855 263 843 q 182 882 208 867 q 132 908 157 897 q 83 920 106 920 q 37 901 56 920 q 9 842 18 882 l -75 842 z "},"Ī":{"ha":424,"x_min":-4,"x_max":429,"o":"m 130 0 l 130 991 l 293 991 l 293 0 l 130 0 m 429 1201 l 429 1084 l -4 1084 l -4 1201 l 429 1201 z "},"ī":{"ha":387,"x_min":-22,"x_max":411,"o":"m 273 0 l 114 0 l 114 751 l 273 751 l 273 0 m 411 960 l 411 842 l -22 842 l -22 960 l 411 960 z "},"Ĭ":{"ha":424,"x_min":-26,"x_max":451,"o":"m 130 0 l 130 991 l 293 991 l 293 0 l 130 0 m 451 1289 q 416 1182 446 1228 q 333 1109 385 1135 q 210 1083 281 1083 q 39 1139 100 1083 q -26 1289 -21 1195 l 66 1289 q 89 1232 71 1251 q 139 1207 108 1213 q 212 1201 171 1201 q 278 1208 246 1201 q 331 1234 309 1215 q 356 1289 352 1253 l 451 1289 z "},"ĭ":{"ha":387,"x_min":-40,"x_max":437,"o":"m 273 0 l 114 0 l 114 751 l 273 751 l 273 0 m 437 1048 q 402 940 433 987 q 319 868 372 894 q 196 842 267 842 q 26 898 86 842 q -40 1048 -35 954 l 53 1048 q 76 991 57 1010 q 126 966 94 972 q 198 960 157 960 q 264 967 233 960 q 317 993 296 974 q 342 1048 338 1012 l 437 1048 z "},"Į":{"ha":424,"x_min":76,"x_max":326,"o":"m 130 0 l 130 991 l 293 991 l 293 0 l 130 0 m 194 -159 q 210 -204 194 -189 q 254 -219 227 -219 q 295 -215 276 -219 q 326 -208 313 -212 l 326 -305 q 283 -315 305 -311 q 231 -319 260 -319 q 116 -280 156 -319 q 76 -177 76 -241 q 96 -100 76 -137 q 148 -32 116 -63 q 217 22 180 0 l 293 0 q 220 -81 246 -44 q 194 -159 194 -119 z "},"į":{"ha":387,"x_min":48,"x_max":298,"o":"m 273 751 l 273 0 l 114 0 l 114 751 l 273 751 m 195 1038 q 258 1019 231 1038 q 285 951 285 999 q 258 883 285 903 q 195 863 231 863 q 131 883 157 863 q 104 951 104 903 q 131 1019 104 999 q 195 1038 157 1038 m 166 -159 q 182 -204 166 -189 q 226 -219 199 -219 q 267 -215 248 -219 q 298 -208 286 -212 l 298 -305 q 255 -315 277 -311 q 203 -319 233 -319 q 88 -280 128 -319 q 48 -177 48 -241 q 68 -100 48 -137 q 120 -32 88 -63 q 189 22 153 0 l 265 0 q 192 -81 218 -44 q 166 -159 166 -119 z "},"İ":{"ha":424,"x_min":123,"x_max":304,"o":"m 130 0 l 130 991 l 293 991 l 293 0 l 130 0 m 214 1280 q 277 1260 251 1280 q 304 1192 304 1240 q 277 1125 304 1145 q 214 1105 251 1105 q 150 1125 176 1105 q 123 1192 123 1145 q 150 1260 123 1240 q 214 1280 176 1280 z "},"Ĳ":{"ha":840,"x_min":130,"x_max":714,"o":"m 130 0 l 130 991 l 293 991 l 293 0 l 130 0 m 431 -276 q 365 -272 393 -276 q 317 -260 337 -267 l 317 -123 q 363 -133 338 -129 q 417 -137 389 -137 q 485 -123 454 -137 q 533 -71 515 -109 q 551 34 551 -34 l 551 991 l 714 991 l 714 39 q 679 -141 714 -71 q 580 -243 644 -210 q 431 -276 516 -276 z "},"ĳ":{"ha":774,"x_min":104,"x_max":672,"o":"m 273 751 l 273 0 l 114 0 l 114 751 l 273 751 m 195 1038 q 258 1019 231 1038 q 285 951 285 999 q 258 883 285 903 q 195 863 231 863 q 131 883 157 863 q 104 951 104 903 q 131 1019 104 999 q 195 1038 157 1038 m 426 -334 q 359 -329 391 -334 q 305 -317 327 -323 l 305 -189 q 350 -199 328 -196 q 399 -203 372 -203 q 472 -178 444 -203 q 501 -85 501 -154 l 501 751 l 661 751 l 661 -100 q 636 -221 661 -168 q 561 -304 612 -274 q 426 -334 509 -334 m 492 951 q 518 1019 492 999 q 582 1038 544 1038 q 645 1019 618 1038 q 672 951 672 999 q 645 883 672 903 q 582 863 618 863 q 518 883 544 863 q 492 951 492 903 z "},"Ĵ":{"ha":416,"x_min":-107,"x_max":473,"o":"m 7 -276 q -59 -272 -31 -276 q -107 -260 -87 -267 l -107 -123 q -60 -133 -85 -129 q -7 -137 -35 -137 q 61 -123 31 -137 q 110 -71 92 -109 q 127 34 127 -34 l 127 991 l 290 991 l 290 39 q 255 -141 290 -71 q 156 -243 220 -210 q 7 -276 92 -276 m 300 1305 q 349 1236 318 1274 q 413 1162 380 1198 q 473 1100 447 1126 l 473 1083 l 364 1083 q 287 1138 328 1106 q 210 1208 245 1171 q 133 1139 173 1171 q 58 1083 94 1107 l -50 1083 l -50 1100 q 9 1162 -24 1126 q 73 1236 42 1198 q 121 1305 103 1274 l 300 1305 z "},"ĵ":{"ha":387,"x_min":-82,"x_max":457,"o":"m 39 -334 q -28 -329 3 -334 q -82 -317 -60 -323 l -82 -189 q -37 -199 -59 -196 q 12 -203 -16 -203 q 85 -178 56 -203 q 114 -85 114 -154 l 114 751 l 273 751 l 273 -100 q 249 -221 273 -168 q 173 -304 225 -274 q 39 -334 121 -334 m 284 1064 q 333 995 302 1033 q 398 921 364 957 q 457 859 431 884 l 457 842 l 349 842 q 271 897 312 865 q 194 966 230 929 q 118 897 157 929 q 42 842 78 865 l -66 842 l -66 859 q -7 921 -40 885 q 57 995 26 957 q 106 1064 87 1033 l 284 1064 z "},"Ķ":{"ha":886,"x_min":130,"x_max":886,"o":"m 886 0 l 699 0 l 391 450 l 293 371 l 293 0 l 130 0 l 130 991 l 293 991 l 293 517 q 353 591 323 554 q 414 664 384 627 l 694 991 l 878 991 l 507 557 l 886 0 m 569 -85 l 569 -97 q 542 -162 559 -125 q 504 -236 526 -198 q 459 -307 483 -273 l 368 -307 l 368 -290 q 387 -228 377 -264 q 406 -153 397 -191 q 418 -85 414 -115 l 569 -85 z "},"ķ":{"ha":795,"x_min":114,"x_max":790,"o":"m 273 1055 l 273 545 q 271 470 273 511 q 265 393 268 429 l 269 393 q 311 448 286 416 q 358 504 336 480 l 587 751 l 770 751 l 470 428 l 790 0 l 603 0 l 363 330 l 273 253 l 273 0 l 114 0 l 114 1055 l 273 1055 m 499 -85 l 499 -97 q 472 -162 489 -125 q 434 -236 456 -198 q 389 -307 413 -273 l 298 -307 l 298 -290 q 317 -228 307 -264 q 336 -153 327 -191 q 348 -85 345 -115 l 499 -85 z "},"ĸ":{"ha":795,"x_min":114,"x_max":790,"o":"m 770 751 l 479 413 l 790 0 l 605 0 l 374 316 l 277 243 l 277 0 l 114 0 l 114 751 l 277 751 l 277 555 q 275 458 277 506 q 271 374 273 411 l 273 374 q 312 422 292 398 q 350 469 331 446 l 591 751 l 770 751 z "},"Ĺ":{"ha":755,"x_min":109,"x_max":714,"o":"m 130 0 l 130 991 l 293 991 l 293 138 l 714 138 l 714 0 l 130 0 m 441 1305 l 441 1292 q 397 1245 425 1272 q 337 1187 370 1217 q 273 1129 304 1157 q 215 1083 241 1102 l 109 1083 l 109 1101 q 158 1162 131 1126 q 213 1236 186 1198 q 258 1305 239 1274 l 441 1305 z "},"ĺ":{"ha":387,"x_min":92,"x_max":425,"o":"m 274 0 l 114 0 l 114 1055 l 274 1055 l 274 0 m 425 1369 l 425 1356 q 381 1309 409 1336 q 321 1251 353 1281 q 256 1193 288 1221 q 199 1147 224 1166 l 92 1147 l 92 1164 q 142 1226 115 1190 q 196 1300 170 1262 q 241 1369 223 1338 l 425 1369 z "},"Ļ":{"ha":755,"x_min":130,"x_max":714,"o":"m 130 0 l 130 991 l 293 991 l 293 138 l 714 138 l 714 0 l 130 0 m 522 -85 l 522 -97 q 495 -162 511 -125 q 457 -236 478 -198 q 412 -307 435 -273 l 320 -307 l 320 -290 q 339 -228 330 -264 q 358 -153 349 -191 q 370 -85 367 -115 l 522 -85 z "},"ļ":{"ha":387,"x_min":92,"x_max":294,"o":"m 274 0 l 114 0 l 114 1055 l 274 1055 l 274 0 m 294 -85 l 294 -97 q 267 -162 283 -125 q 229 -236 250 -198 q 184 -307 208 -273 l 92 -307 l 92 -290 q 112 -228 102 -264 q 130 -153 121 -191 q 142 -85 139 -115 l 294 -85 z "},"Ľ":{"ha":755,"x_min":130,"x_max":733,"o":"m 130 0 l 130 991 l 293 991 l 293 138 l 714 138 l 714 0 l 130 0 m 733 991 l 733 979 q 707 915 723 951 q 670 841 690 879 q 627 770 650 804 l 536 770 l 536 787 q 550 832 543 806 q 563 886 556 858 q 574 942 569 915 q 581 991 578 969 l 733 991 z "},"ľ":{"ha":387,"x_min":114,"x_max":519,"o":"m 274 0 l 114 0 l 114 1055 l 274 1055 l 274 0 m 519 1055 l 519 1043 q 492 979 509 1015 q 456 905 476 943 q 413 833 435 867 l 322 833 l 322 850 q 335 896 329 870 q 348 950 342 922 q 359 1006 355 979 q 367 1055 364 1033 l 519 1055 z "},"Ŀ":{"ha":755,"x_min":130,"x_max":714,"o":"m 130 0 l 130 991 l 293 991 l 293 138 l 714 138 l 714 0 l 130 0 m 569 610 q 633 591 606 610 q 659 523 659 571 q 633 455 659 475 q 569 435 606 435 q 505 455 531 435 q 479 523 479 475 q 505 591 479 571 q 569 610 531 610 z "},"ŀ":{"ha":433,"x_min":114,"x_max":500,"o":"m 274 0 l 114 0 l 114 1055 l 274 1055 l 274 0 m 410 614 q 473 595 447 614 q 500 527 500 575 q 473 459 500 479 q 410 439 447 439 q 346 459 372 439 q 319 527 319 479 q 346 595 319 575 q 410 614 372 614 z "},"Ł":{"ha":755,"x_min":9,"x_max":714,"o":"m 130 0 l 130 341 l 71 307 l 9 411 l 130 485 l 130 991 l 293 991 l 293 583 l 439 671 l 503 564 l 293 439 l 293 138 l 714 138 l 714 0 l 130 0 z "},"ł":{"ha":387,"x_min":-13,"x_max":402,"o":"m 110 0 l 110 364 l 48 326 l -13 431 l 110 508 l 110 1055 l 270 1055 l 270 608 l 339 654 l 402 549 l 270 464 l 270 0 l 110 0 z "},"Ń":{"ha":1088,"x_min":130,"x_max":958,"o":"m 958 0 l 758 0 l 272 791 l 266 791 q 271 707 269 751 q 275 614 273 662 q 278 518 277 567 l 278 0 l 130 0 l 130 991 l 329 991 l 814 205 l 819 205 q 815 285 817 240 q 811 377 813 330 q 809 470 810 425 l 809 991 l 958 991 l 958 0 m 776 1305 l 776 1292 q 732 1245 760 1272 q 671 1187 704 1217 q 607 1129 639 1157 q 549 1083 575 1102 l 443 1083 l 443 1101 q 493 1162 465 1126 q 547 1236 520 1198 q 592 1305 574 1274 l 776 1305 z "},"ń":{"ha":882,"x_min":114,"x_max":774,"o":"m 505 765 q 703 700 632 765 q 774 490 774 634 l 774 0 l 614 0 l 614 460 q 578 591 614 547 q 467 635 543 635 q 316 568 358 635 q 273 373 273 500 l 273 0 l 114 0 l 114 751 l 238 751 l 260 649 l 269 649 q 330 714 294 688 q 411 752 366 739 q 505 765 456 765 m 674 1064 l 674 1050 q 630 1003 658 1031 q 570 946 602 976 q 505 888 537 916 q 448 842 473 861 l 341 842 l 341 859 q 391 921 363 885 q 445 995 418 957 q 490 1064 472 1033 l 674 1064 z "},"Ņ":{"ha":1088,"x_min":130,"x_max":958,"o":"m 958 0 l 758 0 l 272 791 l 266 791 q 271 707 269 751 q 275 614 273 662 q 278 518 277 567 l 278 0 l 130 0 l 130 991 l 329 991 l 814 205 l 819 205 q 815 285 817 240 q 811 377 813 330 q 809 470 810 425 l 809 991 l 958 991 l 958 0 m 644 -85 l 644 -97 q 617 -162 634 -125 q 579 -236 601 -198 q 534 -307 558 -273 l 443 -307 l 443 -290 q 462 -228 452 -264 q 481 -153 472 -191 q 493 -85 490 -115 l 644 -85 z "},"ņ":{"ha":882,"x_min":114,"x_max":774,"o":"m 505 765 q 703 700 632 765 q 774 490 774 634 l 774 0 l 614 0 l 614 460 q 578 591 614 547 q 467 635 543 635 q 316 568 358 635 q 273 373 273 500 l 273 0 l 114 0 l 114 751 l 238 751 l 260 649 l 269 649 q 330 714 294 688 q 411 752 366 739 q 505 765 456 765 m 542 -85 l 542 -97 q 515 -162 532 -125 q 477 -236 498 -198 q 432 -307 456 -273 l 340 -307 l 340 -290 q 360 -228 350 -264 q 378 -153 370 -191 q 391 -85 387 -115 l 542 -85 z "},"Ň":{"ha":1088,"x_min":130,"x_max":958,"o":"m 958 0 l 758 0 l 272 791 l 266 791 q 271 707 269 751 q 275 614 273 662 q 278 518 277 567 l 278 0 l 130 0 l 130 991 l 329 991 l 814 205 l 819 205 q 815 285 817 240 q 811 377 813 330 q 809 470 810 425 l 809 991 l 958 991 l 958 0 m 456 1083 q 407 1152 438 1114 q 343 1225 376 1190 q 285 1288 311 1261 l 285 1305 l 393 1305 q 469 1249 429 1281 q 545 1179 509 1217 q 622 1249 581 1217 q 699 1305 663 1282 l 808 1305 l 808 1288 q 748 1226 782 1262 q 684 1152 715 1190 q 635 1083 653 1114 l 456 1083 z "},"ň":{"ha":882,"x_min":114,"x_max":774,"o":"m 505 765 q 703 700 632 765 q 774 490 774 634 l 774 0 l 614 0 l 614 460 q 578 591 614 547 q 467 635 543 635 q 316 568 358 635 q 273 373 273 500 l 273 0 l 114 0 l 114 751 l 238 751 l 260 649 l 269 649 q 330 714 294 688 q 411 752 366 739 q 505 765 456 765 m 355 842 q 306 910 336 873 q 242 984 275 948 q 183 1046 209 1020 l 183 1064 l 291 1064 q 367 1007 327 1040 q 443 938 408 975 q 520 1008 479 975 q 597 1064 561 1040 l 706 1064 l 706 1046 q 647 984 680 1021 q 582 910 613 948 q 533 842 551 873 l 355 842 z "},"ŉ":{"ha":1004,"x_min":3,"x_max":896,"o":"m 627 765 q 825 700 754 765 q 896 490 896 634 l 896 0 l 736 0 l 736 460 q 701 591 736 547 q 589 635 665 635 q 438 568 480 635 q 395 373 395 500 l 395 0 l 236 0 l 236 751 l 360 751 l 382 649 l 391 649 q 452 714 416 688 q 533 752 488 739 q 627 765 578 765 m 227 991 l 237 977 q 205 871 224 927 q 163 758 186 814 q 118 652 141 702 l 3 652 q 22 736 12 692 q 42 826 33 781 q 59 913 52 871 q 72 991 66 956 l 227 991 z "},"Ŋ":{"ha":1088,"x_min":130,"x_max":958,"o":"m 672 -276 q 603 -272 633 -276 q 552 -260 573 -267 l 552 -129 q 603 -138 576 -134 q 662 -142 631 -142 q 740 -129 707 -142 q 791 -83 772 -115 q 812 2 810 -52 l 272 791 l 266 791 q 271 709 269 758 q 276 607 274 659 q 278 511 278 554 l 278 0 l 130 0 l 130 991 l 329 991 l 814 283 l 819 283 q 814 366 817 318 q 810 463 812 413 q 809 555 809 513 l 809 991 l 958 991 l 958 4 q 922 -154 958 -92 q 823 -246 887 -216 q 672 -276 758 -276 z "},"ŋ":{"ha":882,"x_min":114,"x_max":774,"o":"m 554 -334 q 493 -329 522 -334 q 444 -317 464 -323 l 444 -189 q 482 -199 463 -196 q 525 -203 501 -203 q 589 -178 563 -203 q 614 -85 614 -154 l 614 469 q 578 593 614 552 q 468 635 542 635 q 353 605 395 635 q 292 516 310 574 q 273 374 273 458 l 273 0 l 114 0 l 114 751 l 238 751 l 261 649 l 271 649 q 331 714 295 688 q 411 752 367 739 q 505 765 456 765 q 651 736 591 765 q 743 647 711 707 q 774 490 774 587 l 774 -100 q 751 -221 774 -168 q 680 -304 728 -274 q 554 -334 632 -334 z "},"Ō":{"ha":1093,"x_min":83,"x_max":1010,"o":"m 1010 497 q 982 289 1010 382 q 895 127 953 195 q 751 23 838 60 q 547 -14 664 -14 q 341 23 429 -14 q 197 127 254 60 q 111 290 140 195 q 83 498 83 384 q 133 766 83 652 q 287 944 184 880 q 549 1007 391 1007 q 806 944 703 1007 q 959 767 908 881 q 1010 497 1010 652 m 254 497 q 285 299 254 382 q 381 170 316 215 q 547 125 446 125 q 714 170 650 125 q 809 299 779 215 q 840 497 840 382 q 770 770 840 671 q 549 869 701 869 q 381 824 447 869 q 285 696 316 779 q 254 497 254 613 m 764 1201 l 764 1084 l 330 1084 l 330 1201 l 764 1201 z "},"ō":{"ha":848,"x_min":70,"x_max":779,"o":"m 779 377 q 754 211 779 283 q 683 89 730 138 q 570 13 636 39 q 422 -14 505 -14 q 280 13 345 -14 q 169 89 216 39 q 96 211 121 138 q 70 377 70 283 q 113 588 70 501 q 236 720 156 674 q 427 765 316 765 q 610 720 530 765 q 734 587 689 674 q 779 377 779 500 m 234 377 q 254 237 234 295 q 316 148 274 178 q 425 117 358 117 q 533 148 491 117 q 595 237 575 178 q 614 377 614 295 q 595 516 614 459 q 533 604 575 574 q 424 634 491 634 q 279 568 325 634 q 234 377 234 501 m 642 960 l 642 842 l 208 842 l 208 960 l 642 960 z "},"Ŏ":{"ha":1093,"x_min":83,"x_max":1010,"o":"m 1010 497 q 982 289 1010 382 q 895 127 953 195 q 751 23 838 60 q 547 -14 664 -14 q 341 23 429 -14 q 197 127 254 60 q 111 290 140 195 q 83 498 83 384 q 133 766 83 652 q 287 944 184 880 q 549 1007 391 1007 q 806 944 703 1007 q 959 767 908 881 q 1010 497 1010 652 m 254 497 q 285 299 254 382 q 381 170 316 215 q 547 125 446 125 q 714 170 650 125 q 809 299 779 215 q 840 497 840 382 q 770 770 840 671 q 549 869 701 869 q 381 824 447 869 q 285 696 316 779 q 254 497 254 613 m 790 1289 q 755 1182 785 1228 q 672 1109 724 1135 q 549 1083 620 1083 q 378 1139 439 1083 q 313 1289 318 1195 l 406 1289 q 428 1232 410 1251 q 478 1207 447 1213 q 551 1201 510 1201 q 617 1208 585 1201 q 670 1234 648 1215 q 695 1289 691 1253 l 790 1289 z "},"ŏ":{"ha":848,"x_min":70,"x_max":779,"o":"m 779 377 q 754 211 779 283 q 683 89 730 138 q 570 13 636 39 q 422 -14 505 -14 q 280 13 345 -14 q 169 89 216 39 q 96 211 121 138 q 70 377 70 283 q 113 588 70 501 q 236 720 156 674 q 427 765 316 765 q 610 720 530 765 q 734 587 689 674 q 779 377 779 500 m 234 377 q 254 237 234 295 q 316 148 274 178 q 425 117 358 117 q 533 148 491 117 q 595 237 575 178 q 614 377 614 295 q 595 516 614 459 q 533 604 575 574 q 424 634 491 634 q 279 568 325 634 q 234 377 234 501 m 668 1048 q 633 940 663 987 q 550 868 602 894 q 427 842 498 842 q 256 898 317 842 q 191 1048 196 954 l 283 1048 q 306 991 288 1010 q 356 966 325 972 q 429 960 388 960 q 495 967 463 960 q 548 993 526 974 q 573 1048 569 1012 l 668 1048 z "},"Ő":{"ha":1093,"x_min":83,"x_max":1010,"o":"m 1010 497 q 982 289 1010 382 q 895 127 953 195 q 751 23 838 60 q 547 -14 664 -14 q 341 23 429 -14 q 197 127 254 60 q 111 290 140 195 q 83 498 83 384 q 133 766 83 652 q 287 944 184 880 q 549 1007 391 1007 q 806 944 703 1007 q 959 767 908 881 q 1010 497 1010 652 m 254 497 q 285 299 254 382 q 381 170 316 215 q 547 125 446 125 q 714 170 650 125 q 809 299 779 215 q 840 497 840 382 q 770 770 840 671 q 549 869 701 869 q 381 824 447 869 q 285 696 316 779 q 254 497 254 613 m 911 1305 l 911 1292 q 876 1246 899 1273 q 822 1188 852 1219 q 761 1130 791 1158 q 706 1083 730 1103 l 618 1083 l 618 1101 q 663 1163 639 1127 q 709 1237 686 1199 q 747 1305 732 1274 l 911 1305 m 655 1305 l 655 1292 q 620 1246 644 1273 q 566 1188 596 1219 q 505 1130 536 1158 q 450 1083 475 1103 l 363 1083 l 363 1101 q 407 1163 383 1127 q 453 1237 430 1199 q 491 1305 475 1274 l 655 1305 z "},"ő":{"ha":848,"x_min":70,"x_max":788,"o":"m 779 377 q 754 211 779 283 q 683 89 730 138 q 570 13 636 39 q 422 -14 505 -14 q 280 13 345 -14 q 169 89 216 39 q 96 211 121 138 q 70 377 70 283 q 113 588 70 501 q 236 720 156 674 q 427 765 316 765 q 610 720 530 765 q 734 587 689 674 q 779 377 779 500 m 234 377 q 254 237 234 295 q 316 148 274 178 q 425 117 358 117 q 533 148 491 117 q 595 237 575 178 q 614 377 614 295 q 595 516 614 459 q 533 604 575 574 q 424 634 491 634 q 279 568 325 634 q 234 377 234 501 m 789 1064 l 789 1050 q 753 1004 777 1031 q 700 947 730 977 q 639 889 669 916 q 584 842 608 861 l 496 842 l 496 859 q 541 922 517 886 q 587 995 564 958 q 625 1064 610 1033 l 789 1064 m 533 1064 l 533 1050 q 498 1004 522 1031 q 444 947 474 977 q 383 889 414 916 q 328 842 353 861 l 241 842 l 241 859 q 284 922 261 886 q 331 995 308 958 q 369 1064 353 1033 l 533 1064 z "},"Œ":{"ha":1318,"x_min":83,"x_max":1236,"o":"m 531 1006 q 605 1003 567 1006 q 674 991 644 999 l 1236 991 l 1236 854 l 840 854 l 840 585 l 1210 585 l 1210 449 l 840 449 l 840 138 l 1236 138 l 1236 0 l 675 0 q 607 -9 646 -5 q 533 -13 569 -13 q 280 51 380 -13 q 132 230 180 115 q 83 498 83 345 q 132 766 83 652 q 280 943 180 880 q 531 1006 379 1006 m 536 868 q 409 843 463 868 q 320 769 355 817 q 268 652 286 721 q 251 497 251 584 q 281 299 251 382 q 375 171 312 216 q 534 125 437 125 q 612 132 574 125 q 677 149 651 138 l 677 844 q 613 862 651 857 q 536 868 575 868 z "},"œ":{"ha":1338,"x_min":69,"x_max":1272,"o":"m 947 764 q 1121 723 1048 764 q 1232 606 1193 682 q 1272 425 1272 530 l 1272 339 l 768 339 q 827 169 772 226 q 983 112 882 112 q 1115 126 1057 112 q 1234 167 1173 140 l 1234 37 q 1118 -1 1177 11 q 978 -14 1060 -14 q 812 20 885 -14 q 692 121 739 54 q 578 20 648 54 q 420 -14 509 -14 q 238 32 317 -14 q 114 165 159 78 q 69 377 69 252 q 111 587 69 500 q 232 719 153 673 q 422 764 311 764 q 575 730 506 764 q 687 630 644 695 q 755 703 716 673 q 843 749 795 733 q 947 764 891 764 m 419 634 q 278 569 322 634 q 234 377 234 504 q 253 234 234 292 q 314 146 273 176 q 421 117 355 117 q 527 146 486 117 q 587 233 568 176 q 606 374 606 290 q 587 518 606 460 q 526 605 568 576 q 419 634 485 634 m 949 644 q 827 597 873 644 q 772 453 780 549 l 1114 453 q 1096 553 1114 510 q 1042 620 1078 596 q 949 644 1006 644 z "},"Ŕ":{"ha":887,"x_min":130,"x_max":876,"o":"m 409 991 q 621 960 537 991 q 746 865 705 929 q 787 703 787 802 q 760 578 787 630 q 688 493 732 527 q 594 439 644 459 l 876 0 l 692 0 l 452 397 l 293 397 l 293 0 l 130 0 l 130 991 l 409 991 m 398 856 l 293 856 l 293 532 l 406 532 q 570 574 519 532 q 621 698 621 616 q 567 820 621 784 q 398 856 512 856 m 682 1305 l 682 1292 q 638 1245 666 1272 q 578 1187 610 1217 q 513 1129 545 1157 q 456 1083 481 1102 l 349 1083 l 349 1101 q 399 1162 372 1126 q 453 1236 427 1198 q 498 1305 480 1274 l 682 1305 z "},"ŕ":{"ha":600,"x_min":114,"x_max":574,"o":"m 494 765 q 536 763 513 765 q 574 758 558 761 l 559 608 q 525 614 545 612 q 488 616 504 616 q 406 603 445 616 q 338 561 368 589 q 291 490 308 532 q 274 393 274 448 l 274 0 l 114 0 l 114 751 l 239 751 l 260 618 l 268 618 q 323 692 290 659 q 400 745 357 725 q 494 765 443 765 m 573 1064 l 573 1050 q 529 1003 557 1031 q 469 946 501 976 q 404 888 436 916 q 347 842 372 861 l 240 842 l 240 859 q 290 921 262 885 q 344 995 317 957 q 389 1064 371 1033 l 573 1064 z "},"Ŗ":{"ha":887,"x_min":130,"x_max":876,"o":"m 409 991 q 621 960 537 991 q 746 865 705 929 q 787 703 787 802 q 760 578 787 630 q 688 493 732 527 q 594 439 644 459 l 876 0 l 692 0 l 452 397 l 293 397 l 293 0 l 130 0 l 130 991 l 409 991 m 398 856 l 293 856 l 293 532 l 406 532 q 570 574 519 532 q 621 698 621 616 q 567 820 621 784 q 398 856 512 856 m 574 -85 l 574 -97 q 548 -162 564 -125 q 510 -236 531 -198 q 465 -307 488 -273 l 373 -307 l 373 -290 q 392 -228 382 -264 q 411 -153 402 -191 q 423 -85 420 -115 l 574 -85 z "},"ŗ":{"ha":600,"x_min":92,"x_max":574,"o":"m 494 765 q 536 763 513 765 q 574 758 558 761 l 559 608 q 525 614 545 612 q 488 616 504 616 q 406 603 445 616 q 338 561 368 589 q 291 490 308 532 q 274 393 274 448 l 274 0 l 114 0 l 114 751 l 239 751 l 260 618 l 268 618 q 323 692 290 659 q 400 745 357 725 q 494 765 443 765 m 294 -85 l 294 -97 q 267 -162 283 -125 q 229 -236 250 -198 q 184 -307 208 -273 l 92 -307 l 92 -290 q 112 -228 102 -264 q 130 -153 121 -191 q 142 -85 139 -115 l 294 -85 z "},"Ř":{"ha":887,"x_min":130,"x_max":876,"o":"m 409 991 q 621 960 537 991 q 746 865 705 929 q 787 703 787 802 q 760 578 787 630 q 688 493 732 527 q 594 439 644 459 l 876 0 l 692 0 l 452 397 l 293 397 l 293 0 l 130 0 l 130 991 l 409 991 m 398 856 l 293 856 l 293 532 l 406 532 q 570 574 519 532 q 621 698 621 616 q 567 820 621 784 q 398 856 512 856 m 362 1083 q 313 1152 344 1114 q 249 1225 282 1190 q 191 1288 216 1261 l 191 1305 l 298 1305 q 375 1249 334 1281 q 450 1179 415 1217 q 527 1249 486 1217 q 605 1305 568 1282 l 713 1305 l 713 1288 q 654 1226 688 1262 q 590 1152 621 1190 q 541 1083 559 1114 l 362 1083 z "},"ř":{"ha":600,"x_min":81,"x_max":604,"o":"m 494 765 q 536 763 513 765 q 574 758 558 761 l 559 608 q 525 614 545 612 q 488 616 504 616 q 406 603 445 616 q 338 561 368 589 q 291 490 308 532 q 274 393 274 448 l 274 0 l 114 0 l 114 751 l 239 751 l 260 618 l 268 618 q 323 692 290 659 q 400 745 357 725 q 494 765 443 765 m 253 842 q 204 910 235 873 q 140 984 173 948 q 81 1046 107 1020 l 81 1064 l 189 1064 q 266 1007 225 1040 q 341 938 306 975 q 418 1008 377 975 q 496 1064 459 1040 l 604 1064 l 604 1046 q 545 984 578 1021 q 480 910 511 948 q 431 842 450 873 l 253 842 z "},"Ś":{"ha":764,"x_min":68,"x_max":703,"o":"m 703 270 q 660 118 703 182 q 536 20 616 54 q 345 -14 456 -14 q 241 -7 290 -14 q 148 11 191 -1 q 68 39 104 22 l 68 193 q 203 145 128 166 q 355 123 277 123 q 459 140 418 123 q 522 188 501 157 q 542 260 542 218 q 518 334 542 304 q 447 390 494 365 q 327 445 399 416 q 234 490 278 465 q 155 549 189 515 q 100 629 120 583 q 80 739 80 675 q 120 882 80 823 q 234 974 161 942 q 406 1006 308 1006 q 553 989 484 1006 q 688 943 622 973 l 637 812 q 518 852 576 838 q 401 867 461 867 q 314 852 350 867 q 259 808 278 836 q 241 741 241 780 q 262 668 241 698 q 329 614 283 639 q 445 560 374 590 q 584 489 527 526 q 672 400 642 452 q 703 270 703 348 m 627 1305 l 627 1292 q 583 1245 610 1272 q 522 1187 555 1217 q 458 1129 490 1157 q 400 1083 426 1102 l 294 1083 l 294 1101 q 343 1162 316 1126 q 398 1236 371 1198 q 443 1305 425 1274 l 627 1305 z "},"ś":{"ha":676,"x_min":67,"x_max":618,"o":"m 618 214 q 583 90 618 140 q 478 13 547 39 q 309 -14 409 -14 q 174 -2 231 -14 q 67 32 117 9 l 67 170 q 188 126 121 144 q 314 108 254 108 q 427 133 393 108 q 462 199 462 157 q 448 242 462 223 q 396 282 434 262 q 286 332 359 303 q 166 389 215 361 q 92 458 117 418 q 67 562 67 498 q 146 713 67 661 q 355 765 225 765 q 486 751 425 765 q 606 711 547 737 l 556 591 q 454 628 505 613 q 350 642 403 642 q 256 623 288 642 q 224 569 224 604 q 239 524 224 543 q 293 488 255 506 q 400 442 332 469 q 516 388 467 416 q 592 319 566 360 q 618 214 618 279 m 570 1064 l 570 1050 q 526 1003 554 1031 q 466 946 498 976 q 401 888 433 916 q 344 842 370 861 l 237 842 l 237 859 q 287 921 260 885 q 341 995 315 957 q 387 1064 368 1033 l 570 1064 z "},"Ŝ":{"ha":764,"x_min":68,"x_max":703,"o":"m 703 270 q 660 118 703 182 q 536 20 616 54 q 345 -14 456 -14 q 241 -7 290 -14 q 148 11 191 -1 q 68 39 104 22 l 68 193 q 203 145 128 166 q 355 123 277 123 q 459 140 418 123 q 522 188 501 157 q 542 260 542 218 q 518 334 542 304 q 447 390 494 365 q 327 445 399 416 q 234 490 278 465 q 155 549 189 515 q 100 629 120 583 q 80 739 80 675 q 120 882 80 823 q 234 974 161 942 q 406 1006 308 1006 q 553 989 484 1006 q 688 943 622 973 l 637 812 q 518 852 576 838 q 401 867 461 867 q 314 852 350 867 q 259 808 278 836 q 241 741 241 780 q 262 668 241 698 q 329 614 283 639 q 445 560 374 590 q 584 489 527 526 q 672 400 642 452 q 703 270 703 348 m 486 1305 q 535 1236 505 1274 q 600 1162 566 1198 q 659 1100 633 1126 l 659 1083 l 551 1083 q 473 1138 514 1106 q 396 1208 432 1171 q 320 1139 359 1171 q 244 1083 280 1107 l 136 1083 l 136 1100 q 195 1162 162 1126 q 259 1236 229 1198 q 308 1305 290 1274 l 486 1305 z "},"ŝ":{"ha":676,"x_min":67,"x_max":618,"o":"m 618 214 q 583 90 618 140 q 478 13 547 39 q 309 -14 409 -14 q 174 -2 231 -14 q 67 32 117 9 l 67 170 q 188 126 121 144 q 314 108 254 108 q 427 133 393 108 q 462 199 462 157 q 448 242 462 223 q 396 282 434 262 q 286 332 359 303 q 166 389 215 361 q 92 458 117 418 q 67 562 67 498 q 146 713 67 661 q 355 765 225 765 q 486 751 425 765 q 606 711 547 737 l 556 591 q 454 628 505 613 q 350 642 403 642 q 256 623 288 642 q 224 569 224 604 q 239 524 224 543 q 293 488 255 506 q 400 442 332 469 q 516 388 467 416 q 592 319 566 360 q 618 214 618 279 m 429 1064 q 478 995 448 1033 q 543 921 509 957 q 602 859 576 884 l 602 842 l 494 842 q 416 897 457 865 q 339 966 375 929 q 263 897 302 929 q 187 842 223 865 l 79 842 l 79 859 q 138 921 105 885 q 202 995 172 957 q 251 1064 233 1033 l 429 1064 z "},"Ş":{"ha":764,"x_min":68,"x_max":703,"o":"m 703 270 q 660 118 703 182 q 536 20 616 54 q 345 -14 456 -14 q 241 -7 290 -14 q 148 11 191 -1 q 68 39 104 22 l 68 193 q 203 145 128 166 q 355 123 277 123 q 459 140 418 123 q 522 188 501 157 q 542 260 542 218 q 518 334 542 304 q 447 390 494 365 q 327 445 399 416 q 234 490 278 465 q 155 549 189 515 q 100 629 120 583 q 80 739 80 675 q 120 882 80 823 q 234 974 161 942 q 406 1006 308 1006 q 553 989 484 1006 q 688 943 622 973 l 637 812 q 518 852 576 838 q 401 867 461 867 q 314 852 350 867 q 259 808 278 836 q 241 741 241 780 q 262 668 241 698 q 329 614 283 639 q 445 560 374 590 q 584 489 527 526 q 672 400 642 452 q 703 270 703 348 m 515 -182 q 467 -294 515 -254 q 310 -334 418 -334 q 262 -330 284 -334 q 225 -323 241 -327 l 225 -230 q 266 -237 241 -234 q 311 -241 290 -241 q 367 -229 346 -241 q 387 -187 387 -216 q 357 -138 387 -156 q 267 -112 326 -119 l 323 0 l 427 0 l 399 -58 q 456 -82 430 -66 q 498 -122 482 -98 q 515 -182 515 -147 z "},"ş":{"ha":676,"x_min":67,"x_max":618,"o":"m 618 214 q 583 90 618 140 q 478 13 547 39 q 309 -14 409 -14 q 174 -2 231 -14 q 67 32 117 9 l 67 170 q 188 126 121 144 q 314 108 254 108 q 427 133 393 108 q 462 199 462 157 q 448 242 462 223 q 396 282 434 262 q 286 332 359 303 q 166 389 215 361 q 92 458 117 418 q 67 562 67 498 q 146 713 67 661 q 355 765 225 765 q 486 751 425 765 q 606 711 547 737 l 556 591 q 454 628 505 613 q 350 642 403 642 q 256 623 288 642 q 224 569 224 604 q 239 524 224 543 q 293 488 255 506 q 400 442 332 469 q 516 388 467 416 q 592 319 566 360 q 618 214 618 279 m 488 -182 q 440 -294 488 -254 q 283 -334 392 -334 q 236 -330 258 -334 q 199 -323 214 -327 l 199 -230 q 239 -237 215 -234 q 284 -241 264 -241 q 340 -229 319 -241 q 361 -187 361 -216 q 330 -138 361 -156 q 240 -112 300 -119 l 297 0 l 400 0 l 372 -58 q 430 -82 404 -66 q 472 -122 456 -98 q 488 -182 488 -147 z "},"Š":{"ha":764,"x_min":68,"x_max":703,"o":"m 703 270 q 660 118 703 182 q 536 20 616 54 q 345 -14 456 -14 q 241 -7 290 -14 q 148 11 191 -1 q 68 39 104 22 l 68 193 q 203 145 128 166 q 355 123 277 123 q 459 140 418 123 q 522 188 501 157 q 542 260 542 218 q 518 334 542 304 q 447 390 494 365 q 327 445 399 416 q 234 490 278 465 q 155 549 189 515 q 100 629 120 583 q 80 739 80 675 q 120 882 80 823 q 234 974 161 942 q 406 1006 308 1006 q 553 989 484 1006 q 688 943 622 973 l 637 812 q 518 852 576 838 q 401 867 461 867 q 314 852 350 867 q 259 808 278 836 q 241 741 241 780 q 262 668 241 698 q 329 614 283 639 q 445 560 374 590 q 584 489 527 526 q 672 400 642 452 q 703 270 703 348 m 307 1083 q 258 1152 289 1114 q 194 1225 227 1190 q 136 1288 161 1261 l 136 1305 l 243 1305 q 320 1249 279 1281 q 395 1179 360 1217 q 472 1249 431 1217 q 550 1305 513 1282 l 659 1305 l 659 1288 q 599 1226 633 1262 q 535 1152 566 1190 q 486 1083 504 1114 l 307 1083 z "},"š":{"ha":676,"x_min":67,"x_max":618,"o":"m 618 214 q 583 90 618 140 q 478 13 547 39 q 309 -14 409 -14 q 174 -2 231 -14 q 67 32 117 9 l 67 170 q 188 126 121 144 q 314 108 254 108 q 427 133 393 108 q 462 199 462 157 q 448 242 462 223 q 396 282 434 262 q 286 332 359 303 q 166 389 215 361 q 92 458 117 418 q 67 562 67 498 q 146 713 67 661 q 355 765 225 765 q 486 751 425 765 q 606 711 547 737 l 556 591 q 454 628 505 613 q 350 642 403 642 q 256 623 288 642 q 224 569 224 604 q 239 524 224 543 q 293 488 255 506 q 400 442 332 469 q 516 388 467 416 q 592 319 566 360 q 618 214 618 279 m 250 842 q 201 910 232 873 q 137 984 170 948 q 79 1046 104 1020 l 79 1064 l 186 1064 q 263 1007 222 1040 q 338 938 303 975 q 415 1008 374 975 q 493 1064 456 1040 l 602 1064 l 602 1046 q 542 984 576 1021 q 478 910 509 948 q 429 842 447 873 l 250 842 z "},"Ț":{"ha":785,"x_min":20,"x_max":764,"o":"m 474 0 l 311 0 l 311 853 l 20 853 l 20 991 l 764 991 l 764 853 l 474 853 l 474 0 m 492 -85 l 492 -97 q 466 -162 482 -125 q 428 -236 449 -198 q 382 -307 406 -273 l 291 -307 l 291 -290 q 310 -228 300 -264 q 329 -153 320 -191 q 341 -85 338 -115 l 492 -85 z "},"ț":{"ha":549,"x_min":27,"x_max":511,"o":"m 393 115 q 455 121 425 115 q 511 135 486 127 l 511 14 q 442 -5 484 3 q 355 -14 400 -14 q 240 8 291 -14 q 159 81 189 29 q 130 226 130 134 l 130 629 l 27 629 l 27 701 l 137 757 l 189 918 l 290 918 l 290 751 l 505 751 l 505 629 l 290 629 l 290 228 q 318 143 290 171 q 393 115 347 115 m 414 -85 l 414 -97 q 387 -162 404 -125 q 349 -236 370 -198 q 304 -307 328 -273 l 212 -307 l 212 -290 q 232 -228 222 -264 q 250 -153 241 -191 q 262 -85 259 -115 l 414 -85 z "},"Ť":{"ha":785,"x_min":20,"x_max":764,"o":"m 474 0 l 311 0 l 311 853 l 20 853 l 20 991 l 764 991 l 764 853 l 474 853 l 474 0 m 304 1083 q 255 1152 286 1114 q 192 1225 224 1190 q 133 1288 159 1261 l 133 1305 l 241 1305 q 317 1249 277 1281 q 393 1179 357 1217 q 470 1249 429 1217 q 547 1305 511 1282 l 656 1305 l 656 1288 q 596 1226 630 1262 q 532 1152 563 1190 q 483 1083 501 1114 l 304 1083 z "},"ť":{"ha":549,"x_min":27,"x_max":715,"o":"m 393 115 q 455 121 425 115 q 511 135 486 127 l 511 14 q 442 -5 484 3 q 355 -14 400 -14 q 240 8 291 -14 q 159 81 189 29 q 130 226 130 134 l 130 629 l 27 629 l 27 701 l 137 757 l 189 918 l 290 918 l 290 751 l 505 751 l 505 629 l 290 629 l 290 228 q 318 143 290 171 q 393 115 347 115 m 715 1055 l 715 1043 q 688 979 705 1015 q 652 905 672 943 q 609 833 631 867 l 518 833 l 518 850 q 531 896 525 870 q 544 950 538 922 q 555 1006 551 979 q 563 1055 560 1033 l 715 1055 z "},"Ŧ":{"ha":785,"x_min":20,"x_max":764,"o":"m 311 0 l 311 431 l 119 431 l 119 564 l 311 564 l 311 852 l 20 852 l 20 991 l 764 991 l 764 852 l 473 852 l 473 564 l 663 564 l 663 431 l 473 431 l 473 0 l 311 0 z "},"ŧ":{"ha":549,"x_min":27,"x_max":511,"o":"m 39 363 l 39 474 l 486 474 l 486 363 l 39 363 m 393 115 q 455 121 425 115 q 511 135 486 127 l 511 14 q 442 -5 484 3 q 355 -14 400 -14 q 240 8 291 -14 q 159 81 189 29 q 130 226 130 134 l 130 629 l 27 629 l 27 701 l 137 757 l 189 918 l 290 918 l 290 751 l 505 751 l 505 629 l 290 629 l 290 228 q 318 143 290 171 q 393 115 347 115 z "},"Ũ":{"ha":1031,"x_min":122,"x_max":909,"o":"m 909 991 l 909 350 q 865 164 909 246 q 733 34 821 82 q 511 -14 645 -14 q 221 86 321 -14 q 122 353 122 186 l 122 991 l 285 991 l 285 367 q 343 184 285 243 q 517 125 401 125 q 648 153 597 125 q 723 236 699 181 q 747 368 747 290 l 747 991 l 909 991 m 249 1084 q 267 1167 253 1131 q 302 1226 280 1202 q 353 1263 324 1251 q 416 1275 382 1275 q 473 1263 446 1275 q 527 1237 500 1252 q 577 1210 553 1221 q 625 1198 602 1198 q 670 1217 652 1198 q 699 1276 689 1236 l 782 1276 q 728 1134 774 1183 q 615 1084 683 1084 q 559 1096 587 1084 q 506 1123 532 1108 q 455 1149 480 1138 q 406 1161 430 1161 q 360 1142 379 1161 q 333 1084 342 1123 l 249 1084 z "},"ũ":{"ha":882,"x_min":108,"x_max":768,"o":"m 768 751 l 768 0 l 643 0 l 621 101 l 612 101 q 552 37 589 62 q 471 -1 515 12 q 376 -14 426 -14 q 232 15 292 -14 q 140 104 172 44 q 108 260 108 165 l 108 751 l 268 751 l 268 290 q 303 159 268 203 q 414 116 339 116 q 530 146 487 116 q 590 234 572 176 q 608 377 608 292 l 608 751 l 768 751 m 174 842 q 192 925 178 890 q 228 985 205 961 q 278 1021 250 1009 q 341 1034 307 1034 q 398 1022 371 1034 q 452 995 426 1010 q 503 968 478 980 q 551 957 528 957 q 596 976 577 957 q 624 1035 614 995 l 707 1035 q 654 892 699 941 q 541 843 608 843 q 485 855 512 843 q 431 882 457 867 q 380 908 406 897 q 332 920 355 920 q 286 901 304 920 q 258 842 267 882 l 174 842 z "},"Ū":{"ha":1031,"x_min":122,"x_max":909,"o":"m 909 991 l 909 350 q 865 164 909 246 q 733 34 821 82 q 511 -14 645 -14 q 221 86 321 -14 q 122 353 122 186 l 122 991 l 285 991 l 285 367 q 343 184 285 243 q 517 125 401 125 q 648 153 597 125 q 723 236 699 181 q 747 368 747 290 l 747 991 l 909 991 m 733 1201 l 733 1084 l 300 1084 l 300 1201 l 733 1201 z "},"ū":{"ha":882,"x_min":108,"x_max":768,"o":"m 768 751 l 768 0 l 643 0 l 621 101 l 612 101 q 552 37 589 62 q 471 -1 515 12 q 376 -14 426 -14 q 232 15 292 -14 q 140 104 172 44 q 108 260 108 165 l 108 751 l 268 751 l 268 290 q 303 159 268 203 q 414 116 339 116 q 530 146 487 116 q 590 234 572 176 q 608 377 608 292 l 608 751 l 768 751 m 659 960 l 659 842 l 225 842 l 225 960 l 659 960 z "},"Ŭ":{"ha":1031,"x_min":122,"x_max":909,"o":"m 909 991 l 909 350 q 865 164 909 246 q 733 34 821 82 q 511 -14 645 -14 q 221 86 321 -14 q 122 353 122 186 l 122 991 l 285 991 l 285 367 q 343 184 285 243 q 517 125 401 125 q 648 153 597 125 q 723 236 699 181 q 747 368 747 290 l 747 991 l 909 991 m 760 1289 q 724 1182 755 1228 q 642 1109 694 1135 q 518 1083 589 1083 q 348 1139 408 1083 q 282 1289 288 1195 l 375 1289 q 398 1232 379 1251 q 448 1207 416 1213 q 520 1201 479 1201 q 586 1208 555 1201 q 639 1234 618 1215 q 665 1289 661 1253 l 760 1289 z "},"ŭ":{"ha":882,"x_min":108,"x_max":768,"o":"m 768 751 l 768 0 l 643 0 l 621 101 l 612 101 q 552 37 589 62 q 471 -1 515 12 q 376 -14 426 -14 q 232 15 292 -14 q 140 104 172 44 q 108 260 108 165 l 108 751 l 268 751 l 268 290 q 303 159 268 203 q 414 116 339 116 q 530 146 487 116 q 590 234 572 176 q 608 377 608 292 l 608 751 l 768 751 m 685 1048 q 650 940 680 987 q 567 868 619 894 q 444 842 515 842 q 273 898 334 842 q 208 1048 213 954 l 300 1048 q 323 991 304 1010 q 373 966 342 972 q 446 960 405 960 q 512 967 480 960 q 565 993 543 974 q 590 1048 586 1012 l 685 1048 z "},"Ů":{"ha":1031,"x_min":122,"x_max":909,"o":"m 909 991 l 909 350 q 865 164 909 246 q 733 34 821 82 q 511 -14 645 -14 q 221 86 321 -14 q 122 353 122 186 l 122 991 l 285 991 l 285 367 q 343 184 285 243 q 517 125 401 125 q 648 153 597 125 q 723 236 699 181 q 747 368 747 290 l 747 991 l 909 991 m 517 1083 q 402 1124 447 1083 q 358 1237 358 1164 q 402 1349 358 1308 q 517 1390 446 1390 q 632 1349 585 1390 q 680 1238 680 1308 q 633 1124 680 1165 q 517 1083 587 1083 m 517 1163 q 570 1183 549 1163 q 591 1237 591 1203 q 570 1290 591 1270 q 517 1310 549 1310 q 465 1290 486 1310 q 444 1237 444 1270 q 463 1183 444 1203 q 517 1163 481 1163 z "},"ů":{"ha":882,"x_min":108,"x_max":768,"o":"m 768 751 l 768 0 l 643 0 l 621 101 l 612 101 q 552 37 589 62 q 471 -1 515 12 q 376 -14 426 -14 q 232 15 292 -14 q 140 104 172 44 q 108 260 108 165 l 108 751 l 268 751 l 268 290 q 303 159 268 203 q 414 116 339 116 q 530 146 487 116 q 590 234 572 176 q 608 377 608 292 l 608 751 l 768 751 m 443 842 q 328 882 372 842 q 283 996 283 923 q 328 1107 283 1067 q 443 1148 372 1148 q 558 1107 511 1148 q 605 997 605 1067 q 558 883 605 924 q 443 842 512 842 m 443 922 q 495 942 475 922 q 516 996 516 962 q 495 1048 516 1029 q 443 1068 474 1068 q 391 1048 412 1068 q 370 996 370 1029 q 388 942 370 962 q 443 922 407 922 z "},"Ű":{"ha":1031,"x_min":122,"x_max":909,"o":"m 909 991 l 909 350 q 865 164 909 246 q 733 34 821 82 q 511 -14 645 -14 q 221 86 321 -14 q 122 353 122 186 l 122 991 l 285 991 l 285 367 q 343 184 285 243 q 517 125 401 125 q 648 153 597 125 q 723 236 699 181 q 747 368 747 290 l 747 991 l 909 991 m 880 1305 l 880 1292 q 845 1246 869 1273 q 791 1188 821 1219 q 730 1130 761 1158 q 675 1083 700 1103 l 588 1083 l 588 1101 q 632 1163 608 1127 q 679 1237 656 1199 q 716 1305 701 1274 l 880 1305 m 625 1305 l 625 1292 q 589 1246 613 1273 q 535 1188 566 1219 q 475 1130 505 1158 q 420 1083 444 1103 l 332 1083 l 332 1101 q 376 1163 353 1127 q 422 1237 399 1199 q 460 1305 445 1274 l 625 1305 z "},"ű":{"ha":882,"x_min":108,"x_max":805,"o":"m 768 751 l 768 0 l 643 0 l 621 101 l 612 101 q 552 37 589 62 q 471 -1 515 12 q 376 -14 426 -14 q 232 15 292 -14 q 140 104 172 44 q 108 260 108 165 l 108 751 l 268 751 l 268 290 q 303 159 268 203 q 414 116 339 116 q 530 146 487 116 q 590 234 572 176 q 608 377 608 292 l 608 751 l 768 751 m 806 1064 l 806 1050 q 770 1004 794 1031 q 716 947 747 977 q 656 889 686 916 q 601 842 625 861 l 513 842 l 513 859 q 557 922 534 886 q 604 995 581 958 q 642 1064 627 1033 l 806 1064 m 550 1064 l 550 1050 q 515 1004 538 1031 q 461 947 491 977 q 400 889 431 916 q 345 842 370 861 l 258 842 l 258 859 q 301 922 278 886 q 348 995 325 958 q 386 1064 370 1033 l 550 1064 z "},"Ų":{"ha":1031,"x_min":122,"x_max":909,"o":"m 658 -144 q 675 -201 658 -183 q 719 -219 692 -219 q 759 -215 741 -219 q 789 -208 777 -212 l 789 -305 q 747 -315 769 -311 q 694 -319 725 -319 q 580 -279 620 -319 q 540 -166 540 -239 q 561 -78 540 -121 q 616 1 583 -35 q 685 58 650 36 l 790 75 q 716 -8 745 29 q 672 -79 686 -46 q 658 -144 658 -113 m 909 991 l 909 350 q 865 164 909 246 q 733 34 821 82 q 511 -14 645 -14 q 221 86 321 -14 q 122 353 122 186 l 122 991 l 285 991 l 285 367 q 343 184 285 243 q 517 125 401 125 q 648 153 597 125 q 723 236 699 181 q 747 368 747 290 l 747 991 l 909 991 z "},"ų":{"ha":882,"x_min":108,"x_max":768,"o":"m 768 751 l 768 0 l 643 0 l 621 101 l 612 101 q 552 37 589 62 q 471 -1 515 12 q 376 -14 426 -14 q 232 15 292 -14 q 140 104 172 44 q 108 260 108 165 l 108 751 l 268 751 l 268 290 q 303 159 268 203 q 414 116 339 116 q 530 146 487 116 q 590 234 572 176 q 608 377 608 292 l 608 751 l 768 751 m 637 -159 q 653 -204 637 -189 q 696 -219 669 -219 q 738 -215 719 -219 q 768 -208 756 -212 l 768 -305 q 726 -315 748 -311 q 673 -319 703 -319 q 559 -280 599 -319 q 519 -177 519 -241 q 539 -100 519 -137 q 591 -32 559 -63 q 660 22 623 0 l 736 0 q 663 -81 689 -44 q 637 -159 637 -119 z "},"Ŵ":{"ha":1313,"x_min":10,"x_max":1303,"o":"m 1303 991 l 1044 0 l 866 0 l 701 594 q 687 646 694 616 q 672 707 680 675 q 660 764 665 738 q 653 804 655 790 q 647 764 652 790 q 636 708 642 739 q 622 647 629 677 q 608 593 614 616 l 446 0 l 269 0 l 10 991 l 174 991 l 317 410 q 331 350 323 382 q 344 286 338 318 q 356 222 351 253 q 365 166 361 191 q 374 223 368 192 q 386 288 379 255 q 399 351 392 321 q 414 406 406 382 l 575 991 l 734 991 l 899 404 q 913 348 906 379 q 927 284 920 317 q 939 221 934 252 q 948 166 945 191 q 960 242 953 199 q 977 329 968 285 q 996 410 987 373 l 1139 991 l 1303 991 m 747 1305 q 797 1236 766 1274 q 861 1162 827 1198 q 920 1100 895 1126 l 920 1083 l 812 1083 q 734 1138 775 1106 q 657 1208 693 1171 q 581 1139 621 1171 q 505 1083 541 1107 l 397 1083 l 397 1100 q 456 1162 423 1126 q 520 1236 490 1198 q 569 1305 551 1274 l 747 1305 z "},"ŵ":{"ha":1133,"x_min":15,"x_max":1118,"o":"m 728 1 l 633 350 q 616 412 626 376 q 597 488 607 449 q 580 560 588 527 q 568 612 572 593 l 563 612 q 552 560 559 593 q 535 488 545 527 q 516 411 526 448 q 500 347 507 374 l 400 1 l 225 1 l 15 751 l 176 751 l 274 378 q 293 296 283 340 q 309 212 302 252 q 319 146 315 172 l 324 146 q 332 193 327 165 q 342 252 336 221 q 355 310 349 283 q 366 355 361 338 l 481 751 l 656 751 l 766 355 q 783 290 774 329 q 799 212 791 251 q 808 147 806 173 l 813 147 q 823 210 816 170 q 840 295 830 250 q 859 378 849 340 l 959 751 l 1118 751 l 906 1 l 728 1 m 658 1064 q 707 995 676 1033 q 771 921 738 957 q 831 859 805 884 l 831 842 l 722 842 q 645 897 686 865 q 568 966 604 929 q 491 897 531 929 q 416 842 452 865 l 308 842 l 308 859 q 367 921 334 885 q 431 995 400 957 q 479 1064 461 1033 l 658 1064 z "},"Ŷ":{"ha":822,"x_min":0,"x_max":822,"o":"m 411 539 l 646 991 l 822 991 l 492 385 l 492 0 l 330 0 l 330 379 l 0 991 l 177 991 l 411 539 m 502 1305 q 551 1236 520 1274 q 615 1162 582 1198 q 675 1100 649 1126 l 675 1083 l 566 1083 q 489 1138 530 1106 q 412 1208 448 1171 q 335 1139 375 1171 q 260 1083 296 1107 l 152 1083 l 152 1100 q 211 1162 178 1126 q 275 1236 244 1198 q 323 1305 305 1274 l 502 1305 z "},"ŷ":{"ha":743,"x_min":1,"x_max":743,"o":"m 1 751 l 174 751 l 328 322 q 347 265 338 293 q 362 210 355 237 q 372 155 368 182 l 376 155 q 396 234 383 191 q 424 322 408 278 l 572 751 l 743 751 l 421 -103 q 353 -228 393 -176 q 258 -307 313 -280 q 132 -334 203 -334 q 73 -330 98 -334 q 31 -322 48 -326 l 31 -195 q 66 -201 45 -198 q 111 -203 88 -203 q 185 -186 154 -203 q 238 -139 216 -170 q 274 -68 260 -108 l 300 2 l 1 751 m 463 1064 q 512 995 481 1033 q 576 921 543 957 q 635 859 610 884 l 635 842 l 527 842 q 449 897 490 865 q 372 966 408 929 q 296 897 336 929 q 220 842 256 865 l 113 842 l 113 859 q 172 921 138 885 q 235 995 205 957 q 284 1064 266 1033 l 463 1064 z "},"Ÿ":{"ha":822,"x_min":0,"x_max":822,"o":"m 411 539 l 646 991 l 822 991 l 492 385 l 492 0 l 330 0 l 330 379 l 0 991 l 177 991 l 411 539 m 199 1191 q 221 1250 199 1232 q 276 1269 243 1269 q 332 1250 309 1269 q 355 1191 355 1232 q 332 1132 355 1152 q 276 1112 309 1112 q 221 1132 243 1112 q 199 1191 199 1152 m 465 1191 q 488 1250 465 1232 q 543 1269 511 1269 q 599 1250 576 1269 q 623 1191 623 1232 q 599 1132 623 1152 q 543 1112 576 1112 q 488 1132 511 1112 q 465 1191 465 1152 z "},"Ź":{"ha":800,"x_min":43,"x_max":756,"o":"m 756 0 l 43 0 l 43 112 l 548 853 l 59 853 l 59 991 l 743 991 l 743 880 l 238 138 l 756 138 l 756 0 m 638 1305 l 638 1292 q 594 1245 622 1272 q 534 1187 566 1217 q 469 1129 501 1157 q 412 1083 437 1102 l 305 1083 l 305 1101 q 355 1162 328 1126 q 409 1236 382 1198 q 454 1305 436 1274 l 638 1305 z "},"ź":{"ha":665,"x_min":46,"x_max":616,"o":"m 616 0 l 46 0 l 46 98 l 425 628 l 69 628 l 69 751 l 606 751 l 606 642 l 234 123 l 616 123 l 616 0 m 564 1064 l 564 1050 q 519 1003 547 1031 q 459 946 492 976 q 395 888 427 916 q 337 842 363 861 l 231 842 l 231 859 q 280 921 253 885 q 335 995 308 957 q 380 1064 361 1033 l 564 1064 z "},"Ż":{"ha":800,"x_min":43,"x_max":756,"o":"m 756 0 l 43 0 l 43 112 l 548 853 l 59 853 l 59 991 l 743 991 l 743 880 l 238 138 l 756 138 l 756 0 m 409 1280 q 473 1260 446 1280 q 499 1192 499 1240 q 473 1125 499 1145 q 409 1105 446 1105 q 345 1125 371 1105 q 319 1192 319 1145 q 345 1260 319 1240 q 409 1280 371 1280 z "},"ż":{"ha":665,"x_min":46,"x_max":616,"o":"m 616 0 l 46 0 l 46 98 l 425 628 l 69 628 l 69 751 l 606 751 l 606 642 l 234 123 l 616 123 l 616 0 m 335 1038 q 399 1019 372 1038 q 425 951 425 999 q 399 883 425 903 q 335 863 372 863 q 271 883 297 863 q 245 951 245 903 q 271 1019 245 999 q 335 1038 297 1038 z "},"Ž":{"ha":800,"x_min":43,"x_max":756,"o":"m 756 0 l 43 0 l 43 112 l 548 853 l 59 853 l 59 991 l 743 991 l 743 880 l 238 138 l 756 138 l 756 0 m 318 1083 q 269 1152 300 1114 q 205 1225 238 1190 q 146 1288 172 1261 l 146 1305 l 254 1305 q 331 1249 290 1281 q 406 1179 371 1217 q 483 1249 442 1217 q 561 1305 524 1282 l 669 1305 l 669 1288 q 610 1226 644 1262 q 546 1152 576 1190 q 496 1083 515 1114 l 318 1083 z "},"ž":{"ha":665,"x_min":46,"x_max":616,"o":"m 616 0 l 46 0 l 46 98 l 425 628 l 69 628 l 69 751 l 606 751 l 606 642 l 234 123 l 616 123 l 616 0 m 244 842 q 195 910 226 873 q 131 984 164 948 q 73 1046 98 1020 l 73 1064 l 180 1064 q 257 1007 216 1040 q 332 938 297 975 q 409 1008 368 975 q 487 1064 450 1040 l 595 1064 l 595 1046 q 536 984 570 1021 q 472 910 503 948 q 422 842 441 873 l 244 842 z "},"ſ":{"ha":490,"x_min":114,"x_max":529,"o":"m 380 934 q 300 902 327 934 q 274 804 274 869 l 274 0 l 114 0 l 114 808 q 145 959 114 903 q 233 1039 176 1015 q 368 1063 290 1063 q 461 1054 422 1063 q 529 1034 500 1045 l 491 913 q 440 927 468 921 q 380 934 413 934 z "},"ƒ":{"ha":794,"x_min":132,"x_max":715,"o":"m 557 1006 q 648 996 609 1006 q 715 976 688 987 l 677 856 q 630 870 655 863 q 574 877 604 877 q 498 846 522 877 q 475 751 475 816 l 475 678 l 647 678 l 647 556 l 477 556 l 477 -88 q 451 -221 477 -165 q 374 -305 426 -276 q 241 -334 321 -334 q 182 -329 212 -334 q 132 -319 152 -324 l 132 -190 q 173 -199 153 -196 q 216 -203 193 -203 q 289 -175 262 -203 q 315 -72 315 -147 l 315 556 l 186 556 l 186 633 l 315 680 l 315 755 q 344 905 315 850 q 427 983 373 960 q 557 1006 481 1006 z "},"Ǻ":{"ha":919,"x_min":-1,"x_max":920,"o":"m -1 0 l 350 866 q 312 913 326 884 q 299 979 299 941 q 343 1092 299 1051 q 458 1133 387 1133 q 574 1093 527 1133 q 621 980 621 1052 q 607 914 621 943 q 568 867 593 885 l 920 0 l 747 0 l 652 248 l 264 248 l 171 0 l -1 0 m 308 388 l 612 388 l 517 632 q 499 682 511 652 q 476 745 488 713 q 459 801 465 778 q 447 760 454 784 q 430 710 439 735 q 414 663 422 684 q 402 631 407 642 l 308 388 m 458 906 q 512 925 492 906 q 532 979 532 944 q 511 1033 532 1014 q 458 1052 490 1052 q 405 1033 425 1052 q 385 979 385 1014 q 404 926 385 945 q 458 906 423 906 m 387 1170 l 387 1181 q 429 1228 407 1202 q 472 1281 452 1254 q 507 1331 493 1308 l 691 1331 l 691 1322 q 657 1288 680 1308 q 605 1246 633 1267 q 547 1204 576 1224 q 494 1170 517 1184 l 387 1170 z "},"ǻ":{"ha":806,"x_min":61,"x_max":696,"o":"m 408 765 q 624 702 551 765 q 696 505 696 639 l 696 0 l 583 0 l 553 106 l 547 106 q 481 39 515 66 q 403 0 448 13 q 295 -14 359 -14 q 175 11 228 -14 q 92 87 122 36 q 61 216 61 138 q 148 390 61 332 q 409 454 234 448 l 539 459 l 539 498 q 503 610 539 576 q 401 643 467 643 q 292 627 345 643 q 189 587 239 610 l 137 699 q 262 747 192 728 q 408 765 332 765 m 538 359 l 441 355 q 274 315 322 351 q 226 214 226 278 q 259 133 226 159 q 347 108 292 108 q 484 155 429 108 q 538 294 538 202 l 538 359 m 410 1052 q 357 1032 378 1052 q 336 979 336 1013 q 355 925 336 945 q 410 905 374 905 q 461 925 441 905 q 482 979 482 945 q 461 1032 482 1013 q 410 1052 440 1052 m 410 1132 q 492 1113 455 1132 q 550 1061 528 1095 q 572 980 572 1027 q 525 866 572 907 q 410 825 479 825 q 294 866 338 825 q 250 979 250 907 q 294 1091 250 1050 q 410 1132 338 1132 m 639 1330 l 639 1322 q 586 1280 624 1305 q 504 1228 547 1254 q 429 1185 460 1202 l 319 1185 l 319 1196 q 361 1238 339 1214 q 405 1285 384 1261 q 439 1330 425 1310 l 639 1330 z "},"Ǽ":{"ha":1264,"x_min":-1,"x_max":1185,"o":"m 1185 0 l 630 0 l 630 275 l 292 275 l 166 0 l -1 0 l 454 991 l 1185 991 l 1185 854 l 793 854 l 793 585 l 1159 585 l 1159 449 l 793 449 l 793 138 l 1185 138 l 1185 0 m 353 415 l 630 415 l 630 850 l 548 850 l 353 415 m 918 1305 l 918 1292 q 874 1245 902 1272 q 814 1187 846 1217 q 749 1129 781 1157 q 692 1083 718 1102 l 585 1083 l 585 1101 q 635 1162 608 1126 q 689 1236 663 1198 q 734 1305 716 1274 l 918 1305 z "},"ǽ":{"ha":1236,"x_min":61,"x_max":1171,"o":"m 864 765 q 1026 724 957 765 q 1133 606 1095 682 q 1170 426 1171 530 l 1170 340 l 684 340 q 740 170 688 228 q 890 112 793 112 q 1015 126 958 112 q 1132 167 1073 140 l 1132 37 q 1018 -1 1076 11 q 882 -14 961 -14 q 764 3 819 -14 q 667 54 710 20 q 594 138 624 87 q 519 55 558 89 q 428 4 480 21 q 300 -14 375 -14 q 179 11 233 -14 q 93 87 125 36 q 61 216 61 138 q 98 345 61 293 q 210 423 136 396 q 395 454 284 450 l 523 459 l 523 511 q 486 612 523 582 q 387 643 450 643 q 280 627 332 643 q 179 588 229 612 l 128 699 q 254 747 183 728 q 397 765 324 765 q 536 739 479 765 q 627 656 593 712 q 726 737 667 709 q 864 765 785 765 m 522 359 l 430 355 q 272 315 317 351 q 226 214 226 278 q 257 133 226 159 q 341 108 289 108 q 434 129 393 108 q 498 191 475 150 q 522 294 522 233 l 522 359 m 861 645 q 740 597 786 645 q 688 453 694 549 l 1013 453 q 996 553 1013 510 q 946 621 979 596 q 861 645 912 645 m 859 1064 l 859 1050 q 814 1003 842 1031 q 754 946 787 976 q 690 888 722 916 q 632 842 658 861 l 526 842 l 526 859 q 575 921 548 885 q 630 995 603 957 q 675 1064 656 1033 l 859 1064 z "},"Ǿ":{"ha":1093,"x_min":83,"x_max":1010,"o":"m 1010 497 q 982 289 1010 382 q 895 127 953 195 q 751 23 838 60 q 547 -14 664 -14 q 413 1 474 -14 q 303 43 351 15 l 238 -52 l 144 11 l 212 110 q 115 276 146 178 q 83 498 83 375 q 133 766 83 652 q 287 944 184 880 q 549 1007 391 1007 q 680 992 619 1007 q 790 951 741 978 l 852 1040 l 945 978 l 880 884 q 977 719 944 817 q 1010 497 1010 621 m 840 497 q 826 635 840 573 q 785 743 812 697 l 387 167 q 458 136 418 146 q 547 125 498 125 q 714 170 650 125 q 809 299 779 215 q 840 497 840 382 m 254 497 q 267 360 254 422 q 308 252 281 298 l 707 827 q 636 858 675 847 q 549 869 597 869 q 381 824 447 869 q 285 696 316 779 q 254 497 254 613 m 782 1305 l 782 1292 q 738 1245 766 1272 q 677 1187 710 1217 q 613 1129 645 1157 q 555 1083 581 1102 l 449 1083 l 449 1101 q 499 1162 471 1126 q 553 1236 526 1198 q 598 1305 580 1274 l 782 1305 z "},"ǿ":{"ha":848,"x_min":70,"x_max":779,"o":"m 779 377 q 735 165 779 253 q 612 32 692 78 q 422 -14 532 -14 q 331 -3 374 -14 q 251 27 288 7 l 198 -48 l 109 13 l 165 92 q 95 214 119 142 q 70 377 70 285 q 165 664 70 563 q 427 765 261 765 q 520 753 476 765 q 603 721 565 742 l 650 789 l 740 728 l 687 654 q 754 535 730 605 q 779 377 779 465 m 234 377 q 240 295 234 332 q 258 229 245 258 l 524 607 q 479 627 505 620 q 424 634 454 634 q 279 568 325 634 q 234 377 234 501 m 614 377 q 609 452 614 417 q 593 514 604 487 l 330 140 q 372 122 348 128 q 425 117 397 117 q 533 148 491 117 q 595 237 575 178 q 614 377 614 295 m 657 1064 l 657 1050 q 613 1003 641 1031 q 553 946 585 976 q 488 888 520 916 q 431 842 456 861 l 324 842 l 324 859 q 374 921 347 885 q 428 995 401 957 q 473 1064 455 1033 l 657 1064 z "},"Ș":{"ha":764,"x_min":68,"x_max":703,"o":"m 703 270 q 660 118 703 182 q 536 20 616 54 q 345 -14 456 -14 q 241 -7 290 -14 q 148 11 191 -1 q 68 39 104 22 l 68 193 q 203 145 128 166 q 355 123 277 123 q 459 140 418 123 q 522 188 501 157 q 542 260 542 218 q 518 334 542 304 q 447 390 494 365 q 327 445 399 416 q 234 490 278 465 q 155 549 189 515 q 100 629 120 583 q 80 739 80 675 q 120 882 80 823 q 234 974 161 942 q 406 1006 308 1006 q 553 989 484 1006 q 688 943 622 973 l 637 812 q 518 852 576 838 q 401 867 461 867 q 314 852 350 867 q 259 808 278 836 q 241 741 241 780 q 262 668 241 698 q 329 614 283 639 q 445 560 374 590 q 584 489 527 526 q 672 400 642 452 q 703 270 703 348 m 465 -85 l 465 -97 q 438 -162 455 -125 q 400 -236 422 -198 q 355 -307 379 -273 l 264 -307 l 264 -290 q 283 -228 273 -264 q 302 -153 293 -191 q 314 -85 311 -115 l 465 -85 z "},"ș":{"ha":676,"x_min":67,"x_max":618,"o":"m 618 214 q 583 90 618 140 q 478 13 547 39 q 309 -14 409 -14 q 174 -2 231 -14 q 67 32 117 9 l 67 170 q 188 126 121 144 q 314 108 254 108 q 427 133 393 108 q 462 199 462 157 q 448 242 462 223 q 396 282 434 262 q 286 332 359 303 q 166 389 215 361 q 92 458 117 418 q 67 562 67 498 q 146 713 67 661 q 355 765 225 765 q 486 751 425 765 q 606 711 547 737 l 556 591 q 454 628 505 613 q 350 642 403 642 q 256 623 288 642 q 224 569 224 604 q 239 524 224 543 q 293 488 255 506 q 400 442 332 469 q 516 388 467 416 q 592 319 566 360 q 618 214 618 279 m 439 -85 l 439 -97 q 412 -162 429 -125 q 374 -236 395 -198 q 329 -307 353 -273 l 237 -307 l 237 -290 q 257 -228 247 -264 q 275 -153 267 -191 q 288 -85 284 -115 l 439 -85 z "},"ˆ":{"ha":634,"x_min":56,"x_max":578,"o":"m 406 1064 q 455 995 424 1033 q 519 921 486 957 q 578 859 553 884 l 578 842 l 470 842 q 392 897 433 865 q 315 966 351 929 q 239 897 279 929 q 163 842 199 865 l 56 842 l 56 859 q 115 921 81 885 q 178 995 148 957 q 227 1064 209 1033 l 406 1064 z "},"ˇ":{"ha":634,"x_min":56,"x_max":578,"o":"m 227 842 q 178 910 209 873 q 114 984 147 948 q 56 1046 81 1020 l 56 1064 l 163 1064 q 240 1007 199 1040 q 315 938 280 975 q 392 1008 351 975 q 470 1064 433 1040 l 578 1064 l 578 1046 q 519 984 553 1021 q 455 910 486 948 q 406 842 424 873 l 227 842 z "},"ˉ":{"ha":545,"x_min":56,"x_max":489,"o":"m 489 960 l 489 842 l 56 842 l 56 960 l 489 960 z "},"˘":{"ha":589,"x_min":56,"x_max":533,"o":"m 533 1048 q 498 940 528 987 q 415 868 467 894 q 292 842 363 842 q 121 898 182 842 q 56 1048 61 954 l 149 1048 q 171 991 153 1010 q 221 966 190 972 q 294 960 253 960 q 360 967 328 960 q 413 993 391 974 q 438 1048 434 1012 l 533 1048 z "},"˙":{"ha":292,"x_min":56,"x_max":236,"o":"m 146 1038 q 210 1019 183 1038 q 236 951 236 999 q 210 883 236 903 q 146 863 183 863 q 82 883 108 863 q 56 951 56 903 q 82 1019 56 999 q 146 1038 108 1038 z "},"˚":{"ha":433,"x_min":56,"x_max":377,"o":"m 215 842 q 100 882 144 842 q 56 996 56 923 q 100 1107 56 1067 q 215 1148 144 1148 q 330 1107 283 1148 q 377 997 377 1067 q 331 883 377 924 q 215 842 284 842 m 215 922 q 268 942 247 922 q 288 996 288 962 q 267 1048 288 1029 q 215 1068 246 1068 q 163 1048 184 1068 q 142 996 142 1029 q 160 942 142 962 q 215 922 179 922 z "},"˛":{"ha":361,"x_min":56,"x_max":305,"o":"m 174 -159 q 190 -204 174 -189 q 233 -219 206 -219 q 274 -215 256 -219 q 305 -208 293 -212 l 305 -305 q 262 -315 285 -311 q 210 -319 240 -319 q 96 -280 136 -319 q 56 -177 56 -241 q 76 -100 56 -137 q 128 -32 96 -63 q 197 22 160 0 l 273 0 q 200 -81 226 -44 q 174 -159 174 -119 z "},"˜":{"ha":644,"x_min":56,"x_max":589,"o":"m 56 842 q 73 925 60 890 q 109 985 87 961 q 160 1021 131 1009 q 222 1034 189 1034 q 280 1022 252 1034 q 333 995 307 1010 q 384 968 359 980 q 432 957 409 957 q 477 976 458 957 q 505 1035 496 995 l 589 1035 q 535 892 581 941 q 422 843 490 843 q 366 855 393 843 q 313 882 338 867 q 262 908 287 897 q 213 920 237 920 q 167 901 186 920 q 140 842 149 882 l 56 842 z "},"˝":{"ha":659,"x_min":56,"x_max":604,"o":"m 604 1064 l 604 1050 q 568 1004 592 1031 q 514 947 545 977 q 454 889 484 916 q 399 842 423 861 l 311 842 l 311 859 q 355 922 332 886 q 402 995 379 958 q 439 1064 425 1033 l 604 1064 m 348 1064 l 348 1050 q 313 1004 336 1031 q 259 947 289 977 q 198 889 229 916 q 143 842 168 861 l 56 842 l 56 859 q 99 922 76 886 q 145 995 123 958 q 184 1064 168 1033 l 348 1064 z "},"΄":{"ha":802,"x_min":340,"x_max":556,"o":"m 340 842 l 340 861 q 357 918 349 886 q 374 984 366 950 q 389 1052 382 1019 q 399 1112 395 1084 l 556 1112 l 556 1097 q 525 1019 545 1063 q 483 929 506 975 q 435 842 459 883 l 340 842 z "},"΅":{"ha":802,"x_min":167,"x_max":652,"o":"m 551 1164 l 551 1150 q 517 1085 538 1120 q 472 1013 496 1050 q 422 941 448 976 l 349 941 l 349 958 q 368 1022 357 986 q 387 1096 378 1058 q 400 1164 395 1133 l 551 1164 m 241 1027 q 294 1009 273 1027 q 315 949 315 990 q 294 890 315 910 q 241 871 273 871 q 188 890 208 871 q 167 949 167 910 q 188 1009 167 990 q 241 1027 208 1027 m 578 1027 q 631 1009 609 1027 q 652 949 652 990 q 631 890 652 910 q 578 871 609 871 q 524 890 544 871 q 503 949 503 910 q 524 1009 503 990 q 578 1027 544 1027 z "},"Ά":{"ha":932,"x_min":14,"x_max":932,"o":"m 759 0 l 662 275 l 283 275 l 186 0 l 14 0 l 383 996 l 564 996 l 932 0 l 759 0 m 620 415 l 526 686 q 510 736 520 704 q 490 802 500 768 q 473 859 479 836 q 456 797 466 831 q 437 732 446 762 q 423 686 428 703 l 328 415 l 620 415 m 16 772 l 16 792 q 34 849 25 817 q 51 915 43 881 q 65 982 59 949 q 76 1043 72 1015 l 233 1043 l 233 1027 q 202 950 221 994 q 159 860 182 906 q 111 772 136 814 l 16 772 z "},"·":{"ha":380,"x_min":91,"x_max":290,"o":"m 91 665 q 120 744 91 721 q 190 766 149 766 q 261 744 231 766 q 290 665 290 721 q 261 587 290 611 q 190 563 231 563 q 120 587 149 563 q 91 665 91 611 z "},"Έ":{"ha":910,"x_min":-1,"x_max":827,"o":"m 827 0 l 266 0 l 266 991 l 827 991 l 827 854 l 429 854 l 429 585 l 802 585 l 802 449 l 429 449 l 429 138 l 827 138 l 827 0 m 0 772 l 0 792 q 18 849 9 817 q 35 915 26 881 q 49 982 43 949 q 60 1043 56 1015 l 216 1043 l 216 1027 q 185 950 205 994 q 143 860 166 906 q 95 772 119 814 l 0 772 z "},"Ή":{"ha":1179,"x_min":-1,"x_max":1048,"o":"m 1048 0 l 886 0 l 886 448 l 429 448 l 429 0 l 266 0 l 266 991 l 429 991 l 429 586 l 886 586 l 886 991 l 1048 991 l 1048 0 m 0 772 l 0 792 q 18 849 9 817 q 35 915 26 881 q 49 982 43 949 q 60 1043 56 1015 l 216 1043 l 216 1027 q 185 950 205 994 q 143 860 166 906 q 95 772 119 814 l 0 772 z "},"Ί":{"ha":564,"x_min":-1,"x_max":433,"o":"m 270 0 l 270 991 l 433 991 l 433 0 l 270 0 m 0 772 l 0 792 q 18 849 9 817 q 35 915 26 881 q 49 982 43 949 q 60 1043 56 1015 l 216 1043 l 216 1027 q 185 950 205 994 q 143 860 166 906 q 95 772 119 814 l 0 772 z "},"Ό":{"ha":1164,"x_min":-1,"x_max":1082,"o":"m 1082 497 q 1053 289 1082 382 q 966 127 1024 195 q 822 23 909 60 q 618 -14 735 -14 q 413 23 500 -14 q 268 127 326 60 q 182 290 211 195 q 154 498 154 384 q 204 766 154 652 q 358 944 255 880 q 620 1007 462 1007 q 877 944 774 1007 q 1030 767 979 881 q 1082 497 1082 652 m 325 497 q 356 299 325 382 q 452 170 387 215 q 618 125 517 125 q 785 170 721 125 q 880 299 850 215 q 911 497 911 382 q 841 770 911 671 q 620 869 772 869 q 453 824 518 869 q 356 696 387 779 q 325 497 325 613 m 0 772 l 0 792 q 18 849 9 817 q 35 915 26 881 q 49 982 43 949 q 60 1043 56 1015 l 216 1043 l 216 1027 q 185 950 205 994 q 143 860 166 906 q 95 772 119 814 l 0 772 z "},"Ύ":{"ha":1057,"x_min":-1,"x_max":1057,"o":"m 646 539 l 882 991 l 1057 991 l 728 385 l 728 0 l 566 0 l 566 379 l 235 991 l 412 991 l 646 539 m 0 772 l 0 792 q 18 849 9 817 q 35 915 26 881 q 49 982 43 949 q 60 1043 56 1015 l 216 1043 l 216 1027 q 185 950 205 994 q 143 860 166 906 q 95 772 119 814 l 0 772 z "},"Ώ":{"ha":1166,"x_min":-5,"x_max":1122,"o":"m 623 869 q 461 831 527 869 q 363 723 396 794 q 330 551 330 652 q 350 388 330 463 q 416 252 370 314 q 540 141 463 191 l 540 0 l 124 0 l 124 139 l 377 139 q 265 246 314 182 q 188 393 216 310 q 160 575 160 475 q 216 804 160 707 q 375 954 271 901 q 623 1007 479 1007 q 872 954 768 1007 q 1031 804 976 901 q 1086 575 1086 707 q 1059 392 1086 475 q 982 246 1031 309 q 868 139 932 182 l 1122 139 l 1122 0 l 705 0 l 705 141 q 830 252 784 189 q 897 389 877 314 q 918 551 918 465 q 884 723 918 652 q 785 831 850 794 q 623 869 719 869 m -4 773 l -4 793 q 14 850 5 818 q 31 916 22 882 q 45 983 39 950 q 56 1044 52 1016 l 212 1044 l 212 1028 q 181 950 201 994 q 139 861 162 907 q 91 773 115 814 l -4 773 z "},"ΐ":{"ha":519,"x_min":-35,"x_max":492,"o":"m 271 751 l 271 228 q 296 143 271 171 q 371 115 322 115 q 435 121 403 115 q 492 135 467 127 l 492 14 q 426 -6 467 2 q 340 -14 385 -14 q 222 7 274 -14 q 141 81 171 28 q 111 227 111 133 l 111 751 l 271 751 m 351 1164 l 351 1150 q 316 1085 337 1120 q 271 1013 296 1050 q 222 941 247 976 l 148 941 l 148 958 q 167 1022 157 986 q 186 1096 177 1058 q 199 1164 195 1133 l 351 1164 m 40 1027 q 93 1009 72 1027 q 115 949 115 990 q 93 890 115 910 q 40 871 72 871 q -13 890 7 871 q -34 949 -34 910 q -13 1009 -34 990 q 40 1027 7 1027 m 377 1027 q 430 1009 408 1027 q 452 949 452 990 q 430 890 452 910 q 377 871 408 871 q 323 890 343 871 q 302 949 302 910 q 323 1009 302 990 q 377 1027 343 1027 z "},"Α":{"ha":918,"x_min":0,"x_max":918,"o":"m 745 0 l 648 275 l 269 275 l 172 0 l 0 0 l 369 996 l 549 996 l 918 0 l 745 0 m 606 415 l 511 686 q 496 736 506 704 q 475 802 486 768 q 458 859 465 836 q 442 797 452 831 q 423 732 432 762 q 409 686 414 703 l 314 415 l 606 415 z "},"Β":{"ha":916,"x_min":130,"x_max":841,"o":"m 130 991 l 425 991 q 715 936 617 991 q 812 744 812 880 q 792 641 812 687 q 734 566 772 595 q 641 526 696 536 l 641 519 q 744 484 699 509 q 815 410 789 458 q 841 285 841 361 q 798 130 841 194 q 675 33 755 66 q 486 0 595 0 l 130 0 l 130 991 m 293 583 l 449 583 q 602 618 559 583 q 645 724 645 654 q 594 825 645 794 q 434 857 544 857 l 293 857 l 293 583 m 293 451 l 293 136 l 465 136 q 625 180 578 136 q 671 300 671 224 q 650 380 671 346 q 583 432 629 414 q 456 451 536 451 l 293 451 z "},"Γ":{"ha":751,"x_min":130,"x_max":722,"o":"m 722 991 l 722 853 l 293 853 l 293 0 l 130 0 l 130 991 l 722 991 z "},"Δ":{"ha":859,"x_min":32,"x_max":827,"o":"m 518 994 l 827 94 l 827 0 l 32 0 l 32 96 l 342 994 l 518 994 m 656 138 l 478 670 q 460 729 470 696 q 441 793 450 762 q 429 845 433 825 q 416 793 425 825 q 399 730 408 762 q 381 672 389 697 l 201 138 l 656 138 z "},"Ε":{"ha":775,"x_min":130,"x_max":692,"o":"m 692 0 l 130 0 l 130 991 l 692 991 l 692 854 l 293 854 l 293 585 l 667 585 l 667 449 l 293 449 l 293 138 l 692 138 l 692 0 z "},"Ζ":{"ha":800,"x_min":43,"x_max":756,"o":"m 756 0 l 43 0 l 43 112 l 548 853 l 59 853 l 59 991 l 743 991 l 743 880 l 238 138 l 756 138 l 756 0 z "},"Η":{"ha":1044,"x_min":130,"x_max":912,"o":"m 912 0 l 750 0 l 750 448 l 293 448 l 293 0 l 130 0 l 130 991 l 293 991 l 293 586 l 750 586 l 750 991 l 912 991 l 912 0 z "},"Θ":{"ha":1093,"x_min":83,"x_max":1010,"o":"m 741 572 l 741 436 l 352 436 l 352 572 l 741 572 m 1010 497 q 982 289 1010 382 q 895 127 953 195 q 751 23 838 60 q 547 -14 664 -14 q 341 23 429 -14 q 197 127 254 60 q 111 290 140 195 q 83 498 83 384 q 133 766 83 652 q 287 944 184 880 q 549 1007 391 1007 q 806 944 703 1007 q 959 767 908 881 q 1010 497 1010 652 m 254 497 q 285 299 254 382 q 381 170 316 215 q 547 125 446 125 q 714 170 650 125 q 809 299 779 215 q 840 497 840 382 q 770 770 840 671 q 549 869 701 869 q 381 824 447 869 q 285 696 316 779 q 254 497 254 613 z "},"Ι":{"ha":424,"x_min":130,"x_max":293,"o":"m 130 0 l 130 991 l 293 991 l 293 0 l 130 0 z "},"Κ":{"ha":886,"x_min":130,"x_max":886,"o":"m 886 0 l 699 0 l 391 450 l 293 371 l 293 0 l 130 0 l 130 991 l 293 991 l 293 517 q 353 591 323 554 q 414 664 384 627 l 694 991 l 878 991 l 507 557 l 886 0 z "},"Λ":{"ha":870,"x_min":0,"x_max":869,"o":"m 522 991 l 869 0 l 703 0 l 496 620 q 474 691 486 650 q 451 771 462 731 q 434 840 441 811 q 418 770 428 810 q 396 690 408 730 q 374 620 385 650 l 168 0 l 0 0 l 347 991 l 522 991 z "},"Μ":{"ha":1280,"x_min":130,"x_max":1149,"o":"m 558 0 l 273 828 l 267 828 q 271 752 269 800 q 276 649 274 704 q 278 544 278 594 l 278 0 l 130 0 l 130 991 l 359 991 l 633 200 l 637 200 l 922 991 l 1149 991 l 1149 0 l 994 0 l 994 552 q 996 650 994 597 q 1000 751 998 703 q 1004 827 1002 798 l 998 827 l 702 0 l 558 0 z "},"Ν":{"ha":1088,"x_min":130,"x_max":958,"o":"m 958 0 l 758 0 l 272 791 l 266 791 q 271 707 269 751 q 275 614 273 662 q 278 518 277 567 l 278 0 l 130 0 l 130 991 l 329 991 l 814 205 l 819 205 q 815 285 817 240 q 811 377 813 330 q 809 470 810 425 l 809 991 l 958 991 l 958 0 z "},"Ξ":{"ha":779,"x_min":51,"x_max":728,"o":"m 51 0 l 51 138 l 728 138 l 728 0 l 51 0 m 134 449 l 134 585 l 645 585 l 645 449 l 134 449 m 79 854 l 79 991 l 701 991 l 701 854 l 79 854 z "},"Ο":{"ha":1093,"x_min":83,"x_max":1010,"o":"m 1010 497 q 982 289 1010 382 q 895 127 953 195 q 751 23 838 60 q 547 -14 664 -14 q 341 23 429 -14 q 197 127 254 60 q 111 290 140 195 q 83 498 83 384 q 133 766 83 652 q 287 944 184 880 q 549 1007 391 1007 q 806 944 703 1007 q 959 767 908 881 q 1010 497 1010 652 m 254 497 q 285 299 254 382 q 381 170 316 215 q 547 125 446 125 q 714 170 650 125 q 809 299 779 215 q 840 497 840 382 q 770 770 840 671 q 549 869 701 869 q 381 824 447 869 q 285 696 316 779 q 254 497 254 613 z "},"Π":{"ha":1023,"x_min":130,"x_max":892,"o":"m 130 0 l 130 991 l 892 991 l 892 0 l 730 0 l 730 853 l 293 853 l 293 0 l 130 0 z "},"Ρ":{"ha":854,"x_min":130,"x_max":787,"o":"m 418 991 q 699 913 610 991 q 787 692 787 834 q 767 570 787 628 q 701 468 747 512 q 582 397 656 423 q 399 372 507 372 l 293 372 l 293 0 l 130 0 l 130 991 l 418 991 m 408 857 l 293 857 l 293 507 l 382 507 q 512 525 458 507 q 593 583 566 543 q 621 686 621 622 q 569 814 621 772 q 408 857 517 857 z "},"Σ":{"ha":805,"x_min":51,"x_max":766,"o":"m 51 0 l 51 130 l 377 519 l 59 863 l 59 991 l 726 991 l 726 854 l 394 854 q 342 854 371 854 q 287 856 314 854 q 238 859 259 857 l 551 520 l 223 133 q 322 136 273 135 q 422 138 372 138 l 766 138 l 766 0 l 51 0 z "},"Τ":{"ha":785,"x_min":20,"x_max":764,"o":"m 474 0 l 311 0 l 311 853 l 20 853 l 20 991 l 764 991 l 764 853 l 474 853 l 474 0 z "},"Υ":{"ha":822,"x_min":0,"x_max":822,"o":"m 411 539 l 646 991 l 822 991 l 492 385 l 492 0 l 330 0 l 330 379 l 0 991 l 177 991 l 411 539 z "},"Φ":{"ha":1151,"x_min":67,"x_max":1083,"o":"m 651 1006 l 651 884 q 905 830 810 880 q 1041 697 1000 779 q 1083 515 1083 615 q 1061 382 1083 448 q 990 262 1040 317 q 857 175 941 208 q 651 139 774 142 l 651 -14 l 499 -14 l 499 139 q 290 176 374 142 q 158 264 207 210 q 88 384 109 319 q 67 514 67 450 q 90 654 67 588 q 163 770 113 720 q 297 851 214 821 q 499 884 380 881 l 499 1006 l 651 1006 m 499 753 q 338 719 398 749 q 251 637 277 689 q 224 515 224 585 q 254 387 224 441 q 344 302 283 333 q 499 268 405 271 l 499 753 m 651 753 l 651 268 q 808 302 747 271 q 898 388 869 334 q 926 516 926 443 q 900 638 926 586 q 813 720 873 690 q 651 753 753 749 z "},"Χ":{"ha":865,"x_min":2,"x_max":862,"o":"m 862 0 l 677 0 l 427 406 l 176 0 l 2 0 l 332 514 l 24 991 l 204 991 l 435 616 l 664 991 l 838 991 l 530 509 l 862 0 z "},"Ψ":{"ha":1162,"x_min":75,"x_max":1086,"o":"m 1086 991 l 1086 666 q 1065 515 1086 583 q 994 399 1043 448 q 861 325 944 351 q 655 299 778 299 l 655 0 l 505 0 l 505 299 q 297 326 380 299 q 165 400 214 352 q 96 516 117 449 q 75 664 75 583 l 75 991 l 231 991 l 231 667 q 260 530 231 581 q 350 457 289 479 q 505 433 410 434 l 505 991 l 655 991 l 655 433 q 807 456 747 434 q 899 529 868 479 q 929 665 929 580 l 929 991 l 1086 991 z "},"Ω":{"ha":1088,"x_min":45,"x_max":1043,"o":"m 544 869 q 383 831 448 869 q 284 723 317 794 q 251 551 251 652 q 271 388 251 463 q 338 252 292 314 q 461 141 384 191 l 461 0 l 45 0 l 45 139 l 298 139 q 186 246 235 182 q 109 393 137 310 q 81 575 81 475 q 137 804 81 707 q 296 954 193 901 q 544 1007 400 1007 q 793 954 690 1007 q 952 804 897 901 q 1008 575 1008 707 q 980 392 1008 475 q 903 246 952 309 q 789 139 854 182 l 1043 139 l 1043 0 l 627 0 l 627 141 q 752 252 705 189 q 819 389 798 314 q 839 551 839 465 q 805 723 839 652 q 706 831 772 794 q 544 869 640 869 z "},"Ϊ":{"ha":424,"x_min":1,"x_max":425,"o":"m 130 0 l 130 991 l 293 991 l 293 0 l 130 0 m 1 1191 q 24 1250 1 1232 q 79 1269 46 1269 q 135 1250 111 1269 q 158 1191 158 1232 q 135 1132 158 1152 q 79 1112 111 1112 q 24 1132 46 1112 q 1 1191 1 1152 m 268 1191 q 291 1250 268 1232 q 346 1269 313 1269 q 402 1250 378 1269 q 425 1191 425 1232 q 402 1132 425 1152 q 346 1112 378 1112 q 291 1132 313 1112 q 268 1191 268 1152 z "},"Ϋ":{"ha":822,"x_min":0,"x_max":822,"o":"m 411 539 l 646 991 l 822 991 l 492 385 l 492 0 l 330 0 l 330 379 l 0 991 l 177 991 l 411 539 m 199 1191 q 221 1250 199 1232 q 276 1269 243 1269 q 332 1250 309 1269 q 355 1191 355 1232 q 332 1132 355 1152 q 276 1112 309 1112 q 221 1132 243 1112 q 199 1191 199 1152 m 465 1191 q 488 1250 465 1232 q 543 1269 511 1269 q 599 1250 576 1269 q 623 1191 623 1232 q 599 1132 623 1152 q 543 1112 576 1112 q 488 1132 511 1112 q 465 1191 465 1152 z "},"ά":{"ha":873,"x_min":70,"x_max":849,"o":"m 412 116 q 520 143 479 116 q 578 225 560 170 q 597 366 597 281 l 597 376 q 557 568 597 502 q 410 634 516 634 q 277 567 321 634 q 234 372 234 500 q 277 180 234 245 q 412 116 320 116 m 371 -14 q 153 84 235 -14 q 70 373 70 182 q 154 664 70 564 q 385 764 238 764 q 520 735 467 764 q 608 648 573 706 l 617 648 q 634 701 623 673 q 661 751 645 730 l 791 751 q 771 672 781 720 q 755 567 762 624 q 749 454 749 511 l 749 202 q 766 137 749 155 q 808 119 783 119 q 830 122 818 119 q 849 127 843 124 l 849 4 q 828 -4 842 0 q 797 -11 814 -8 q 765 -14 780 -14 q 667 12 704 -14 q 611 103 629 37 l 600 103 q 548 45 578 71 q 475 2 518 18 q 371 -14 431 -14 m 372 842 l 372 861 q 390 918 381 886 q 407 984 399 950 q 421 1052 415 1019 q 432 1112 428 1084 l 589 1112 l 589 1097 q 558 1019 577 1063 q 515 929 538 975 q 467 842 492 883 l 372 842 z "},"έ":{"ha":718,"x_min":57,"x_max":668,"o":"m 528 450 l 528 333 l 422 333 q 305 320 351 333 q 237 282 259 307 q 215 219 215 257 q 237 160 215 184 q 302 124 259 136 q 406 113 345 113 q 553 131 487 113 q 666 170 619 149 l 666 37 q 551 1 618 15 q 396 -14 484 -14 q 138 47 220 -14 q 57 205 57 109 q 106 330 57 289 q 231 389 156 372 l 231 395 q 127 457 163 414 q 90 567 90 500 q 131 679 90 635 q 240 744 171 722 q 396 765 310 765 q 543 750 475 765 q 668 711 611 736 l 615 591 q 516 626 567 611 q 399 642 465 642 q 277 619 317 642 q 237 551 237 596 q 288 473 237 496 q 437 450 340 450 l 528 450 m 338 842 l 338 861 q 356 918 347 886 q 373 984 365 950 q 388 1052 381 1019 q 398 1112 394 1084 l 555 1112 l 555 1097 q 524 1019 543 1063 q 481 929 505 975 q 433 842 458 883 l 338 842 z "},"ή":{"ha":882,"x_min":114,"x_max":774,"o":"m 505 765 q 650 736 590 765 q 742 647 710 707 q 774 490 774 586 l 774 -334 l 614 -334 l 614 460 q 579 591 614 547 q 467 635 543 635 q 353 605 395 635 q 292 516 310 574 q 273 373 273 458 l 273 0 l 114 0 l 114 751 l 238 751 l 260 649 l 269 649 q 330 714 294 688 q 411 752 366 739 q 505 765 456 765 m 397 842 l 397 861 q 414 918 406 886 q 431 984 423 950 q 446 1052 439 1019 q 456 1112 452 1084 l 613 1112 l 613 1097 q 582 1019 602 1063 q 539 929 563 975 q 492 842 516 883 l 397 842 z "},"ί":{"ha":519,"x_min":111,"x_max":492,"o":"m 271 751 l 271 228 q 296 143 271 171 q 371 115 322 115 q 435 121 403 115 q 492 135 467 127 l 492 14 q 426 -6 467 2 q 340 -14 385 -14 q 222 7 274 -14 q 141 81 171 28 q 111 227 111 133 l 111 751 l 271 751 m 136 842 l 136 861 q 154 918 145 886 q 171 984 163 950 q 185 1052 179 1019 q 196 1112 192 1084 l 353 1112 l 353 1097 q 322 1019 341 1063 q 279 929 302 975 q 231 842 256 883 l 136 842 z "},"ΰ":{"ha":871,"x_min":104,"x_max":796,"o":"m 435 -13 q 235 34 307 -13 q 133 160 163 80 q 104 341 104 241 l 104 751 l 264 751 l 264 340 q 307 172 264 229 q 443 116 350 116 q 588 186 540 116 q 635 414 635 256 q 623 585 635 507 q 590 751 611 664 l 751 751 q 775 640 766 693 q 791 531 785 587 q 796 408 796 475 q 705 90 796 192 q 435 -13 613 -13 m 582 1164 l 582 1150 q 548 1085 568 1120 q 503 1013 527 1050 q 453 941 478 976 l 379 941 l 379 958 q 398 1022 388 986 q 417 1096 408 1058 q 431 1164 426 1133 l 582 1164 m 271 1027 q 325 1009 303 1027 q 346 949 346 990 q 325 890 346 910 q 271 871 303 871 q 218 890 239 871 q 197 949 197 910 q 218 1009 197 990 q 271 1027 239 1027 m 608 1027 q 661 1009 640 1027 q 683 949 683 990 q 661 890 683 910 q 608 871 640 871 q 554 890 574 871 q 534 949 534 910 q 554 1009 534 990 q 608 1027 574 1027 z "},"α":{"ha":873,"x_min":70,"x_max":849,"o":"m 412 116 q 520 143 479 116 q 578 225 560 170 q 597 366 597 281 l 597 376 q 557 568 597 502 q 410 634 516 634 q 277 567 321 634 q 234 372 234 500 q 277 180 234 245 q 412 116 320 116 m 371 -14 q 153 84 235 -14 q 70 373 70 182 q 154 664 70 564 q 385 764 238 764 q 520 735 467 764 q 608 648 573 706 l 617 648 q 634 701 623 673 q 661 751 645 730 l 791 751 q 771 672 781 720 q 755 567 762 624 q 749 454 749 511 l 749 202 q 766 137 749 155 q 808 119 783 119 q 830 122 818 119 q 849 127 843 124 l 849 4 q 828 -4 842 0 q 797 -11 814 -8 q 765 -14 780 -14 q 667 12 704 -14 q 611 103 629 37 l 600 103 q 548 45 578 71 q 475 2 518 18 q 371 -14 431 -14 z "},"β":{"ha":894,"x_min":114,"x_max":838,"o":"m 460 1063 q 630 1033 556 1063 q 746 945 704 1004 q 789 798 789 886 q 736 638 789 698 q 585 563 684 579 l 585 558 q 772 479 706 544 q 838 288 838 414 q 797 125 838 193 q 681 22 756 58 q 503 -13 606 -13 q 374 -1 430 -13 q 274 34 318 12 l 274 -334 l 114 -334 l 114 744 q 159 925 114 854 q 282 1029 204 996 q 460 1063 361 1063 m 456 935 q 365 917 406 935 q 298 854 323 899 q 274 731 274 810 l 274 170 q 366 131 315 145 q 472 116 417 116 q 625 164 576 116 q 675 301 675 213 q 648 407 675 366 q 573 466 621 448 q 463 485 526 485 l 401 485 l 401 614 l 450 614 q 584 661 541 614 q 627 783 627 707 q 581 897 627 859 q 456 935 534 935 z "},"γ":{"ha":749,"x_min":4,"x_max":745,"o":"m 745 751 l 469 18 q 432 -102 447 -39 q 409 -226 416 -165 q 401 -334 401 -286 l 230 -334 q 239 -235 230 -294 q 264 -112 248 -176 q 299 9 279 -47 l 4 751 l 170 751 l 308 380 q 336 299 321 345 q 362 210 351 252 q 378 143 374 168 l 383 143 q 397 205 387 165 q 420 290 407 245 q 447 373 434 336 l 579 751 l 745 751 z "},"δ":{"ha":847,"x_min":69,"x_max":778,"o":"m 459 1060 q 622 1038 553 1060 q 756 985 692 1017 l 691 868 q 575 917 633 898 q 452 937 517 937 q 365 911 392 937 q 338 852 338 886 q 358 797 338 822 q 419 744 377 771 q 526 682 460 717 q 665 588 608 638 q 749 475 721 537 q 778 336 778 414 q 733 142 778 220 q 609 25 689 64 q 420 -14 529 -14 q 239 23 318 -14 q 115 129 160 59 q 69 297 69 198 q 105 455 69 389 q 205 563 142 520 q 349 629 269 606 q 263 691 301 658 q 203 766 225 725 q 181 859 181 808 q 259 1008 181 957 q 459 1060 336 1060 m 454 562 q 354 520 406 549 q 269 437 303 490 q 235 301 235 385 q 257 205 235 248 q 320 140 279 163 q 421 117 362 117 q 526 141 483 117 q 591 213 568 165 q 614 329 614 261 q 571 468 614 413 q 454 562 528 523 z "},"ε":{"ha":718,"x_min":57,"x_max":668,"o":"m 528 450 l 528 333 l 422 333 q 305 320 351 333 q 237 282 259 307 q 215 219 215 257 q 237 160 215 184 q 302 124 259 136 q 406 113 345 113 q 553 131 487 113 q 666 170 619 149 l 666 37 q 551 1 618 15 q 396 -14 484 -14 q 138 47 220 -14 q 57 205 57 109 q 106 330 57 289 q 231 389 156 372 l 231 395 q 127 457 163 414 q 90 567 90 500 q 131 679 90 635 q 240 744 171 722 q 396 765 310 765 q 543 750 475 765 q 668 711 611 736 l 615 591 q 516 626 567 611 q 399 642 465 642 q 277 619 317 642 q 237 551 237 596 q 288 473 237 496 q 437 450 340 450 l 528 450 z "},"ζ":{"ha":680,"x_min":70,"x_max":657,"o":"m 657 -43 q 629 -160 657 -103 q 568 -264 602 -218 l 408 -264 q 453 -196 432 -231 q 488 -129 475 -161 q 500 -73 500 -97 q 490 -42 500 -56 q 448 -16 479 -28 q 354 7 417 -4 q 200 60 263 23 q 103 160 136 98 q 70 314 70 223 q 102 493 70 410 q 189 652 134 576 q 318 799 245 728 q 473 941 391 870 q 431 937 460 939 q 365 934 401 935 q 298 933 329 933 l 111 933 l 111 1055 l 656 1055 l 656 951 q 432 741 516 834 q 306 572 348 647 q 249 436 263 497 q 235 323 235 374 q 260 212 235 250 q 334 156 286 174 q 449 124 382 138 q 571 86 526 109 q 637 31 617 62 q 657 -43 657 -1 z "},"η":{"ha":882,"x_min":114,"x_max":774,"o":"m 505 765 q 650 736 590 765 q 742 647 710 707 q 774 490 774 586 l 774 -334 l 614 -334 l 614 460 q 579 591 614 547 q 467 635 543 635 q 353 605 395 635 q 292 516 310 574 q 273 373 273 458 l 273 0 l 114 0 l 114 751 l 238 751 l 260 649 l 269 649 q 330 714 294 688 q 411 752 366 739 q 505 765 456 765 z "},"θ":{"ha":840,"x_min":70,"x_max":770,"o":"m 770 526 q 735 235 770 356 q 622 51 699 115 q 418 -14 545 -14 q 155 129 241 -14 q 70 526 70 271 q 105 815 70 695 q 217 1000 140 936 q 418 1063 294 1063 q 683 923 596 1063 q 770 526 770 783 m 418 108 q 558 199 513 108 q 607 472 603 290 l 232 472 q 279 200 235 292 q 418 108 322 108 m 419 942 q 282 855 326 942 q 233 596 239 768 l 606 596 q 556 855 600 768 q 419 942 512 942 z "},"ι":{"ha":519,"x_min":111,"x_max":492,"o":"m 271 751 l 271 228 q 296 143 271 171 q 371 115 322 115 q 435 121 403 115 q 492 135 467 127 l 492 14 q 426 -6 467 2 q 340 -14 385 -14 q 222 7 274 -14 q 141 81 171 28 q 111 227 111 133 l 111 751 l 271 751 z "},"κ":{"ha":795,"x_min":114,"x_max":790,"o":"m 770 751 l 479 413 l 790 0 l 605 0 l 374 316 l 277 243 l 277 0 l 114 0 l 114 751 l 277 751 l 277 555 q 275 458 277 506 q 271 374 273 411 l 273 374 q 312 422 292 398 q 350 469 331 446 l 591 751 l 770 751 z "},"λ":{"ha":799,"x_min":-1,"x_max":796,"o":"m -1 0 l 319 725 l 288 810 q 232 904 262 878 q 145 930 202 930 q 105 928 123 930 q 73 922 87 925 l 73 1053 q 102 1058 85 1056 q 138 1062 119 1061 q 174 1064 157 1064 q 301 1038 252 1064 q 382 960 350 1012 q 443 831 415 908 l 661 225 q 690 161 676 184 q 719 129 704 138 q 752 120 734 120 q 774 122 762 120 q 796 127 787 124 l 796 5 q 769 -4 786 0 q 734 -11 752 -9 q 699 -14 715 -14 q 624 1 654 -14 q 572 46 593 16 q 536 119 551 76 l 448 366 q 432 414 440 389 q 415 464 423 439 q 400 511 407 488 q 390 550 394 533 l 386 550 q 358 461 374 509 q 323 371 341 414 l 164 0 l -1 0 z "},"μ":{"ha":888,"x_min":114,"x_max":774,"o":"m 774 751 l 774 0 l 650 0 l 627 102 l 618 102 q 570 39 598 65 q 505 0 542 14 q 420 -14 468 -14 q 334 4 371 -14 q 272 51 296 21 l 267 51 q 271 9 269 36 q 273 -49 272 -18 q 273 -111 273 -81 l 273 -334 l 114 -334 l 114 751 l 273 751 l 273 290 q 310 160 273 203 q 422 116 347 116 q 537 146 495 116 q 597 235 579 176 q 614 377 614 293 l 614 751 l 774 751 z "},"ν":{"ha":789,"x_min":2,"x_max":734,"o":"m 2 751 l 167 751 l 320 327 q 341 266 329 301 q 363 196 353 231 q 380 140 374 162 l 385 140 q 496 308 455 218 q 556 507 538 398 q 574 751 574 616 l 734 751 q 708 475 734 602 q 617 231 682 347 q 437 0 552 115 l 283 0 l 2 751 z "},"ξ":{"ha":675,"x_min":69,"x_max":657,"o":"m 69 292 q 95 409 69 358 q 165 495 121 459 q 264 549 210 530 l 264 556 q 184 592 218 568 q 133 652 151 616 q 115 738 115 688 q 139 835 115 796 q 209 900 163 874 q 316 941 254 925 q 258 937 291 939 q 194 934 226 935 q 140 933 163 933 l 111 933 l 111 1055 l 621 1055 l 621 941 l 577 941 q 464 928 519 941 q 366 892 410 916 q 297 831 323 868 q 272 745 272 795 q 318 645 272 680 q 481 610 364 610 l 593 610 l 593 495 l 479 495 q 342 472 397 495 q 261 406 288 448 q 235 303 235 363 q 261 204 235 238 q 336 154 288 170 q 451 124 385 138 q 573 85 528 109 q 637 30 618 61 q 657 -43 657 -2 q 629 -160 657 -102 q 569 -264 602 -218 l 412 -264 q 457 -196 436 -231 q 490 -129 477 -161 q 503 -73 503 -96 q 492 -42 503 -56 q 450 -16 481 -28 q 355 7 418 -4 q 200 59 264 24 q 103 153 136 95 q 69 292 69 210 z "},"ο":{"ha":848,"x_min":70,"x_max":779,"o":"m 779 377 q 754 211 779 283 q 683 89 730 138 q 570 13 636 39 q 422 -14 505 -14 q 280 13 345 -14 q 169 89 216 39 q 96 211 121 138 q 70 377 70 283 q 113 588 70 501 q 236 720 156 674 q 427 765 316 765 q 610 720 530 765 q 734 587 689 674 q 779 377 779 500 m 234 377 q 254 237 234 295 q 316 148 274 178 q 425 117 358 117 q 533 148 491 117 q 595 237 575 178 q 614 377 614 295 q 595 516 614 459 q 533 604 575 574 q 424 634 491 634 q 279 568 325 634 q 234 377 234 501 z "},"π":{"ha":965,"x_min":17,"x_max":920,"o":"m 831 114 q 872 119 853 114 q 905 132 890 125 l 905 14 q 856 -5 888 3 q 786 -14 823 -14 q 654 35 701 -14 q 607 184 607 83 l 607 625 l 331 625 l 331 0 l 172 0 l 172 625 l 17 625 l 17 694 l 128 751 l 920 751 l 920 625 l 766 625 l 766 193 q 784 133 766 151 q 831 114 802 114 z "},"ρ":{"ha":847,"x_min":97,"x_max":777,"o":"m 777 376 q 739 163 777 250 q 628 32 700 77 q 457 -14 556 -14 q 349 2 401 -14 q 258 45 298 18 l 250 45 q 255 -34 253 16 q 258 -137 258 -85 l 258 -334 l 97 -334 l 97 382 q 138 592 97 507 q 256 721 179 677 q 441 765 333 765 q 616 720 540 765 q 734 588 692 675 q 777 376 777 501 m 437 634 q 302 573 346 634 q 258 385 258 513 l 258 180 q 339 133 293 149 q 435 117 385 117 q 571 180 529 117 q 613 376 613 243 q 572 572 613 509 q 437 634 530 634 z "},"ς":{"ha":681,"x_min":70,"x_max":658,"o":"m 437 765 q 554 752 496 765 q 658 718 611 739 l 610 593 q 522 621 566 609 q 433 632 477 632 q 281 560 328 632 q 234 348 234 488 q 256 234 234 275 q 326 172 278 193 q 450 133 374 150 q 573 93 528 117 q 637 36 618 68 q 657 -38 657 3 q 629 -158 657 -99 q 569 -264 602 -218 l 412 -264 q 457 -194 436 -230 q 490 -125 477 -158 q 503 -67 503 -92 q 493 -36 503 -50 q 451 -9 482 -22 q 356 16 419 4 q 239 53 292 28 q 149 117 186 77 q 90 213 111 157 q 70 345 70 269 q 116 589 70 497 q 245 723 162 682 q 437 765 328 765 z "},"σ":{"ha":878,"x_min":70,"x_max":848,"o":"m 783 332 q 742 156 783 234 q 621 32 701 77 q 424 -14 541 -14 q 238 30 317 -14 q 114 156 158 73 q 70 362 70 240 q 120 586 70 500 q 263 712 170 672 q 486 751 357 751 l 848 751 l 848 629 l 662 629 q 749 503 714 576 q 783 332 783 431 m 235 362 q 255 234 235 290 q 317 148 275 179 q 427 117 359 117 q 574 181 528 117 q 619 347 619 245 q 608 455 619 406 q 573 548 596 505 q 518 629 551 591 l 478 629 q 294 569 353 629 q 235 362 235 509 z "},"τ":{"ha":703,"x_min":21,"x_max":656,"o":"m 656 751 l 656 625 l 377 625 l 377 232 q 408 142 377 170 q 490 114 438 114 q 554 120 522 114 q 613 134 586 125 l 613 14 q 546 -6 587 3 q 458 -14 505 -14 q 335 7 390 -14 q 249 80 281 28 q 216 226 216 132 l 216 625 l 21 625 l 21 694 l 132 751 l 656 751 z "},"υ":{"ha":871,"x_min":104,"x_max":796,"o":"m 435 -13 q 235 34 307 -13 q 133 160 163 80 q 104 341 104 241 l 104 751 l 264 751 l 264 340 q 307 172 264 229 q 443 116 350 116 q 588 186 540 116 q 635 414 635 256 q 623 585 635 507 q 590 751 611 664 l 751 751 q 775 640 766 693 q 791 531 785 587 q 796 408 796 475 q 705 90 796 192 q 435 -13 613 -13 z "},"φ":{"ha":1048,"x_min":70,"x_max":978,"o":"m 219 762 l 337 684 q 254 541 284 614 q 224 372 224 467 q 252 232 224 286 q 330 150 281 178 q 438 115 378 123 l 438 500 q 505 697 438 630 q 681 764 572 764 q 840 719 773 764 q 942 591 906 673 q 978 396 978 508 q 924 178 978 265 q 782 44 870 90 q 589 -10 693 -2 l 589 -334 l 438 -334 l 438 -10 q 249 40 332 -1 q 118 164 165 82 q 70 376 70 247 q 112 587 70 492 q 219 762 153 682 m 683 642 q 615 610 641 642 q 589 502 589 578 l 589 115 q 710 155 658 121 q 792 250 762 189 q 822 395 822 311 q 806 524 822 469 q 759 611 790 580 q 683 642 728 642 z "},"χ":{"ha":789,"x_min":-22,"x_max":789,"o":"m 141 759 q 230 739 196 759 q 287 681 264 720 q 331 581 310 642 l 407 378 l 610 751 l 774 751 l 475 232 l 608 -96 q 639 -156 623 -134 q 675 -190 654 -179 q 724 -200 696 -200 q 756 -198 741 -200 q 789 -193 772 -196 l 789 -317 q 743 -329 767 -324 q 682 -334 718 -334 q 582 -312 622 -334 q 514 -247 541 -290 q 465 -142 486 -204 l 377 104 l 149 -334 l -22 -334 l 305 251 l 199 524 q 156 602 180 578 q 98 626 132 626 q 69 624 85 626 q 37 615 53 621 l 37 743 q 84 754 58 749 q 141 759 109 759 z "},"ψ":{"ha":1105,"x_min":104,"x_max":1025,"o":"m 633 1054 l 633 115 q 765 152 711 123 q 847 240 819 182 q 875 392 875 299 q 862 571 875 486 q 825 751 848 656 l 977 751 q 1014 571 1002 656 q 1025 393 1025 486 q 974 165 1025 252 q 833 36 922 78 q 633 -12 744 -5 l 633 -334 l 481 -334 l 481 -12 q 285 32 370 -7 q 152 155 200 71 q 104 376 104 239 l 104 751 l 258 751 l 258 372 q 284 225 258 280 q 360 145 311 171 q 481 114 410 119 l 481 1054 l 633 1054 z "},"ω":{"ha":1137,"x_min":76,"x_max":1061,"o":"m 981 751 q 1026 625 1008 686 q 1052 501 1044 564 q 1061 364 1061 437 q 1029 168 1061 254 q 935 35 998 83 q 777 -14 871 -14 q 645 22 694 -14 q 572 121 595 58 l 565 121 q 492 22 541 58 q 359 -14 442 -14 q 204 34 267 -14 q 108 167 140 82 q 76 364 76 252 q 85 501 76 437 q 111 625 94 564 q 156 751 128 686 l 313 751 q 249 565 269 656 q 228 367 228 473 q 264 181 228 248 q 372 114 301 114 q 443 136 416 114 q 482 197 470 157 q 494 291 494 237 l 494 497 l 643 497 l 643 291 q 656 195 643 234 q 695 135 669 155 q 764 114 722 114 q 845 144 812 114 q 893 231 877 174 q 909 366 909 287 q 889 564 909 472 q 824 751 868 656 l 981 751 z "},"ϊ":{"ha":519,"x_min":-12,"x_max":492,"o":"m 271 751 l 271 228 q 296 143 271 171 q 371 115 322 115 q 435 121 403 115 q 492 135 467 127 l 492 14 q 426 -6 467 2 q 340 -14 385 -14 q 222 7 274 -14 q 141 81 171 28 q 111 227 111 133 l 111 751 l 271 751 m -12 949 q 10 1009 -12 990 q 65 1027 33 1027 q 121 1009 98 1027 q 144 949 144 990 q 121 890 144 910 q 65 871 98 871 q 10 890 33 871 q -12 949 -12 910 m 254 949 q 277 1009 254 990 q 332 1027 300 1027 q 388 1009 365 1027 q 412 949 412 990 q 388 890 412 910 q 332 871 365 871 q 277 890 300 871 q 254 949 254 910 z "},"ϋ":{"ha":871,"x_min":104,"x_max":796,"o":"m 435 -13 q 235 34 307 -13 q 133 160 163 80 q 104 341 104 241 l 104 751 l 264 751 l 264 340 q 307 172 264 229 q 443 116 350 116 q 588 186 540 116 q 635 414 635 256 q 623 585 635 507 q 590 751 611 664 l 751 751 q 775 640 766 693 q 791 531 785 587 q 796 408 796 475 q 705 90 796 192 q 435 -13 613 -13 m 220 949 q 242 1009 220 990 q 297 1027 264 1027 q 353 1009 330 1027 q 376 949 376 990 q 353 890 376 910 q 297 871 330 871 q 242 890 264 871 q 220 949 220 910 m 486 949 q 509 1009 486 990 q 564 1027 532 1027 q 620 1009 597 1027 q 644 949 644 990 q 620 890 644 910 q 564 871 597 871 q 509 890 532 871 q 486 949 486 910 z "},"ό":{"ha":848,"x_min":70,"x_max":779,"o":"m 779 377 q 754 211 779 283 q 683 89 730 138 q 570 13 636 39 q 422 -14 505 -14 q 280 13 345 -14 q 169 89 216 39 q 96 211 121 138 q 70 377 70 283 q 113 588 70 501 q 236 720 156 674 q 427 765 316 765 q 610 720 530 765 q 734 587 689 674 q 779 377 779 500 m 234 377 q 254 237 234 295 q 316 148 274 178 q 425 117 358 117 q 533 148 491 117 q 595 237 575 178 q 614 377 614 295 q 595 516 614 459 q 533 604 575 574 q 424 634 491 634 q 279 568 325 634 q 234 377 234 501 m 361 842 l 361 861 q 378 918 370 886 q 395 984 387 950 q 410 1052 404 1019 q 420 1112 416 1084 l 577 1112 l 577 1097 q 546 1019 566 1063 q 504 929 527 975 q 456 842 480 883 l 361 842 z "},"ύ":{"ha":871,"x_min":104,"x_max":796,"o":"m 435 -13 q 235 34 307 -13 q 133 160 163 80 q 104 341 104 241 l 104 751 l 264 751 l 264 340 q 307 172 264 229 q 443 116 350 116 q 588 186 540 116 q 635 414 635 256 q 623 585 635 507 q 590 751 611 664 l 751 751 q 775 640 766 693 q 791 531 785 587 q 796 408 796 475 q 705 90 796 192 q 435 -13 613 -13 m 368 842 l 368 861 q 385 918 376 886 q 402 984 394 950 q 417 1052 410 1019 q 427 1112 423 1084 l 584 1112 l 584 1097 q 553 1019 572 1063 q 510 929 534 975 q 463 842 487 883 l 368 842 z "},"ώ":{"ha":1137,"x_min":76,"x_max":1061,"o":"m 981 751 q 1026 625 1008 686 q 1052 501 1044 564 q 1061 364 1061 437 q 1029 168 1061 254 q 935 35 998 83 q 777 -14 871 -14 q 645 22 694 -14 q 572 121 595 58 l 565 121 q 492 22 541 58 q 359 -14 442 -14 q 204 34 267 -14 q 108 167 140 82 q 76 364 76 252 q 85 501 76 437 q 111 625 94 564 q 156 751 128 686 l 313 751 q 249 565 269 656 q 228 367 228 473 q 264 181 228 248 q 372 114 301 114 q 443 136 416 114 q 482 197 470 157 q 494 291 494 237 l 494 497 l 643 497 l 643 291 q 656 195 643 234 q 695 135 669 155 q 764 114 722 114 q 845 144 812 114 q 893 231 877 174 q 909 366 909 287 q 889 564 909 472 q 824 751 868 656 l 981 751 m 507 842 l 507 861 q 524 918 515 886 q 541 984 533 950 q 556 1052 549 1019 q 566 1112 562 1084 l 723 1112 l 723 1097 q 692 1019 711 1063 q 649 929 673 975 q 602 842 626 883 l 507 842 z "},"Ё":{"ha":775,"x_min":130,"x_max":692,"o":"m 692 0 l 130 0 l 130 991 l 692 991 l 692 854 l 293 854 l 293 585 l 667 585 l 667 449 l 293 449 l 293 138 l 692 138 l 692 0 m 210 1191 q 232 1250 210 1232 q 287 1269 254 1269 q 343 1250 319 1269 q 366 1191 366 1232 q 343 1132 366 1152 q 287 1112 319 1112 q 232 1132 254 1112 q 210 1191 210 1152 m 476 1191 q 499 1250 476 1232 q 554 1269 522 1269 q 610 1250 587 1269 q 633 1191 633 1232 q 610 1132 633 1152 q 554 1112 587 1112 q 499 1132 522 1112 q 476 1191 476 1152 z "},"Ђ":{"ha":1069,"x_min":20,"x_max":979,"o":"m 716 -13 q 651 -7 682 -13 q 595 8 619 -2 l 595 145 q 648 129 621 135 q 703 123 675 123 q 758 133 732 123 q 800 172 783 143 q 817 256 817 201 l 817 345 q 782 449 817 416 q 666 481 747 481 l 422 481 l 422 0 l 260 0 l 260 853 l 20 853 l 20 991 l 725 991 l 725 853 l 422 853 l 422 619 l 675 619 q 900 552 821 619 q 979 360 979 485 l 979 267 q 909 58 979 128 q 716 -13 839 -13 z "},"Ѓ":{"ha":751,"x_min":130,"x_max":722,"o":"m 722 991 l 722 853 l 293 853 l 293 0 l 130 0 l 130 991 l 722 991 m 669 1305 l 669 1292 q 625 1245 652 1272 q 564 1187 597 1217 q 500 1129 532 1157 q 442 1083 468 1102 l 336 1083 l 336 1101 q 386 1162 358 1126 q 440 1236 413 1198 q 485 1305 467 1274 l 669 1305 z "},"Є":{"ha":914,"x_min":83,"x_max":870,"o":"m 568 867 q 447 849 502 867 q 352 793 393 830 q 287 701 311 755 q 256 576 262 647 l 716 576 l 716 440 l 254 440 q 279 306 258 365 q 340 207 300 248 q 436 146 379 167 q 568 125 493 125 q 700 137 636 125 q 833 170 764 149 l 833 32 q 703 -3 770 8 q 554 -14 636 -14 q 288 50 392 -14 q 133 229 183 114 q 83 496 83 343 q 115 703 83 609 q 210 865 147 797 q 364 969 272 932 q 574 1006 456 1006 q 733 989 662 1006 q 870 941 805 972 l 809 806 q 696 850 753 832 q 568 867 639 867 z "},"Ѕ":{"ha":764,"x_min":68,"x_max":703,"o":"m 703 270 q 660 118 703 182 q 536 20 616 54 q 345 -14 456 -14 q 241 -7 290 -14 q 148 11 191 -1 q 68 39 104 22 l 68 193 q 203 145 128 166 q 355 123 277 123 q 459 140 418 123 q 522 188 501 157 q 542 260 542 218 q 518 334 542 304 q 447 390 494 365 q 327 445 399 416 q 234 490 278 465 q 155 549 189 515 q 100 629 120 583 q 80 739 80 675 q 120 882 80 823 q 234 974 161 942 q 406 1006 308 1006 q 553 989 484 1006 q 688 943 622 973 l 637 812 q 518 852 576 838 q 401 867 461 867 q 314 852 350 867 q 259 808 278 836 q 241 741 241 780 q 262 668 241 698 q 329 614 283 639 q 445 560 374 590 q 584 489 527 526 q 672 400 642 452 q 703 270 703 348 z "},"І":{"ha":424,"x_min":130,"x_max":293,"o":"m 130 0 l 130 991 l 293 991 l 293 0 l 130 0 z "},"Ї":{"ha":424,"x_min":1,"x_max":425,"o":"m 130 0 l 130 991 l 293 991 l 293 0 l 130 0 m 1 1191 q 24 1250 1 1232 q 79 1269 46 1269 q 135 1250 111 1269 q 158 1191 158 1232 q 135 1132 158 1152 q 79 1112 111 1112 q 24 1132 46 1112 q 1 1191 1 1152 m 268 1191 q 291 1250 268 1232 q 346 1269 313 1269 q 402 1250 378 1269 q 425 1191 425 1232 q 402 1132 425 1152 q 346 1112 378 1112 q 291 1132 313 1112 q 268 1191 268 1152 z "},"Ј":{"ha":416,"x_min":-107,"x_max":290,"o":"m 7 -276 q -59 -272 -31 -276 q -107 -260 -87 -267 l -107 -123 q -60 -133 -85 -129 q -7 -137 -35 -137 q 61 -123 31 -137 q 110 -71 92 -109 q 127 34 127 -34 l 127 991 l 290 991 l 290 39 q 255 -141 290 -71 q 156 -243 220 -210 q 7 -276 92 -276 z "}}}
